%TF.GenerationSoftware,KiCad,Pcbnew,(5.1.7)-1*%
%TF.CreationDate,2020-11-01T11:20:17+05:30*%
%TF.ProjectId,stm 32 trial board5,73746d20-3332-4207-9472-69616c20626f,rev?*%
%TF.SameCoordinates,Original*%
%TF.FileFunction,Soldermask,Bot*%
%TF.FilePolarity,Negative*%
%FSLAX46Y46*%
G04 Gerber Fmt 4.6, Leading zero omitted, Abs format (unit mm)*
G04 Created by KiCad (PCBNEW (5.1.7)-1) date 2020-11-01 11:20:17*
%MOMM*%
%LPD*%
G01*
G04 APERTURE LIST*
%ADD10C,6.400000*%
%ADD11C,0.800000*%
%ADD12R,1.700000X1.700000*%
%ADD13O,1.700000X1.700000*%
%ADD14O,1.820000X1.120000*%
%ADD15C,0.600000*%
G04 APERTURE END LIST*
D10*
%TO.C,H1*%
X36000000Y-71250000D03*
D11*
X38400000Y-71250000D03*
X37697056Y-72947056D03*
X36000000Y-73650000D03*
X34302944Y-72947056D03*
X33600000Y-71250000D03*
X34302944Y-69552944D03*
X36000000Y-68850000D03*
X37697056Y-69552944D03*
%TD*%
%TO.C,H2*%
X37697056Y-106302944D03*
X36000000Y-105600000D03*
X34302944Y-106302944D03*
X33600000Y-108000000D03*
X34302944Y-109697056D03*
X36000000Y-110400000D03*
X37697056Y-109697056D03*
X38400000Y-108000000D03*
D10*
X36000000Y-108000000D03*
%TD*%
%TO.C,H3*%
X97500000Y-71250000D03*
D11*
X99900000Y-71250000D03*
X99197056Y-72947056D03*
X97500000Y-73650000D03*
X95802944Y-72947056D03*
X95100000Y-71250000D03*
X95802944Y-69552944D03*
X97500000Y-68850000D03*
X99197056Y-69552944D03*
%TD*%
%TO.C,H4*%
X99197056Y-106302944D03*
X97500000Y-105600000D03*
X95802944Y-106302944D03*
X95100000Y-108000000D03*
X95802944Y-109697056D03*
X97500000Y-110400000D03*
X99197056Y-109697056D03*
X99900000Y-108000000D03*
D10*
X97500000Y-108000000D03*
%TD*%
D12*
%TO.C,J2*%
X89290000Y-108000000D03*
D13*
X86750000Y-108000000D03*
%TD*%
D12*
%TO.C,J6*%
X75500000Y-71250000D03*
D13*
X78040000Y-71250000D03*
X80580000Y-71250000D03*
X83120000Y-71250000D03*
%TD*%
D12*
%TO.C,J7*%
X43380000Y-108500000D03*
D13*
X45920000Y-108500000D03*
X48460000Y-108500000D03*
X51000000Y-108500000D03*
%TD*%
%TO.C,J8*%
X71380000Y-108500000D03*
X73920000Y-108500000D03*
X76460000Y-108500000D03*
D12*
X79000000Y-108500000D03*
%TD*%
%TO.C,J10*%
X55750000Y-108500000D03*
D13*
X58290000Y-108500000D03*
X60830000Y-108500000D03*
X63370000Y-108500000D03*
X65910000Y-108500000D03*
%TD*%
D12*
%TO.C,J11*%
X71500000Y-71250000D03*
D13*
X68960000Y-71250000D03*
X66420000Y-71250000D03*
X63880000Y-71250000D03*
X61340000Y-71250000D03*
X58800000Y-71250000D03*
%TD*%
%TO.C,J12*%
X54700000Y-71250000D03*
X52160000Y-71250000D03*
X49620000Y-71250000D03*
X47080000Y-71250000D03*
X44540000Y-71250000D03*
D12*
X42000000Y-71250000D03*
%TD*%
%TO.C,J13*%
X63790000Y-79500000D03*
D13*
X61250000Y-79500000D03*
X58710000Y-79500000D03*
%TD*%
D14*
%TO.C,J9*%
X100425000Y-82775000D03*
X100425000Y-77125000D03*
D15*
X98275000Y-81950000D03*
X98275000Y-77950000D03*
%TD*%
D12*
%TO.C,J1*%
X36000000Y-99700000D03*
D13*
X36000000Y-97160000D03*
X36000000Y-94620000D03*
X36000000Y-92080000D03*
%TD*%
%TO.C,J3*%
X42100000Y-99680000D03*
X42100000Y-97140000D03*
X42100000Y-94600000D03*
D12*
X42100000Y-92060000D03*
%TD*%
%TO.C,J4*%
X35900000Y-79200000D03*
D13*
X35900000Y-81740000D03*
X35900000Y-84280000D03*
X35900000Y-86820000D03*
%TD*%
%TO.C,J5*%
X42100000Y-86820000D03*
X42100000Y-84280000D03*
X42100000Y-81740000D03*
D12*
X42100000Y-79200000D03*
%TD*%
M02*
