%TF.GenerationSoftware,KiCad,Pcbnew,(5.1.7)-1*%
%TF.CreationDate,2020-11-01T11:20:17+05:30*%
%TF.ProjectId,stm 32 trial board5,73746d20-3332-4207-9472-69616c20626f,rev?*%
%TF.SameCoordinates,Original*%
%TF.FileFunction,Copper,L2,Inr*%
%TF.FilePolarity,Positive*%
%FSLAX46Y46*%
G04 Gerber Fmt 4.6, Leading zero omitted, Abs format (unit mm)*
G04 Created by KiCad (PCBNEW (5.1.7)-1) date 2020-11-01 11:20:17*
%MOMM*%
%LPD*%
G01*
G04 APERTURE LIST*
%TA.AperFunction,ComponentPad*%
%ADD10C,6.400000*%
%TD*%
%TA.AperFunction,ComponentPad*%
%ADD11C,0.800000*%
%TD*%
%TA.AperFunction,ComponentPad*%
%ADD12R,1.700000X1.700000*%
%TD*%
%TA.AperFunction,ComponentPad*%
%ADD13O,1.700000X1.700000*%
%TD*%
%TA.AperFunction,ComponentPad*%
%ADD14O,1.820000X1.120000*%
%TD*%
%TA.AperFunction,ViaPad*%
%ADD15C,0.800000*%
%TD*%
%TA.AperFunction,Conductor*%
%ADD16C,0.254000*%
%TD*%
%TA.AperFunction,Conductor*%
%ADD17C,0.100000*%
%TD*%
G04 APERTURE END LIST*
D10*
%TO.N,GND*%
%TO.C,H1*%
X36000000Y-71250000D03*
D11*
X38400000Y-71250000D03*
X37697056Y-72947056D03*
X36000000Y-73650000D03*
X34302944Y-72947056D03*
X33600000Y-71250000D03*
X34302944Y-69552944D03*
X36000000Y-68850000D03*
X37697056Y-69552944D03*
%TD*%
%TO.N,GND*%
%TO.C,H2*%
X37697056Y-106302944D03*
X36000000Y-105600000D03*
X34302944Y-106302944D03*
X33600000Y-108000000D03*
X34302944Y-109697056D03*
X36000000Y-110400000D03*
X37697056Y-109697056D03*
X38400000Y-108000000D03*
D10*
X36000000Y-108000000D03*
%TD*%
%TO.N,GND*%
%TO.C,H3*%
X97500000Y-71250000D03*
D11*
X99900000Y-71250000D03*
X99197056Y-72947056D03*
X97500000Y-73650000D03*
X95802944Y-72947056D03*
X95100000Y-71250000D03*
X95802944Y-69552944D03*
X97500000Y-68850000D03*
X99197056Y-69552944D03*
%TD*%
%TO.N,GND*%
%TO.C,H4*%
X99197056Y-106302944D03*
X97500000Y-105600000D03*
X95802944Y-106302944D03*
X95100000Y-108000000D03*
X95802944Y-109697056D03*
X97500000Y-110400000D03*
X99197056Y-109697056D03*
X99900000Y-108000000D03*
D10*
X97500000Y-108000000D03*
%TD*%
D12*
%TO.N,GND*%
%TO.C,J2*%
X89290000Y-108000000D03*
D13*
%TO.N,Vin*%
X86750000Y-108000000D03*
%TD*%
D12*
%TO.N,I2C3_CLK*%
%TO.C,J6*%
X75500000Y-71250000D03*
D13*
%TO.N,I2C3_SDA*%
X78040000Y-71250000D03*
%TO.N,GND*%
X80580000Y-71250000D03*
%TO.N,+3V3*%
X83120000Y-71250000D03*
%TD*%
D12*
%TO.N,GND*%
%TO.C,J7*%
X43380000Y-108500000D03*
D13*
%TO.N,USART3_TX*%
X45920000Y-108500000D03*
%TO.N,USART3_RX*%
X48460000Y-108500000D03*
%TO.N,+3V3*%
X51000000Y-108500000D03*
%TD*%
%TO.N,+3V3*%
%TO.C,J8*%
X71380000Y-108500000D03*
%TO.N,CAN_TX*%
X73920000Y-108500000D03*
%TO.N,CAN_RX*%
X76460000Y-108500000D03*
D12*
%TO.N,GND*%
X79000000Y-108500000D03*
%TD*%
%TO.N,GND*%
%TO.C,J10*%
X55750000Y-108500000D03*
D13*
%TO.N,SPI2_SCK*%
X58290000Y-108500000D03*
%TO.N,SPI2_MISO*%
X60830000Y-108500000D03*
%TO.N,SPI2_MOSI*%
X63370000Y-108500000D03*
%TO.N,+3V3*%
X65910000Y-108500000D03*
%TD*%
D12*
%TO.N,GND*%
%TO.C,J11*%
X71500000Y-71250000D03*
D13*
%TO.N,rest*%
X68960000Y-71250000D03*
%TO.N,SYS_JTMS-SWDIO*%
X66420000Y-71250000D03*
%TO.N,SYS_JTMS-SWCLK*%
X63880000Y-71250000D03*
%TO.N,SYS_JTMS-TRACESWO*%
X61340000Y-71250000D03*
%TO.N,+3V3*%
X58800000Y-71250000D03*
%TD*%
%TO.N,+3V3*%
%TO.C,J12*%
X54700000Y-71250000D03*
%TO.N,I2S3_CK*%
X52160000Y-71250000D03*
%TO.N,I2S3_ext_SD*%
X49620000Y-71250000D03*
%TO.N,I2S3_SD*%
X47080000Y-71250000D03*
%TO.N,I2S3_WS*%
X44540000Y-71250000D03*
D12*
%TO.N,GND*%
X42000000Y-71250000D03*
%TD*%
%TO.N,GND*%
%TO.C,J13*%
X63790000Y-79500000D03*
D13*
%TO.N,Net-(J13-Pad2)*%
X61250000Y-79500000D03*
%TO.N,+3V3*%
X58710000Y-79500000D03*
%TD*%
D14*
%TO.N,GND*%
%TO.C,J9*%
X100425000Y-82775000D03*
X100425000Y-77125000D03*
%TD*%
D12*
%TO.N,pa0*%
%TO.C,J1*%
X36000000Y-99700000D03*
D13*
%TO.N,pa1*%
X36000000Y-97160000D03*
%TO.N,pa2*%
X36000000Y-94620000D03*
%TO.N,pa3*%
X36000000Y-92080000D03*
%TD*%
%TO.N,pa15*%
%TO.C,J3*%
X42100000Y-99680000D03*
%TO.N,pa7*%
X42100000Y-97140000D03*
%TO.N,pa6*%
X42100000Y-94600000D03*
D12*
%TO.N,pa5*%
X42100000Y-92060000D03*
%TD*%
%TO.N,pb0*%
%TO.C,J4*%
X35900000Y-79200000D03*
D13*
%TO.N,pb1*%
X35900000Y-81740000D03*
%TO.N,pb2*%
X35900000Y-84280000D03*
%TO.N,pb4*%
X35900000Y-86820000D03*
%TD*%
%TO.N,pb12*%
%TO.C,J5*%
X42100000Y-86820000D03*
%TO.N,pb8*%
X42100000Y-84280000D03*
%TO.N,pb6*%
X42100000Y-81740000D03*
D12*
%TO.N,pb5*%
X42100000Y-79200000D03*
%TD*%
D15*
%TO.N,GND*%
X95000000Y-84250000D03*
X87500000Y-101500000D03*
X87500000Y-81500000D03*
X95500000Y-78000000D03*
X48750000Y-90500000D03*
X49500000Y-93000000D03*
X54750000Y-88250000D03*
X52000000Y-85000000D03*
X51300000Y-97000000D03*
X51500000Y-94000000D03*
X70750000Y-85000000D03*
X78500000Y-87750000D03*
X59031698Y-94206392D03*
X58100000Y-101700000D03*
X66100000Y-101300000D03*
X53800000Y-83900000D03*
X59100000Y-87500000D03*
X73800000Y-97500000D03*
X73800000Y-93200000D03*
X73900000Y-102600000D03*
X89200000Y-93300000D03*
%TO.N,+3V3*%
X76750000Y-85250000D03*
X76750000Y-83250000D03*
X75250000Y-82500000D03*
X67750000Y-85750000D03*
X73750000Y-85000000D03*
X75500000Y-86500000D03*
X73750000Y-83500000D03*
X56500000Y-84000000D03*
X69000000Y-85250000D03*
X67800000Y-101550000D03*
X90000000Y-104500000D03*
X99000000Y-96750000D03*
X95750000Y-94250000D03*
X87500000Y-79750000D03*
X77750000Y-74500000D03*
X69250000Y-75000000D03*
X51750000Y-95500000D03*
X59250000Y-102000000D03*
X59400000Y-82000000D03*
%TO.N,pa5*%
X54200000Y-100700000D03*
X60800000Y-94700000D03*
%TO.N,pa3*%
X48600000Y-96800000D03*
X51600000Y-102100000D03*
%TO.N,pa6*%
X47500000Y-97000001D03*
X61100000Y-100300000D03*
%TO.N,pa7*%
X45200000Y-97590001D03*
X61843468Y-99631227D03*
%TO.N,pa15*%
X64750000Y-88750000D03*
X51600000Y-99700000D03*
%TO.N,pb0*%
X68300000Y-81500000D03*
X62600000Y-98900000D03*
%TO.N,pb1*%
X62550001Y-100399890D03*
%TO.N,pb8*%
X61300000Y-88500000D03*
%TO.N,pb6*%
X62025000Y-87792892D03*
%TO.N,pb5*%
X62200000Y-84700000D03*
%TO.N,pb4*%
X63751724Y-88691278D03*
%TO.N,pb2*%
X59300000Y-93200000D03*
X45600000Y-91500000D03*
%TO.N,pb12*%
X61300000Y-89600000D03*
%TO.N,I2C3_CLK*%
X71500000Y-81000000D03*
X73500000Y-86500000D03*
%TO.N,CAN_TX*%
X61487347Y-92987347D03*
X62750000Y-94250000D03*
X69100000Y-97600000D03*
X70250000Y-103250000D03*
%TO.N,CAN_RX*%
X62250000Y-92000000D03*
X63750000Y-93250000D03*
X68900000Y-96500000D03*
X71250000Y-102250000D03*
%TO.N,DP*%
X72000000Y-89500000D03*
X74700000Y-88200000D03*
%TO.N,DM*%
X72000000Y-90500000D03*
X74700000Y-89400000D03*
X91250000Y-79500000D03*
X93250000Y-78250000D03*
%TO.N,rest*%
X50100000Y-77700000D03*
%TO.N,SYS_JTMS-TRACESWO*%
X63000000Y-81750000D03*
%TO.N,I2S3_WS*%
X60075000Y-96000000D03*
%TD*%
D16*
%TO.N,GND*%
X96531593Y-67520111D02*
X95822536Y-67780706D01*
X95547336Y-67927803D01*
X95164476Y-68386974D01*
X95423313Y-68645811D01*
X95403495Y-68767415D01*
X95802944Y-69166864D01*
X95873655Y-69096153D01*
X96259735Y-69482233D01*
X96189024Y-69552944D01*
X96588473Y-69952393D01*
X96710077Y-69932575D01*
X97500000Y-70722498D01*
X97514142Y-70708356D01*
X98041644Y-71235858D01*
X98027502Y-71250000D01*
X98817425Y-72039923D01*
X98797607Y-72161527D01*
X99197056Y-72560976D01*
X99267767Y-72490265D01*
X99653847Y-72876345D01*
X99583136Y-72947056D01*
X99982585Y-73346505D01*
X100104189Y-73326687D01*
X100363026Y-73585524D01*
X100822197Y-73202664D01*
X101139308Y-72517016D01*
X101248000Y-72066719D01*
X101248000Y-76035077D01*
X101208945Y-76015194D01*
X100984094Y-75951860D01*
X100798000Y-76092344D01*
X100798000Y-76752000D01*
X100818000Y-76752000D01*
X100818000Y-77498000D01*
X100798000Y-77498000D01*
X100798000Y-78157656D01*
X100984094Y-78298140D01*
X101208945Y-78234806D01*
X101248000Y-78214923D01*
X101248000Y-81685077D01*
X101208945Y-81665194D01*
X100984094Y-81601860D01*
X100798000Y-81742344D01*
X100798000Y-82402000D01*
X100818000Y-82402000D01*
X100818000Y-83148000D01*
X100798000Y-83148000D01*
X100798000Y-83807656D01*
X100984094Y-83948140D01*
X101208945Y-83884806D01*
X101248000Y-83864923D01*
X101248001Y-107146864D01*
X101229889Y-107031593D01*
X100969294Y-106322536D01*
X100822197Y-106047336D01*
X100363026Y-105664476D01*
X100104189Y-105923313D01*
X99982585Y-105903495D01*
X99583136Y-106302944D01*
X99653847Y-106373655D01*
X99267767Y-106759735D01*
X99197056Y-106689024D01*
X98797607Y-107088473D01*
X98817425Y-107210077D01*
X98027502Y-108000000D01*
X98041644Y-108014142D01*
X97514142Y-108541644D01*
X97500000Y-108527502D01*
X96710077Y-109317425D01*
X96588473Y-109297607D01*
X96189024Y-109697056D01*
X96259735Y-109767767D01*
X95873655Y-110153847D01*
X95802944Y-110083136D01*
X95403495Y-110482585D01*
X95423313Y-110604189D01*
X95164476Y-110863026D01*
X95547336Y-111322197D01*
X96232984Y-111639308D01*
X96683281Y-111748000D01*
X36853142Y-111748000D01*
X36968407Y-111729889D01*
X37677464Y-111469294D01*
X37952664Y-111322197D01*
X38335524Y-110863026D01*
X38076687Y-110604189D01*
X38096505Y-110482585D01*
X37697056Y-110083136D01*
X37626345Y-110153847D01*
X37240265Y-109767767D01*
X37310976Y-109697056D01*
X36911527Y-109297607D01*
X36789923Y-109317425D01*
X36000000Y-108527502D01*
X35985858Y-108541644D01*
X35458356Y-108014142D01*
X35472498Y-108000000D01*
X36527502Y-108000000D01*
X37317425Y-108789923D01*
X37297607Y-108911527D01*
X37697056Y-109310976D01*
X37767767Y-109240265D01*
X38153847Y-109626345D01*
X38083136Y-109697056D01*
X38482585Y-110096505D01*
X38604189Y-110076687D01*
X38863026Y-110335524D01*
X39322197Y-109952664D01*
X39600928Y-109350000D01*
X41891928Y-109350000D01*
X41904188Y-109474482D01*
X41940498Y-109594180D01*
X41999463Y-109704494D01*
X42078815Y-109801185D01*
X42175506Y-109880537D01*
X42285820Y-109939502D01*
X42405518Y-109975812D01*
X42530000Y-109988072D01*
X42848250Y-109985000D01*
X43007000Y-109826250D01*
X43007000Y-108873000D01*
X42053750Y-108873000D01*
X41895000Y-109031750D01*
X41891928Y-109350000D01*
X39600928Y-109350000D01*
X39639308Y-109267016D01*
X39816562Y-108532676D01*
X39847147Y-107777867D01*
X39827056Y-107650000D01*
X41891928Y-107650000D01*
X41895000Y-107968250D01*
X42053750Y-108127000D01*
X43007000Y-108127000D01*
X43007000Y-107173750D01*
X43753000Y-107173750D01*
X43753000Y-108127000D01*
X43773000Y-108127000D01*
X43773000Y-108873000D01*
X43753000Y-108873000D01*
X43753000Y-109826250D01*
X43911750Y-109985000D01*
X44230000Y-109988072D01*
X44354482Y-109975812D01*
X44474180Y-109939502D01*
X44584494Y-109880537D01*
X44681185Y-109801185D01*
X44760537Y-109704494D01*
X44807123Y-109617338D01*
X44914721Y-109724936D01*
X45173011Y-109897519D01*
X45460006Y-110016396D01*
X45764679Y-110077000D01*
X46075321Y-110077000D01*
X46379994Y-110016396D01*
X46666989Y-109897519D01*
X46925279Y-109724936D01*
X47144936Y-109505279D01*
X47190000Y-109437836D01*
X47235064Y-109505279D01*
X47454721Y-109724936D01*
X47713011Y-109897519D01*
X48000006Y-110016396D01*
X48304679Y-110077000D01*
X48615321Y-110077000D01*
X48919994Y-110016396D01*
X49206989Y-109897519D01*
X49465279Y-109724936D01*
X49684936Y-109505279D01*
X49730000Y-109437836D01*
X49775064Y-109505279D01*
X49994721Y-109724936D01*
X50253011Y-109897519D01*
X50540006Y-110016396D01*
X50844679Y-110077000D01*
X51155321Y-110077000D01*
X51459994Y-110016396D01*
X51746989Y-109897519D01*
X52005279Y-109724936D01*
X52224936Y-109505279D01*
X52328689Y-109350000D01*
X54261928Y-109350000D01*
X54274188Y-109474482D01*
X54310498Y-109594180D01*
X54369463Y-109704494D01*
X54448815Y-109801185D01*
X54545506Y-109880537D01*
X54655820Y-109939502D01*
X54775518Y-109975812D01*
X54900000Y-109988072D01*
X55218250Y-109985000D01*
X55377000Y-109826250D01*
X55377000Y-108873000D01*
X54423750Y-108873000D01*
X54265000Y-109031750D01*
X54261928Y-109350000D01*
X52328689Y-109350000D01*
X52397519Y-109246989D01*
X52516396Y-108959994D01*
X52577000Y-108655321D01*
X52577000Y-108344679D01*
X52516396Y-108040006D01*
X52397519Y-107753011D01*
X52328690Y-107650000D01*
X54261928Y-107650000D01*
X54265000Y-107968250D01*
X54423750Y-108127000D01*
X55377000Y-108127000D01*
X55377000Y-107173750D01*
X56123000Y-107173750D01*
X56123000Y-108127000D01*
X56143000Y-108127000D01*
X56143000Y-108873000D01*
X56123000Y-108873000D01*
X56123000Y-109826250D01*
X56281750Y-109985000D01*
X56600000Y-109988072D01*
X56724482Y-109975812D01*
X56844180Y-109939502D01*
X56954494Y-109880537D01*
X57051185Y-109801185D01*
X57130537Y-109704494D01*
X57177123Y-109617338D01*
X57284721Y-109724936D01*
X57543011Y-109897519D01*
X57830006Y-110016396D01*
X58134679Y-110077000D01*
X58445321Y-110077000D01*
X58749994Y-110016396D01*
X59036989Y-109897519D01*
X59295279Y-109724936D01*
X59514936Y-109505279D01*
X59560000Y-109437836D01*
X59605064Y-109505279D01*
X59824721Y-109724936D01*
X60083011Y-109897519D01*
X60370006Y-110016396D01*
X60674679Y-110077000D01*
X60985321Y-110077000D01*
X61289994Y-110016396D01*
X61576989Y-109897519D01*
X61835279Y-109724936D01*
X62054936Y-109505279D01*
X62100000Y-109437836D01*
X62145064Y-109505279D01*
X62364721Y-109724936D01*
X62623011Y-109897519D01*
X62910006Y-110016396D01*
X63214679Y-110077000D01*
X63525321Y-110077000D01*
X63829994Y-110016396D01*
X64116989Y-109897519D01*
X64375279Y-109724936D01*
X64594936Y-109505279D01*
X64640000Y-109437836D01*
X64685064Y-109505279D01*
X64904721Y-109724936D01*
X65163011Y-109897519D01*
X65450006Y-110016396D01*
X65754679Y-110077000D01*
X66065321Y-110077000D01*
X66369994Y-110016396D01*
X66656989Y-109897519D01*
X66915279Y-109724936D01*
X67134936Y-109505279D01*
X67307519Y-109246989D01*
X67426396Y-108959994D01*
X67487000Y-108655321D01*
X67487000Y-108344679D01*
X69803000Y-108344679D01*
X69803000Y-108655321D01*
X69863604Y-108959994D01*
X69982481Y-109246989D01*
X70155064Y-109505279D01*
X70374721Y-109724936D01*
X70633011Y-109897519D01*
X70920006Y-110016396D01*
X71224679Y-110077000D01*
X71535321Y-110077000D01*
X71839994Y-110016396D01*
X72126989Y-109897519D01*
X72385279Y-109724936D01*
X72604936Y-109505279D01*
X72650000Y-109437836D01*
X72695064Y-109505279D01*
X72914721Y-109724936D01*
X73173011Y-109897519D01*
X73460006Y-110016396D01*
X73764679Y-110077000D01*
X74075321Y-110077000D01*
X74379994Y-110016396D01*
X74666989Y-109897519D01*
X74925279Y-109724936D01*
X75144936Y-109505279D01*
X75190000Y-109437836D01*
X75235064Y-109505279D01*
X75454721Y-109724936D01*
X75713011Y-109897519D01*
X76000006Y-110016396D01*
X76304679Y-110077000D01*
X76615321Y-110077000D01*
X76919994Y-110016396D01*
X77206989Y-109897519D01*
X77465279Y-109724936D01*
X77572877Y-109617338D01*
X77619463Y-109704494D01*
X77698815Y-109801185D01*
X77795506Y-109880537D01*
X77905820Y-109939502D01*
X78025518Y-109975812D01*
X78150000Y-109988072D01*
X78468250Y-109985000D01*
X78627000Y-109826250D01*
X78627000Y-108873000D01*
X79373000Y-108873000D01*
X79373000Y-109826250D01*
X79531750Y-109985000D01*
X79850000Y-109988072D01*
X79974482Y-109975812D01*
X80094180Y-109939502D01*
X80204494Y-109880537D01*
X80301185Y-109801185D01*
X80380537Y-109704494D01*
X80439502Y-109594180D01*
X80475812Y-109474482D01*
X80488072Y-109350000D01*
X80485000Y-109031750D01*
X80326250Y-108873000D01*
X79373000Y-108873000D01*
X78627000Y-108873000D01*
X78607000Y-108873000D01*
X78607000Y-108127000D01*
X78627000Y-108127000D01*
X78627000Y-107173750D01*
X79373000Y-107173750D01*
X79373000Y-108127000D01*
X80326250Y-108127000D01*
X80485000Y-107968250D01*
X80486192Y-107844679D01*
X85173000Y-107844679D01*
X85173000Y-108155321D01*
X85233604Y-108459994D01*
X85352481Y-108746989D01*
X85525064Y-109005279D01*
X85744721Y-109224936D01*
X86003011Y-109397519D01*
X86290006Y-109516396D01*
X86594679Y-109577000D01*
X86905321Y-109577000D01*
X87209994Y-109516396D01*
X87496989Y-109397519D01*
X87755279Y-109224936D01*
X87862877Y-109117338D01*
X87909463Y-109204494D01*
X87988815Y-109301185D01*
X88085506Y-109380537D01*
X88195820Y-109439502D01*
X88315518Y-109475812D01*
X88440000Y-109488072D01*
X88758250Y-109485000D01*
X88917000Y-109326250D01*
X88917000Y-108373000D01*
X89663000Y-108373000D01*
X89663000Y-109326250D01*
X89821750Y-109485000D01*
X90140000Y-109488072D01*
X90264482Y-109475812D01*
X90384180Y-109439502D01*
X90494494Y-109380537D01*
X90591185Y-109301185D01*
X90670537Y-109204494D01*
X90729502Y-109094180D01*
X90765812Y-108974482D01*
X90778072Y-108850000D01*
X90775000Y-108531750D01*
X90616250Y-108373000D01*
X89663000Y-108373000D01*
X88917000Y-108373000D01*
X88897000Y-108373000D01*
X88897000Y-108222133D01*
X93652853Y-108222133D01*
X93770111Y-108968407D01*
X94030706Y-109677464D01*
X94177803Y-109952664D01*
X94636974Y-110335524D01*
X94895811Y-110076687D01*
X95017415Y-110096505D01*
X95416864Y-109697056D01*
X95346153Y-109626345D01*
X95732233Y-109240265D01*
X95802944Y-109310976D01*
X96202393Y-108911527D01*
X96182575Y-108789923D01*
X96972498Y-108000000D01*
X96182575Y-107210077D01*
X96202393Y-107088473D01*
X95802944Y-106689024D01*
X95732233Y-106759735D01*
X95346153Y-106373655D01*
X95416864Y-106302944D01*
X95017415Y-105903495D01*
X94895811Y-105923313D01*
X94636974Y-105664476D01*
X94177803Y-106047336D01*
X93860692Y-106732984D01*
X93683438Y-107467324D01*
X93652853Y-108222133D01*
X88897000Y-108222133D01*
X88897000Y-107627000D01*
X88917000Y-107627000D01*
X88917000Y-106673750D01*
X89663000Y-106673750D01*
X89663000Y-107627000D01*
X90616250Y-107627000D01*
X90775000Y-107468250D01*
X90778072Y-107150000D01*
X90765812Y-107025518D01*
X90729502Y-106905820D01*
X90670537Y-106795506D01*
X90591185Y-106698815D01*
X90494494Y-106619463D01*
X90384180Y-106560498D01*
X90264482Y-106524188D01*
X90140000Y-106511928D01*
X89821750Y-106515000D01*
X89663000Y-106673750D01*
X88917000Y-106673750D01*
X88758250Y-106515000D01*
X88440000Y-106511928D01*
X88315518Y-106524188D01*
X88195820Y-106560498D01*
X88085506Y-106619463D01*
X87988815Y-106698815D01*
X87909463Y-106795506D01*
X87862877Y-106882662D01*
X87755279Y-106775064D01*
X87496989Y-106602481D01*
X87209994Y-106483604D01*
X86905321Y-106423000D01*
X86594679Y-106423000D01*
X86290006Y-106483604D01*
X86003011Y-106602481D01*
X85744721Y-106775064D01*
X85525064Y-106994721D01*
X85352481Y-107253011D01*
X85233604Y-107540006D01*
X85173000Y-107844679D01*
X80486192Y-107844679D01*
X80488072Y-107650000D01*
X80475812Y-107525518D01*
X80439502Y-107405820D01*
X80380537Y-107295506D01*
X80301185Y-107198815D01*
X80204494Y-107119463D01*
X80094180Y-107060498D01*
X79974482Y-107024188D01*
X79850000Y-107011928D01*
X79531750Y-107015000D01*
X79373000Y-107173750D01*
X78627000Y-107173750D01*
X78468250Y-107015000D01*
X78150000Y-107011928D01*
X78025518Y-107024188D01*
X77905820Y-107060498D01*
X77795506Y-107119463D01*
X77698815Y-107198815D01*
X77619463Y-107295506D01*
X77572877Y-107382662D01*
X77465279Y-107275064D01*
X77206989Y-107102481D01*
X76919994Y-106983604D01*
X76615321Y-106923000D01*
X76304679Y-106923000D01*
X76000006Y-106983604D01*
X75713011Y-107102481D01*
X75454721Y-107275064D01*
X75235064Y-107494721D01*
X75190000Y-107562164D01*
X75144936Y-107494721D01*
X74925279Y-107275064D01*
X74666989Y-107102481D01*
X74379994Y-106983604D01*
X74075321Y-106923000D01*
X73764679Y-106923000D01*
X73460006Y-106983604D01*
X73173011Y-107102481D01*
X72914721Y-107275064D01*
X72695064Y-107494721D01*
X72650000Y-107562164D01*
X72604936Y-107494721D01*
X72385279Y-107275064D01*
X72126989Y-107102481D01*
X71839994Y-106983604D01*
X71535321Y-106923000D01*
X71224679Y-106923000D01*
X70920006Y-106983604D01*
X70633011Y-107102481D01*
X70374721Y-107275064D01*
X70155064Y-107494721D01*
X69982481Y-107753011D01*
X69863604Y-108040006D01*
X69803000Y-108344679D01*
X67487000Y-108344679D01*
X67426396Y-108040006D01*
X67307519Y-107753011D01*
X67134936Y-107494721D01*
X66915279Y-107275064D01*
X66656989Y-107102481D01*
X66369994Y-106983604D01*
X66065321Y-106923000D01*
X65754679Y-106923000D01*
X65450006Y-106983604D01*
X65163011Y-107102481D01*
X64904721Y-107275064D01*
X64685064Y-107494721D01*
X64640000Y-107562164D01*
X64594936Y-107494721D01*
X64375279Y-107275064D01*
X64116989Y-107102481D01*
X63829994Y-106983604D01*
X63525321Y-106923000D01*
X63214679Y-106923000D01*
X62910006Y-106983604D01*
X62623011Y-107102481D01*
X62364721Y-107275064D01*
X62145064Y-107494721D01*
X62100000Y-107562164D01*
X62054936Y-107494721D01*
X61835279Y-107275064D01*
X61576989Y-107102481D01*
X61289994Y-106983604D01*
X60985321Y-106923000D01*
X60674679Y-106923000D01*
X60370006Y-106983604D01*
X60083011Y-107102481D01*
X59824721Y-107275064D01*
X59605064Y-107494721D01*
X59560000Y-107562164D01*
X59514936Y-107494721D01*
X59295279Y-107275064D01*
X59036989Y-107102481D01*
X58749994Y-106983604D01*
X58445321Y-106923000D01*
X58134679Y-106923000D01*
X57830006Y-106983604D01*
X57543011Y-107102481D01*
X57284721Y-107275064D01*
X57177123Y-107382662D01*
X57130537Y-107295506D01*
X57051185Y-107198815D01*
X56954494Y-107119463D01*
X56844180Y-107060498D01*
X56724482Y-107024188D01*
X56600000Y-107011928D01*
X56281750Y-107015000D01*
X56123000Y-107173750D01*
X55377000Y-107173750D01*
X55218250Y-107015000D01*
X54900000Y-107011928D01*
X54775518Y-107024188D01*
X54655820Y-107060498D01*
X54545506Y-107119463D01*
X54448815Y-107198815D01*
X54369463Y-107295506D01*
X54310498Y-107405820D01*
X54274188Y-107525518D01*
X54261928Y-107650000D01*
X52328690Y-107650000D01*
X52224936Y-107494721D01*
X52005279Y-107275064D01*
X51746989Y-107102481D01*
X51459994Y-106983604D01*
X51155321Y-106923000D01*
X50844679Y-106923000D01*
X50540006Y-106983604D01*
X50253011Y-107102481D01*
X49994721Y-107275064D01*
X49775064Y-107494721D01*
X49730000Y-107562164D01*
X49684936Y-107494721D01*
X49465279Y-107275064D01*
X49206989Y-107102481D01*
X48919994Y-106983604D01*
X48615321Y-106923000D01*
X48304679Y-106923000D01*
X48000006Y-106983604D01*
X47713011Y-107102481D01*
X47454721Y-107275064D01*
X47235064Y-107494721D01*
X47190000Y-107562164D01*
X47144936Y-107494721D01*
X46925279Y-107275064D01*
X46666989Y-107102481D01*
X46379994Y-106983604D01*
X46075321Y-106923000D01*
X45764679Y-106923000D01*
X45460006Y-106983604D01*
X45173011Y-107102481D01*
X44914721Y-107275064D01*
X44807123Y-107382662D01*
X44760537Y-107295506D01*
X44681185Y-107198815D01*
X44584494Y-107119463D01*
X44474180Y-107060498D01*
X44354482Y-107024188D01*
X44230000Y-107011928D01*
X43911750Y-107015000D01*
X43753000Y-107173750D01*
X43007000Y-107173750D01*
X42848250Y-107015000D01*
X42530000Y-107011928D01*
X42405518Y-107024188D01*
X42285820Y-107060498D01*
X42175506Y-107119463D01*
X42078815Y-107198815D01*
X41999463Y-107295506D01*
X41940498Y-107405820D01*
X41904188Y-107525518D01*
X41891928Y-107650000D01*
X39827056Y-107650000D01*
X39729889Y-107031593D01*
X39469294Y-106322536D01*
X39322197Y-106047336D01*
X38863026Y-105664476D01*
X38604189Y-105923313D01*
X38482585Y-105903495D01*
X38083136Y-106302944D01*
X38153847Y-106373655D01*
X37767767Y-106759735D01*
X37697056Y-106689024D01*
X37297607Y-107088473D01*
X37317425Y-107210077D01*
X36527502Y-108000000D01*
X35472498Y-108000000D01*
X34682575Y-107210077D01*
X34702393Y-107088473D01*
X34302944Y-106689024D01*
X34232233Y-106759735D01*
X33846153Y-106373655D01*
X33916864Y-106302944D01*
X33517415Y-105903495D01*
X33395811Y-105923313D01*
X33136974Y-105664476D01*
X32677803Y-106047336D01*
X32360692Y-106732984D01*
X32252000Y-107183281D01*
X32252000Y-105136974D01*
X33664476Y-105136974D01*
X33923313Y-105395811D01*
X33903495Y-105517415D01*
X34302944Y-105916864D01*
X34373655Y-105846153D01*
X34759735Y-106232233D01*
X34689024Y-106302944D01*
X35088473Y-106702393D01*
X35210077Y-106682575D01*
X36000000Y-107472498D01*
X36789923Y-106682575D01*
X36911527Y-106702393D01*
X37310976Y-106302944D01*
X37240265Y-106232233D01*
X37626345Y-105846153D01*
X37697056Y-105916864D01*
X38096505Y-105517415D01*
X38076687Y-105395811D01*
X38335524Y-105136974D01*
X37952664Y-104677803D01*
X37328223Y-104389000D01*
X88873000Y-104389000D01*
X88873000Y-104611000D01*
X88916310Y-104828734D01*
X89001266Y-105033835D01*
X89124602Y-105218421D01*
X89281579Y-105375398D01*
X89466165Y-105498734D01*
X89671266Y-105583690D01*
X89889000Y-105627000D01*
X90111000Y-105627000D01*
X90328734Y-105583690D01*
X90533835Y-105498734D01*
X90718421Y-105375398D01*
X90875398Y-105218421D01*
X90929818Y-105136974D01*
X95164476Y-105136974D01*
X95423313Y-105395811D01*
X95403495Y-105517415D01*
X95802944Y-105916864D01*
X95873655Y-105846153D01*
X96259735Y-106232233D01*
X96189024Y-106302944D01*
X96588473Y-106702393D01*
X96710077Y-106682575D01*
X97500000Y-107472498D01*
X98289923Y-106682575D01*
X98411527Y-106702393D01*
X98810976Y-106302944D01*
X98740265Y-106232233D01*
X99126345Y-105846153D01*
X99197056Y-105916864D01*
X99596505Y-105517415D01*
X99576687Y-105395811D01*
X99835524Y-105136974D01*
X99452664Y-104677803D01*
X98767016Y-104360692D01*
X98032676Y-104183438D01*
X97277867Y-104152853D01*
X96531593Y-104270111D01*
X95822536Y-104530706D01*
X95547336Y-104677803D01*
X95164476Y-105136974D01*
X90929818Y-105136974D01*
X90998734Y-105033835D01*
X91083690Y-104828734D01*
X91127000Y-104611000D01*
X91127000Y-104389000D01*
X91083690Y-104171266D01*
X90998734Y-103966165D01*
X90875398Y-103781579D01*
X90718421Y-103624602D01*
X90533835Y-103501266D01*
X90328734Y-103416310D01*
X90111000Y-103373000D01*
X89889000Y-103373000D01*
X89671266Y-103416310D01*
X89466165Y-103501266D01*
X89281579Y-103624602D01*
X89124602Y-103781579D01*
X89001266Y-103966165D01*
X88916310Y-104171266D01*
X88873000Y-104389000D01*
X37328223Y-104389000D01*
X37267016Y-104360692D01*
X36532676Y-104183438D01*
X35777867Y-104152853D01*
X35031593Y-104270111D01*
X34322536Y-104530706D01*
X34047336Y-104677803D01*
X33664476Y-105136974D01*
X32252000Y-105136974D01*
X32252000Y-101989000D01*
X50473000Y-101989000D01*
X50473000Y-102211000D01*
X50516310Y-102428734D01*
X50601266Y-102633835D01*
X50724602Y-102818421D01*
X50881579Y-102975398D01*
X51066165Y-103098734D01*
X51271266Y-103183690D01*
X51489000Y-103227000D01*
X51711000Y-103227000D01*
X51928734Y-103183690D01*
X52036624Y-103139000D01*
X69123000Y-103139000D01*
X69123000Y-103361000D01*
X69166310Y-103578734D01*
X69251266Y-103783835D01*
X69374602Y-103968421D01*
X69531579Y-104125398D01*
X69716165Y-104248734D01*
X69921266Y-104333690D01*
X70139000Y-104377000D01*
X70361000Y-104377000D01*
X70578734Y-104333690D01*
X70783835Y-104248734D01*
X70968421Y-104125398D01*
X71125398Y-103968421D01*
X71248734Y-103783835D01*
X71333690Y-103578734D01*
X71374345Y-103374345D01*
X71578734Y-103333690D01*
X71783835Y-103248734D01*
X71968421Y-103125398D01*
X72125398Y-102968421D01*
X72248734Y-102783835D01*
X72333690Y-102578734D01*
X72377000Y-102361000D01*
X72377000Y-102139000D01*
X72333690Y-101921266D01*
X72248734Y-101716165D01*
X72125398Y-101531579D01*
X71968421Y-101374602D01*
X71783835Y-101251266D01*
X71578734Y-101166310D01*
X71361000Y-101123000D01*
X71139000Y-101123000D01*
X70921266Y-101166310D01*
X70716165Y-101251266D01*
X70531579Y-101374602D01*
X70374602Y-101531579D01*
X70251266Y-101716165D01*
X70166310Y-101921266D01*
X70125655Y-102125655D01*
X69921266Y-102166310D01*
X69716165Y-102251266D01*
X69531579Y-102374602D01*
X69374602Y-102531579D01*
X69251266Y-102716165D01*
X69166310Y-102921266D01*
X69123000Y-103139000D01*
X52036624Y-103139000D01*
X52133835Y-103098734D01*
X52318421Y-102975398D01*
X52475398Y-102818421D01*
X52598734Y-102633835D01*
X52683690Y-102428734D01*
X52727000Y-102211000D01*
X52727000Y-101989000D01*
X52707109Y-101889000D01*
X58123000Y-101889000D01*
X58123000Y-102111000D01*
X58166310Y-102328734D01*
X58251266Y-102533835D01*
X58374602Y-102718421D01*
X58531579Y-102875398D01*
X58716165Y-102998734D01*
X58921266Y-103083690D01*
X59139000Y-103127000D01*
X59361000Y-103127000D01*
X59578734Y-103083690D01*
X59783835Y-102998734D01*
X59968421Y-102875398D01*
X60125398Y-102718421D01*
X60248734Y-102533835D01*
X60333690Y-102328734D01*
X60377000Y-102111000D01*
X60377000Y-101889000D01*
X60333690Y-101671266D01*
X60248734Y-101466165D01*
X60125398Y-101281579D01*
X59968421Y-101124602D01*
X59783835Y-101001266D01*
X59578734Y-100916310D01*
X59361000Y-100873000D01*
X59139000Y-100873000D01*
X58921266Y-100916310D01*
X58716165Y-101001266D01*
X58531579Y-101124602D01*
X58374602Y-101281579D01*
X58251266Y-101466165D01*
X58166310Y-101671266D01*
X58123000Y-101889000D01*
X52707109Y-101889000D01*
X52683690Y-101771266D01*
X52598734Y-101566165D01*
X52475398Y-101381579D01*
X52318421Y-101224602D01*
X52133835Y-101101266D01*
X51928734Y-101016310D01*
X51711000Y-100973000D01*
X51489000Y-100973000D01*
X51271266Y-101016310D01*
X51066165Y-101101266D01*
X50881579Y-101224602D01*
X50724602Y-101381579D01*
X50601266Y-101566165D01*
X50516310Y-101771266D01*
X50473000Y-101989000D01*
X32252000Y-101989000D01*
X32252000Y-98850000D01*
X34419483Y-98850000D01*
X34419483Y-100550000D01*
X34433520Y-100692517D01*
X34475090Y-100829557D01*
X34542597Y-100955853D01*
X34633446Y-101066554D01*
X34744147Y-101157403D01*
X34870443Y-101224910D01*
X35007483Y-101266480D01*
X35150000Y-101280517D01*
X36850000Y-101280517D01*
X36992517Y-101266480D01*
X37129557Y-101224910D01*
X37255853Y-101157403D01*
X37366554Y-101066554D01*
X37457403Y-100955853D01*
X37524910Y-100829557D01*
X37566480Y-100692517D01*
X37580517Y-100550000D01*
X37580517Y-98850000D01*
X37566480Y-98707483D01*
X37524910Y-98570443D01*
X37457403Y-98444147D01*
X37366554Y-98333446D01*
X37255853Y-98242597D01*
X37185319Y-98204896D01*
X37224936Y-98165279D01*
X37397519Y-97906989D01*
X37516396Y-97619994D01*
X37577000Y-97315321D01*
X37577000Y-97004679D01*
X37516396Y-96700006D01*
X37397519Y-96413011D01*
X37224936Y-96154721D01*
X37005279Y-95935064D01*
X36937836Y-95890000D01*
X37005279Y-95844936D01*
X37224936Y-95625279D01*
X37397519Y-95366989D01*
X37516396Y-95079994D01*
X37577000Y-94775321D01*
X37577000Y-94464679D01*
X37516396Y-94160006D01*
X37397519Y-93873011D01*
X37224936Y-93614721D01*
X37005279Y-93395064D01*
X36937836Y-93350000D01*
X37005279Y-93304936D01*
X37224936Y-93085279D01*
X37397519Y-92826989D01*
X37516396Y-92539994D01*
X37577000Y-92235321D01*
X37577000Y-91924679D01*
X37516396Y-91620006D01*
X37397519Y-91333011D01*
X37315327Y-91210000D01*
X40519483Y-91210000D01*
X40519483Y-92910000D01*
X40533520Y-93052517D01*
X40575090Y-93189557D01*
X40642597Y-93315853D01*
X40733446Y-93426554D01*
X40844147Y-93517403D01*
X40914681Y-93555104D01*
X40875064Y-93594721D01*
X40702481Y-93853011D01*
X40583604Y-94140006D01*
X40523000Y-94444679D01*
X40523000Y-94755321D01*
X40583604Y-95059994D01*
X40702481Y-95346989D01*
X40875064Y-95605279D01*
X41094721Y-95824936D01*
X41162164Y-95870000D01*
X41094721Y-95915064D01*
X40875064Y-96134721D01*
X40702481Y-96393011D01*
X40583604Y-96680006D01*
X40523000Y-96984679D01*
X40523000Y-97295321D01*
X40583604Y-97599994D01*
X40702481Y-97886989D01*
X40875064Y-98145279D01*
X41094721Y-98364936D01*
X41162164Y-98410000D01*
X41094721Y-98455064D01*
X40875064Y-98674721D01*
X40702481Y-98933011D01*
X40583604Y-99220006D01*
X40523000Y-99524679D01*
X40523000Y-99835321D01*
X40583604Y-100139994D01*
X40702481Y-100426989D01*
X40875064Y-100685279D01*
X41094721Y-100904936D01*
X41353011Y-101077519D01*
X41640006Y-101196396D01*
X41944679Y-101257000D01*
X42255321Y-101257000D01*
X42559994Y-101196396D01*
X42846989Y-101077519D01*
X43105279Y-100904936D01*
X43324936Y-100685279D01*
X43497519Y-100426989D01*
X43616396Y-100139994D01*
X43677000Y-99835321D01*
X43677000Y-99589000D01*
X50473000Y-99589000D01*
X50473000Y-99811000D01*
X50516310Y-100028734D01*
X50601266Y-100233835D01*
X50724602Y-100418421D01*
X50881579Y-100575398D01*
X51066165Y-100698734D01*
X51271266Y-100783690D01*
X51489000Y-100827000D01*
X51711000Y-100827000D01*
X51928734Y-100783690D01*
X52133835Y-100698734D01*
X52298064Y-100589000D01*
X53073000Y-100589000D01*
X53073000Y-100811000D01*
X53116310Y-101028734D01*
X53201266Y-101233835D01*
X53324602Y-101418421D01*
X53481579Y-101575398D01*
X53666165Y-101698734D01*
X53871266Y-101783690D01*
X54089000Y-101827000D01*
X54311000Y-101827000D01*
X54528734Y-101783690D01*
X54733835Y-101698734D01*
X54918421Y-101575398D01*
X55075398Y-101418421D01*
X55198734Y-101233835D01*
X55283690Y-101028734D01*
X55327000Y-100811000D01*
X55327000Y-100589000D01*
X55283690Y-100371266D01*
X55208193Y-100189000D01*
X59973000Y-100189000D01*
X59973000Y-100411000D01*
X60016310Y-100628734D01*
X60101266Y-100833835D01*
X60224602Y-101018421D01*
X60381579Y-101175398D01*
X60566165Y-101298734D01*
X60771266Y-101383690D01*
X60989000Y-101427000D01*
X61211000Y-101427000D01*
X61428734Y-101383690D01*
X61633835Y-101298734D01*
X61766429Y-101210137D01*
X61831580Y-101275288D01*
X62016166Y-101398624D01*
X62221267Y-101483580D01*
X62439001Y-101526890D01*
X62661001Y-101526890D01*
X62878735Y-101483580D01*
X62986360Y-101439000D01*
X66673000Y-101439000D01*
X66673000Y-101661000D01*
X66716310Y-101878734D01*
X66801266Y-102083835D01*
X66924602Y-102268421D01*
X67081579Y-102425398D01*
X67266165Y-102548734D01*
X67471266Y-102633690D01*
X67689000Y-102677000D01*
X67911000Y-102677000D01*
X68128734Y-102633690D01*
X68333835Y-102548734D01*
X68518421Y-102425398D01*
X68675398Y-102268421D01*
X68798734Y-102083835D01*
X68883690Y-101878734D01*
X68927000Y-101661000D01*
X68927000Y-101439000D01*
X68883690Y-101221266D01*
X68798734Y-101016165D01*
X68675398Y-100831579D01*
X68518421Y-100674602D01*
X68333835Y-100551266D01*
X68128734Y-100466310D01*
X67911000Y-100423000D01*
X67689000Y-100423000D01*
X67471266Y-100466310D01*
X67266165Y-100551266D01*
X67081579Y-100674602D01*
X66924602Y-100831579D01*
X66801266Y-101016165D01*
X66716310Y-101221266D01*
X66673000Y-101439000D01*
X62986360Y-101439000D01*
X63083836Y-101398624D01*
X63268422Y-101275288D01*
X63425399Y-101118311D01*
X63548735Y-100933725D01*
X63633691Y-100728624D01*
X63677001Y-100510890D01*
X63677001Y-100288890D01*
X63633691Y-100071156D01*
X63548735Y-99866055D01*
X63425399Y-99681469D01*
X63418875Y-99674945D01*
X63475398Y-99618421D01*
X63598734Y-99433835D01*
X63683690Y-99228734D01*
X63727000Y-99011000D01*
X63727000Y-98789000D01*
X63683690Y-98571266D01*
X63598734Y-98366165D01*
X63475398Y-98181579D01*
X63318421Y-98024602D01*
X63133835Y-97901266D01*
X62928734Y-97816310D01*
X62711000Y-97773000D01*
X62489000Y-97773000D01*
X62271266Y-97816310D01*
X62066165Y-97901266D01*
X61881579Y-98024602D01*
X61724602Y-98181579D01*
X61601266Y-98366165D01*
X61527163Y-98545065D01*
X61514734Y-98547537D01*
X61309633Y-98632493D01*
X61125047Y-98755829D01*
X60968070Y-98912806D01*
X60844734Y-99097392D01*
X60797650Y-99211062D01*
X60771266Y-99216310D01*
X60566165Y-99301266D01*
X60381579Y-99424602D01*
X60224602Y-99581579D01*
X60101266Y-99766165D01*
X60016310Y-99971266D01*
X59973000Y-100189000D01*
X55208193Y-100189000D01*
X55198734Y-100166165D01*
X55075398Y-99981579D01*
X54918421Y-99824602D01*
X54733835Y-99701266D01*
X54528734Y-99616310D01*
X54311000Y-99573000D01*
X54089000Y-99573000D01*
X53871266Y-99616310D01*
X53666165Y-99701266D01*
X53481579Y-99824602D01*
X53324602Y-99981579D01*
X53201266Y-100166165D01*
X53116310Y-100371266D01*
X53073000Y-100589000D01*
X52298064Y-100589000D01*
X52318421Y-100575398D01*
X52475398Y-100418421D01*
X52598734Y-100233835D01*
X52683690Y-100028734D01*
X52727000Y-99811000D01*
X52727000Y-99589000D01*
X52683690Y-99371266D01*
X52598734Y-99166165D01*
X52475398Y-98981579D01*
X52318421Y-98824602D01*
X52133835Y-98701266D01*
X51928734Y-98616310D01*
X51711000Y-98573000D01*
X51489000Y-98573000D01*
X51271266Y-98616310D01*
X51066165Y-98701266D01*
X50881579Y-98824602D01*
X50724602Y-98981579D01*
X50601266Y-99166165D01*
X50516310Y-99371266D01*
X50473000Y-99589000D01*
X43677000Y-99589000D01*
X43677000Y-99524679D01*
X43616396Y-99220006D01*
X43497519Y-98933011D01*
X43324936Y-98674721D01*
X43105279Y-98455064D01*
X43037836Y-98410000D01*
X43105279Y-98364936D01*
X43324936Y-98145279D01*
X43497519Y-97886989D01*
X43616396Y-97599994D01*
X43640463Y-97479001D01*
X44073000Y-97479001D01*
X44073000Y-97701001D01*
X44116310Y-97918735D01*
X44201266Y-98123836D01*
X44324602Y-98308422D01*
X44481579Y-98465399D01*
X44666165Y-98588735D01*
X44871266Y-98673691D01*
X45089000Y-98717001D01*
X45311000Y-98717001D01*
X45528734Y-98673691D01*
X45733835Y-98588735D01*
X45918421Y-98465399D01*
X46075398Y-98308422D01*
X46198734Y-98123836D01*
X46283690Y-97918735D01*
X46327000Y-97701001D01*
X46327000Y-97479001D01*
X46283690Y-97261267D01*
X46198734Y-97056166D01*
X46087039Y-96889001D01*
X46373000Y-96889001D01*
X46373000Y-97111001D01*
X46416310Y-97328735D01*
X46501266Y-97533836D01*
X46624602Y-97718422D01*
X46781579Y-97875399D01*
X46966165Y-97998735D01*
X47171266Y-98083691D01*
X47389000Y-98127001D01*
X47611000Y-98127001D01*
X47828734Y-98083691D01*
X48033835Y-97998735D01*
X48218421Y-97875399D01*
X48228036Y-97865784D01*
X48271266Y-97883690D01*
X48489000Y-97927000D01*
X48711000Y-97927000D01*
X48928734Y-97883690D01*
X49133835Y-97798734D01*
X49318421Y-97675398D01*
X49475398Y-97518421D01*
X49598734Y-97333835D01*
X49683690Y-97128734D01*
X49727000Y-96911000D01*
X49727000Y-96689000D01*
X49683690Y-96471266D01*
X49598734Y-96266165D01*
X49475398Y-96081579D01*
X49318421Y-95924602D01*
X49133835Y-95801266D01*
X48928734Y-95716310D01*
X48711000Y-95673000D01*
X48489000Y-95673000D01*
X48271266Y-95716310D01*
X48066165Y-95801266D01*
X47881579Y-95924602D01*
X47871964Y-95934217D01*
X47828734Y-95916311D01*
X47611000Y-95873001D01*
X47389000Y-95873001D01*
X47171266Y-95916311D01*
X46966165Y-96001267D01*
X46781579Y-96124603D01*
X46624602Y-96281580D01*
X46501266Y-96466166D01*
X46416310Y-96671267D01*
X46373000Y-96889001D01*
X46087039Y-96889001D01*
X46075398Y-96871580D01*
X45918421Y-96714603D01*
X45733835Y-96591267D01*
X45528734Y-96506311D01*
X45311000Y-96463001D01*
X45089000Y-96463001D01*
X44871266Y-96506311D01*
X44666165Y-96591267D01*
X44481579Y-96714603D01*
X44324602Y-96871580D01*
X44201266Y-97056166D01*
X44116310Y-97261267D01*
X44073000Y-97479001D01*
X43640463Y-97479001D01*
X43677000Y-97295321D01*
X43677000Y-96984679D01*
X43616396Y-96680006D01*
X43497519Y-96393011D01*
X43324936Y-96134721D01*
X43105279Y-95915064D01*
X43037836Y-95870000D01*
X43105279Y-95824936D01*
X43324936Y-95605279D01*
X43469448Y-95389000D01*
X50623000Y-95389000D01*
X50623000Y-95611000D01*
X50666310Y-95828734D01*
X50751266Y-96033835D01*
X50874602Y-96218421D01*
X51031579Y-96375398D01*
X51216165Y-96498734D01*
X51421266Y-96583690D01*
X51639000Y-96627000D01*
X51861000Y-96627000D01*
X52078734Y-96583690D01*
X52283835Y-96498734D01*
X52468421Y-96375398D01*
X52625398Y-96218421D01*
X52748734Y-96033835D01*
X52833690Y-95828734D01*
X52877000Y-95611000D01*
X52877000Y-95389000D01*
X52833690Y-95171266D01*
X52748734Y-94966165D01*
X52625398Y-94781579D01*
X52468421Y-94624602D01*
X52283835Y-94501266D01*
X52078734Y-94416310D01*
X51861000Y-94373000D01*
X51639000Y-94373000D01*
X51421266Y-94416310D01*
X51216165Y-94501266D01*
X51031579Y-94624602D01*
X50874602Y-94781579D01*
X50751266Y-94966165D01*
X50666310Y-95171266D01*
X50623000Y-95389000D01*
X43469448Y-95389000D01*
X43497519Y-95346989D01*
X43616396Y-95059994D01*
X43677000Y-94755321D01*
X43677000Y-94444679D01*
X43616396Y-94140006D01*
X43497519Y-93853011D01*
X43324936Y-93594721D01*
X43285319Y-93555104D01*
X43355853Y-93517403D01*
X43466554Y-93426554D01*
X43557403Y-93315853D01*
X43624910Y-93189557D01*
X43655413Y-93089000D01*
X58173000Y-93089000D01*
X58173000Y-93311000D01*
X58216310Y-93528734D01*
X58301266Y-93733835D01*
X58424602Y-93918421D01*
X58581579Y-94075398D01*
X58766165Y-94198734D01*
X58971266Y-94283690D01*
X59189000Y-94327000D01*
X59411000Y-94327000D01*
X59628734Y-94283690D01*
X59778236Y-94221764D01*
X59716310Y-94371266D01*
X59673000Y-94589000D01*
X59673000Y-94811000D01*
X59697930Y-94936332D01*
X59541165Y-95001266D01*
X59356579Y-95124602D01*
X59199602Y-95281579D01*
X59076266Y-95466165D01*
X58991310Y-95671266D01*
X58948000Y-95889000D01*
X58948000Y-96111000D01*
X58991310Y-96328734D01*
X59076266Y-96533835D01*
X59199602Y-96718421D01*
X59356579Y-96875398D01*
X59541165Y-96998734D01*
X59746266Y-97083690D01*
X59964000Y-97127000D01*
X60186000Y-97127000D01*
X60403734Y-97083690D01*
X60608835Y-96998734D01*
X60793421Y-96875398D01*
X60950398Y-96718421D01*
X61073734Y-96533835D01*
X61133726Y-96389000D01*
X67773000Y-96389000D01*
X67773000Y-96611000D01*
X67816310Y-96828734D01*
X67901266Y-97033835D01*
X68024602Y-97218421D01*
X68034217Y-97228036D01*
X68016310Y-97271266D01*
X67973000Y-97489000D01*
X67973000Y-97711000D01*
X68016310Y-97928734D01*
X68101266Y-98133835D01*
X68224602Y-98318421D01*
X68381579Y-98475398D01*
X68566165Y-98598734D01*
X68771266Y-98683690D01*
X68989000Y-98727000D01*
X69211000Y-98727000D01*
X69428734Y-98683690D01*
X69633835Y-98598734D01*
X69818421Y-98475398D01*
X69975398Y-98318421D01*
X70098734Y-98133835D01*
X70183690Y-97928734D01*
X70227000Y-97711000D01*
X70227000Y-97489000D01*
X70183690Y-97271266D01*
X70098734Y-97066165D01*
X69975398Y-96881579D01*
X69965783Y-96871964D01*
X69983690Y-96828734D01*
X70021430Y-96639000D01*
X97873000Y-96639000D01*
X97873000Y-96861000D01*
X97916310Y-97078734D01*
X98001266Y-97283835D01*
X98124602Y-97468421D01*
X98281579Y-97625398D01*
X98466165Y-97748734D01*
X98671266Y-97833690D01*
X98889000Y-97877000D01*
X99111000Y-97877000D01*
X99328734Y-97833690D01*
X99533835Y-97748734D01*
X99718421Y-97625398D01*
X99875398Y-97468421D01*
X99998734Y-97283835D01*
X100083690Y-97078734D01*
X100127000Y-96861000D01*
X100127000Y-96639000D01*
X100083690Y-96421266D01*
X99998734Y-96216165D01*
X99875398Y-96031579D01*
X99718421Y-95874602D01*
X99533835Y-95751266D01*
X99328734Y-95666310D01*
X99111000Y-95623000D01*
X98889000Y-95623000D01*
X98671266Y-95666310D01*
X98466165Y-95751266D01*
X98281579Y-95874602D01*
X98124602Y-96031579D01*
X98001266Y-96216165D01*
X97916310Y-96421266D01*
X97873000Y-96639000D01*
X70021430Y-96639000D01*
X70027000Y-96611000D01*
X70027000Y-96389000D01*
X69983690Y-96171266D01*
X69898734Y-95966165D01*
X69775398Y-95781579D01*
X69618421Y-95624602D01*
X69433835Y-95501266D01*
X69228734Y-95416310D01*
X69011000Y-95373000D01*
X68789000Y-95373000D01*
X68571266Y-95416310D01*
X68366165Y-95501266D01*
X68181579Y-95624602D01*
X68024602Y-95781579D01*
X67901266Y-95966165D01*
X67816310Y-96171266D01*
X67773000Y-96389000D01*
X61133726Y-96389000D01*
X61158690Y-96328734D01*
X61202000Y-96111000D01*
X61202000Y-95889000D01*
X61177070Y-95763668D01*
X61333835Y-95698734D01*
X61518421Y-95575398D01*
X61675398Y-95418421D01*
X61798734Y-95233835D01*
X61883690Y-95028734D01*
X61892189Y-94986008D01*
X62031579Y-95125398D01*
X62216165Y-95248734D01*
X62421266Y-95333690D01*
X62639000Y-95377000D01*
X62861000Y-95377000D01*
X63078734Y-95333690D01*
X63283835Y-95248734D01*
X63468421Y-95125398D01*
X63625398Y-94968421D01*
X63748734Y-94783835D01*
X63833690Y-94578734D01*
X63874345Y-94374345D01*
X64078734Y-94333690D01*
X64283835Y-94248734D01*
X64448064Y-94139000D01*
X94623000Y-94139000D01*
X94623000Y-94361000D01*
X94666310Y-94578734D01*
X94751266Y-94783835D01*
X94874602Y-94968421D01*
X95031579Y-95125398D01*
X95216165Y-95248734D01*
X95421266Y-95333690D01*
X95639000Y-95377000D01*
X95861000Y-95377000D01*
X96078734Y-95333690D01*
X96283835Y-95248734D01*
X96468421Y-95125398D01*
X96625398Y-94968421D01*
X96748734Y-94783835D01*
X96833690Y-94578734D01*
X96877000Y-94361000D01*
X96877000Y-94139000D01*
X96833690Y-93921266D01*
X96748734Y-93716165D01*
X96625398Y-93531579D01*
X96468421Y-93374602D01*
X96283835Y-93251266D01*
X96078734Y-93166310D01*
X95861000Y-93123000D01*
X95639000Y-93123000D01*
X95421266Y-93166310D01*
X95216165Y-93251266D01*
X95031579Y-93374602D01*
X94874602Y-93531579D01*
X94751266Y-93716165D01*
X94666310Y-93921266D01*
X94623000Y-94139000D01*
X64448064Y-94139000D01*
X64468421Y-94125398D01*
X64625398Y-93968421D01*
X64748734Y-93783835D01*
X64833690Y-93578734D01*
X64877000Y-93361000D01*
X64877000Y-93139000D01*
X64833690Y-92921266D01*
X64748734Y-92716165D01*
X64625398Y-92531579D01*
X64468421Y-92374602D01*
X64283835Y-92251266D01*
X64078734Y-92166310D01*
X63861000Y-92123000D01*
X63639000Y-92123000D01*
X63421266Y-92166310D01*
X63361036Y-92191258D01*
X63377000Y-92111000D01*
X63377000Y-91889000D01*
X63333690Y-91671266D01*
X63248734Y-91466165D01*
X63125398Y-91281579D01*
X62968421Y-91124602D01*
X62783835Y-91001266D01*
X62578734Y-90916310D01*
X62361000Y-90873000D01*
X62139000Y-90873000D01*
X61921266Y-90916310D01*
X61716165Y-91001266D01*
X61531579Y-91124602D01*
X61374602Y-91281579D01*
X61251266Y-91466165D01*
X61166310Y-91671266D01*
X61123000Y-91889000D01*
X61123000Y-91918408D01*
X60953512Y-91988613D01*
X60768926Y-92111949D01*
X60611949Y-92268926D01*
X60488613Y-92453512D01*
X60403657Y-92658613D01*
X60368603Y-92834842D01*
X60298734Y-92666165D01*
X60175398Y-92481579D01*
X60018421Y-92324602D01*
X59833835Y-92201266D01*
X59628734Y-92116310D01*
X59411000Y-92073000D01*
X59189000Y-92073000D01*
X58971266Y-92116310D01*
X58766165Y-92201266D01*
X58581579Y-92324602D01*
X58424602Y-92481579D01*
X58301266Y-92666165D01*
X58216310Y-92871266D01*
X58173000Y-93089000D01*
X43655413Y-93089000D01*
X43666480Y-93052517D01*
X43680517Y-92910000D01*
X43680517Y-91389000D01*
X44473000Y-91389000D01*
X44473000Y-91611000D01*
X44516310Y-91828734D01*
X44601266Y-92033835D01*
X44724602Y-92218421D01*
X44881579Y-92375398D01*
X45066165Y-92498734D01*
X45271266Y-92583690D01*
X45489000Y-92627000D01*
X45711000Y-92627000D01*
X45928734Y-92583690D01*
X46133835Y-92498734D01*
X46318421Y-92375398D01*
X46475398Y-92218421D01*
X46598734Y-92033835D01*
X46683690Y-91828734D01*
X46727000Y-91611000D01*
X46727000Y-91389000D01*
X46683690Y-91171266D01*
X46598734Y-90966165D01*
X46475398Y-90781579D01*
X46318421Y-90624602D01*
X46133835Y-90501266D01*
X45928734Y-90416310D01*
X45711000Y-90373000D01*
X45489000Y-90373000D01*
X45271266Y-90416310D01*
X45066165Y-90501266D01*
X44881579Y-90624602D01*
X44724602Y-90781579D01*
X44601266Y-90966165D01*
X44516310Y-91171266D01*
X44473000Y-91389000D01*
X43680517Y-91389000D01*
X43680517Y-91210000D01*
X43666480Y-91067483D01*
X43624910Y-90930443D01*
X43557403Y-90804147D01*
X43466554Y-90693446D01*
X43355853Y-90602597D01*
X43229557Y-90535090D01*
X43092517Y-90493520D01*
X42950000Y-90479483D01*
X41250000Y-90479483D01*
X41107483Y-90493520D01*
X40970443Y-90535090D01*
X40844147Y-90602597D01*
X40733446Y-90693446D01*
X40642597Y-90804147D01*
X40575090Y-90930443D01*
X40533520Y-91067483D01*
X40519483Y-91210000D01*
X37315327Y-91210000D01*
X37224936Y-91074721D01*
X37005279Y-90855064D01*
X36746989Y-90682481D01*
X36459994Y-90563604D01*
X36155321Y-90503000D01*
X35844679Y-90503000D01*
X35540006Y-90563604D01*
X35253011Y-90682481D01*
X34994721Y-90855064D01*
X34775064Y-91074721D01*
X34602481Y-91333011D01*
X34483604Y-91620006D01*
X34423000Y-91924679D01*
X34423000Y-92235321D01*
X34483604Y-92539994D01*
X34602481Y-92826989D01*
X34775064Y-93085279D01*
X34994721Y-93304936D01*
X35062164Y-93350000D01*
X34994721Y-93395064D01*
X34775064Y-93614721D01*
X34602481Y-93873011D01*
X34483604Y-94160006D01*
X34423000Y-94464679D01*
X34423000Y-94775321D01*
X34483604Y-95079994D01*
X34602481Y-95366989D01*
X34775064Y-95625279D01*
X34994721Y-95844936D01*
X35062164Y-95890000D01*
X34994721Y-95935064D01*
X34775064Y-96154721D01*
X34602481Y-96413011D01*
X34483604Y-96700006D01*
X34423000Y-97004679D01*
X34423000Y-97315321D01*
X34483604Y-97619994D01*
X34602481Y-97906989D01*
X34775064Y-98165279D01*
X34814681Y-98204896D01*
X34744147Y-98242597D01*
X34633446Y-98333446D01*
X34542597Y-98444147D01*
X34475090Y-98570443D01*
X34433520Y-98707483D01*
X34419483Y-98850000D01*
X32252000Y-98850000D01*
X32252000Y-78350000D01*
X34319483Y-78350000D01*
X34319483Y-80050000D01*
X34333520Y-80192517D01*
X34375090Y-80329557D01*
X34442597Y-80455853D01*
X34533446Y-80566554D01*
X34644147Y-80657403D01*
X34714681Y-80695104D01*
X34675064Y-80734721D01*
X34502481Y-80993011D01*
X34383604Y-81280006D01*
X34323000Y-81584679D01*
X34323000Y-81895321D01*
X34383604Y-82199994D01*
X34502481Y-82486989D01*
X34675064Y-82745279D01*
X34894721Y-82964936D01*
X34962164Y-83010000D01*
X34894721Y-83055064D01*
X34675064Y-83274721D01*
X34502481Y-83533011D01*
X34383604Y-83820006D01*
X34323000Y-84124679D01*
X34323000Y-84435321D01*
X34383604Y-84739994D01*
X34502481Y-85026989D01*
X34675064Y-85285279D01*
X34894721Y-85504936D01*
X34962164Y-85550000D01*
X34894721Y-85595064D01*
X34675064Y-85814721D01*
X34502481Y-86073011D01*
X34383604Y-86360006D01*
X34323000Y-86664679D01*
X34323000Y-86975321D01*
X34383604Y-87279994D01*
X34502481Y-87566989D01*
X34675064Y-87825279D01*
X34894721Y-88044936D01*
X35153011Y-88217519D01*
X35440006Y-88336396D01*
X35744679Y-88397000D01*
X36055321Y-88397000D01*
X36359994Y-88336396D01*
X36646989Y-88217519D01*
X36905279Y-88044936D01*
X37124936Y-87825279D01*
X37297519Y-87566989D01*
X37416396Y-87279994D01*
X37477000Y-86975321D01*
X37477000Y-86664679D01*
X37416396Y-86360006D01*
X37297519Y-86073011D01*
X37124936Y-85814721D01*
X36905279Y-85595064D01*
X36837836Y-85550000D01*
X36905279Y-85504936D01*
X37124936Y-85285279D01*
X37297519Y-85026989D01*
X37416396Y-84739994D01*
X37477000Y-84435321D01*
X37477000Y-84124679D01*
X37416396Y-83820006D01*
X37297519Y-83533011D01*
X37124936Y-83274721D01*
X36905279Y-83055064D01*
X36837836Y-83010000D01*
X36905279Y-82964936D01*
X37124936Y-82745279D01*
X37297519Y-82486989D01*
X37416396Y-82199994D01*
X37477000Y-81895321D01*
X37477000Y-81584679D01*
X37416396Y-81280006D01*
X37297519Y-80993011D01*
X37124936Y-80734721D01*
X37085319Y-80695104D01*
X37155853Y-80657403D01*
X37266554Y-80566554D01*
X37357403Y-80455853D01*
X37424910Y-80329557D01*
X37466480Y-80192517D01*
X37480517Y-80050000D01*
X37480517Y-78350000D01*
X40519483Y-78350000D01*
X40519483Y-80050000D01*
X40533520Y-80192517D01*
X40575090Y-80329557D01*
X40642597Y-80455853D01*
X40733446Y-80566554D01*
X40844147Y-80657403D01*
X40914681Y-80695104D01*
X40875064Y-80734721D01*
X40702481Y-80993011D01*
X40583604Y-81280006D01*
X40523000Y-81584679D01*
X40523000Y-81895321D01*
X40583604Y-82199994D01*
X40702481Y-82486989D01*
X40875064Y-82745279D01*
X41094721Y-82964936D01*
X41162164Y-83010000D01*
X41094721Y-83055064D01*
X40875064Y-83274721D01*
X40702481Y-83533011D01*
X40583604Y-83820006D01*
X40523000Y-84124679D01*
X40523000Y-84435321D01*
X40583604Y-84739994D01*
X40702481Y-85026989D01*
X40875064Y-85285279D01*
X41094721Y-85504936D01*
X41162164Y-85550000D01*
X41094721Y-85595064D01*
X40875064Y-85814721D01*
X40702481Y-86073011D01*
X40583604Y-86360006D01*
X40523000Y-86664679D01*
X40523000Y-86975321D01*
X40583604Y-87279994D01*
X40702481Y-87566989D01*
X40875064Y-87825279D01*
X41094721Y-88044936D01*
X41353011Y-88217519D01*
X41640006Y-88336396D01*
X41944679Y-88397000D01*
X42255321Y-88397000D01*
X42295539Y-88389000D01*
X60173000Y-88389000D01*
X60173000Y-88611000D01*
X60216310Y-88828734D01*
X60301266Y-89033835D01*
X60312067Y-89050000D01*
X60301266Y-89066165D01*
X60216310Y-89271266D01*
X60173000Y-89489000D01*
X60173000Y-89711000D01*
X60216310Y-89928734D01*
X60301266Y-90133835D01*
X60424602Y-90318421D01*
X60581579Y-90475398D01*
X60766165Y-90598734D01*
X60971266Y-90683690D01*
X61189000Y-90727000D01*
X61411000Y-90727000D01*
X61628734Y-90683690D01*
X61833835Y-90598734D01*
X62018421Y-90475398D01*
X62175398Y-90318421D01*
X62298734Y-90133835D01*
X62383690Y-89928734D01*
X62427000Y-89711000D01*
X62427000Y-89489000D01*
X62383690Y-89271266D01*
X62298734Y-89066165D01*
X62287933Y-89050000D01*
X62298734Y-89033835D01*
X62365970Y-88871514D01*
X62558835Y-88791626D01*
X62624724Y-88747601D01*
X62624724Y-88802278D01*
X62668034Y-89020012D01*
X62752990Y-89225113D01*
X62876326Y-89409699D01*
X63033303Y-89566676D01*
X63217889Y-89690012D01*
X63422990Y-89774968D01*
X63640724Y-89818278D01*
X63862724Y-89818278D01*
X64080458Y-89774968D01*
X64188469Y-89730228D01*
X64216165Y-89748734D01*
X64421266Y-89833690D01*
X64639000Y-89877000D01*
X64861000Y-89877000D01*
X65078734Y-89833690D01*
X65283835Y-89748734D01*
X65468421Y-89625398D01*
X65625398Y-89468421D01*
X65678465Y-89389000D01*
X70873000Y-89389000D01*
X70873000Y-89611000D01*
X70916310Y-89828734D01*
X70987251Y-90000000D01*
X70916310Y-90171266D01*
X70873000Y-90389000D01*
X70873000Y-90611000D01*
X70916310Y-90828734D01*
X71001266Y-91033835D01*
X71124602Y-91218421D01*
X71281579Y-91375398D01*
X71466165Y-91498734D01*
X71671266Y-91583690D01*
X71889000Y-91627000D01*
X72111000Y-91627000D01*
X72328734Y-91583690D01*
X72533835Y-91498734D01*
X72718421Y-91375398D01*
X72875398Y-91218421D01*
X72998734Y-91033835D01*
X73083690Y-90828734D01*
X73127000Y-90611000D01*
X73127000Y-90389000D01*
X73083690Y-90171266D01*
X73012749Y-90000000D01*
X73083690Y-89828734D01*
X73127000Y-89611000D01*
X73127000Y-89389000D01*
X73083690Y-89171266D01*
X72998734Y-88966165D01*
X72875398Y-88781579D01*
X72718421Y-88624602D01*
X72533835Y-88501266D01*
X72328734Y-88416310D01*
X72111000Y-88373000D01*
X71889000Y-88373000D01*
X71671266Y-88416310D01*
X71466165Y-88501266D01*
X71281579Y-88624602D01*
X71124602Y-88781579D01*
X71001266Y-88966165D01*
X70916310Y-89171266D01*
X70873000Y-89389000D01*
X65678465Y-89389000D01*
X65748734Y-89283835D01*
X65833690Y-89078734D01*
X65877000Y-88861000D01*
X65877000Y-88639000D01*
X65833690Y-88421266D01*
X65748734Y-88216165D01*
X65625398Y-88031579D01*
X65468421Y-87874602D01*
X65283835Y-87751266D01*
X65078734Y-87666310D01*
X64861000Y-87623000D01*
X64639000Y-87623000D01*
X64421266Y-87666310D01*
X64313255Y-87711050D01*
X64285559Y-87692544D01*
X64080458Y-87607588D01*
X63862724Y-87564278D01*
X63640724Y-87564278D01*
X63422990Y-87607588D01*
X63217889Y-87692544D01*
X63152000Y-87736569D01*
X63152000Y-87681892D01*
X63108690Y-87464158D01*
X63023734Y-87259057D01*
X62900398Y-87074471D01*
X62743421Y-86917494D01*
X62558835Y-86794158D01*
X62353734Y-86709202D01*
X62136000Y-86665892D01*
X61914000Y-86665892D01*
X61696266Y-86709202D01*
X61491165Y-86794158D01*
X61306579Y-86917494D01*
X61149602Y-87074471D01*
X61026266Y-87259057D01*
X60959030Y-87421378D01*
X60766165Y-87501266D01*
X60581579Y-87624602D01*
X60424602Y-87781579D01*
X60301266Y-87966165D01*
X60216310Y-88171266D01*
X60173000Y-88389000D01*
X42295539Y-88389000D01*
X42559994Y-88336396D01*
X42846989Y-88217519D01*
X43105279Y-88044936D01*
X43324936Y-87825279D01*
X43497519Y-87566989D01*
X43616396Y-87279994D01*
X43677000Y-86975321D01*
X43677000Y-86664679D01*
X43616396Y-86360006D01*
X43497519Y-86073011D01*
X43324936Y-85814721D01*
X43105279Y-85595064D01*
X43037836Y-85550000D01*
X43105279Y-85504936D01*
X43324936Y-85285279D01*
X43497519Y-85026989D01*
X43616396Y-84739994D01*
X43677000Y-84435321D01*
X43677000Y-84124679D01*
X43630120Y-83889000D01*
X55373000Y-83889000D01*
X55373000Y-84111000D01*
X55416310Y-84328734D01*
X55501266Y-84533835D01*
X55624602Y-84718421D01*
X55781579Y-84875398D01*
X55966165Y-84998734D01*
X56171266Y-85083690D01*
X56389000Y-85127000D01*
X56611000Y-85127000D01*
X56828734Y-85083690D01*
X57033835Y-84998734D01*
X57218421Y-84875398D01*
X57375398Y-84718421D01*
X57461874Y-84589000D01*
X61073000Y-84589000D01*
X61073000Y-84811000D01*
X61116310Y-85028734D01*
X61201266Y-85233835D01*
X61324602Y-85418421D01*
X61481579Y-85575398D01*
X61666165Y-85698734D01*
X61871266Y-85783690D01*
X62089000Y-85827000D01*
X62311000Y-85827000D01*
X62528734Y-85783690D01*
X62733835Y-85698734D01*
X62823233Y-85639000D01*
X66623000Y-85639000D01*
X66623000Y-85861000D01*
X66666310Y-86078734D01*
X66751266Y-86283835D01*
X66874602Y-86468421D01*
X67031579Y-86625398D01*
X67216165Y-86748734D01*
X67421266Y-86833690D01*
X67639000Y-86877000D01*
X67861000Y-86877000D01*
X68078734Y-86833690D01*
X68283835Y-86748734D01*
X68468421Y-86625398D01*
X68625398Y-86468421D01*
X68678465Y-86389000D01*
X72373000Y-86389000D01*
X72373000Y-86611000D01*
X72416310Y-86828734D01*
X72501266Y-87033835D01*
X72624602Y-87218421D01*
X72781579Y-87375398D01*
X72966165Y-87498734D01*
X73171266Y-87583690D01*
X73389000Y-87627000D01*
X73611000Y-87627000D01*
X73745282Y-87600290D01*
X73701266Y-87666165D01*
X73616310Y-87871266D01*
X73573000Y-88089000D01*
X73573000Y-88311000D01*
X73616310Y-88528734D01*
X73701266Y-88733835D01*
X73745476Y-88800000D01*
X73701266Y-88866165D01*
X73616310Y-89071266D01*
X73573000Y-89289000D01*
X73573000Y-89511000D01*
X73616310Y-89728734D01*
X73701266Y-89933835D01*
X73824602Y-90118421D01*
X73981579Y-90275398D01*
X74166165Y-90398734D01*
X74371266Y-90483690D01*
X74589000Y-90527000D01*
X74811000Y-90527000D01*
X75028734Y-90483690D01*
X75233835Y-90398734D01*
X75418421Y-90275398D01*
X75575398Y-90118421D01*
X75698734Y-89933835D01*
X75783690Y-89728734D01*
X75827000Y-89511000D01*
X75827000Y-89289000D01*
X75783690Y-89071266D01*
X75698734Y-88866165D01*
X75654524Y-88800000D01*
X75698734Y-88733835D01*
X75783690Y-88528734D01*
X75827000Y-88311000D01*
X75827000Y-88089000D01*
X75783690Y-87871266D01*
X75698734Y-87666165D01*
X75665342Y-87616191D01*
X75828734Y-87583690D01*
X76033835Y-87498734D01*
X76218421Y-87375398D01*
X76375398Y-87218421D01*
X76498734Y-87033835D01*
X76583690Y-86828734D01*
X76627000Y-86611000D01*
X76627000Y-86389000D01*
X76624020Y-86374020D01*
X76639000Y-86377000D01*
X76861000Y-86377000D01*
X77078734Y-86333690D01*
X77283835Y-86248734D01*
X77468421Y-86125398D01*
X77625398Y-85968421D01*
X77748734Y-85783835D01*
X77833690Y-85578734D01*
X77877000Y-85361000D01*
X77877000Y-85139000D01*
X77833690Y-84921266D01*
X77748734Y-84716165D01*
X77625398Y-84531579D01*
X77468421Y-84374602D01*
X77283835Y-84251266D01*
X77280779Y-84250000D01*
X77283835Y-84248734D01*
X77468421Y-84125398D01*
X77625398Y-83968421D01*
X77748734Y-83783835D01*
X77833690Y-83578734D01*
X77877000Y-83361000D01*
X77877000Y-83139000D01*
X77833690Y-82921266D01*
X77748734Y-82716165D01*
X77625398Y-82531579D01*
X77468421Y-82374602D01*
X77283835Y-82251266D01*
X77078734Y-82166310D01*
X76861000Y-82123000D01*
X76639000Y-82123000D01*
X76421266Y-82166310D01*
X76339446Y-82200201D01*
X76333690Y-82171266D01*
X76248734Y-81966165D01*
X76170347Y-81848849D01*
X97248000Y-81848849D01*
X97248000Y-82051151D01*
X97287467Y-82249565D01*
X97364885Y-82436467D01*
X97477277Y-82604674D01*
X97620326Y-82747723D01*
X97788533Y-82860115D01*
X97975435Y-82937533D01*
X98173849Y-82977000D01*
X98376151Y-82977000D01*
X98574565Y-82937533D01*
X98761467Y-82860115D01*
X98880000Y-82780914D01*
X98880000Y-83148002D01*
X99108208Y-83148002D01*
X99012031Y-83321007D01*
X99097613Y-83456684D01*
X99249383Y-83634264D01*
X99432881Y-83778823D01*
X99641055Y-83884806D01*
X99865906Y-83948140D01*
X100052000Y-83807656D01*
X100052000Y-83148000D01*
X100032000Y-83148000D01*
X100032000Y-82402000D01*
X100052000Y-82402000D01*
X100052000Y-81742344D01*
X99865906Y-81601860D01*
X99641055Y-81665194D01*
X99432881Y-81771177D01*
X99302000Y-81874285D01*
X99302000Y-81848849D01*
X99262533Y-81650435D01*
X99185115Y-81463533D01*
X99072723Y-81295326D01*
X98929674Y-81152277D01*
X98761467Y-81039885D01*
X98574565Y-80962467D01*
X98376151Y-80923000D01*
X98173849Y-80923000D01*
X97975435Y-80962467D01*
X97788533Y-81039885D01*
X97620326Y-81152277D01*
X97477277Y-81295326D01*
X97364885Y-81463533D01*
X97287467Y-81650435D01*
X97248000Y-81848849D01*
X76170347Y-81848849D01*
X76125398Y-81781579D01*
X75968421Y-81624602D01*
X75783835Y-81501266D01*
X75578734Y-81416310D01*
X75361000Y-81373000D01*
X75139000Y-81373000D01*
X74921266Y-81416310D01*
X74716165Y-81501266D01*
X74531579Y-81624602D01*
X74374602Y-81781579D01*
X74251266Y-81966165D01*
X74166310Y-82171266D01*
X74123000Y-82389000D01*
X74123000Y-82434646D01*
X74078734Y-82416310D01*
X73861000Y-82373000D01*
X73639000Y-82373000D01*
X73421266Y-82416310D01*
X73216165Y-82501266D01*
X73031579Y-82624602D01*
X72874602Y-82781579D01*
X72751266Y-82966165D01*
X72666310Y-83171266D01*
X72623000Y-83389000D01*
X72623000Y-83611000D01*
X72666310Y-83828734D01*
X72751266Y-84033835D01*
X72874602Y-84218421D01*
X72906181Y-84250000D01*
X72874602Y-84281579D01*
X72751266Y-84466165D01*
X72666310Y-84671266D01*
X72623000Y-84889000D01*
X72623000Y-85111000D01*
X72666310Y-85328734D01*
X72751266Y-85533835D01*
X72802551Y-85610589D01*
X72781579Y-85624602D01*
X72624602Y-85781579D01*
X72501266Y-85966165D01*
X72416310Y-86171266D01*
X72373000Y-86389000D01*
X68678465Y-86389000D01*
X68710242Y-86341443D01*
X68889000Y-86377000D01*
X69111000Y-86377000D01*
X69328734Y-86333690D01*
X69533835Y-86248734D01*
X69718421Y-86125398D01*
X69875398Y-85968421D01*
X69998734Y-85783835D01*
X70083690Y-85578734D01*
X70127000Y-85361000D01*
X70127000Y-85139000D01*
X70083690Y-84921266D01*
X69998734Y-84716165D01*
X69875398Y-84531579D01*
X69718421Y-84374602D01*
X69533835Y-84251266D01*
X69328734Y-84166310D01*
X69111000Y-84123000D01*
X68889000Y-84123000D01*
X68671266Y-84166310D01*
X68466165Y-84251266D01*
X68281579Y-84374602D01*
X68124602Y-84531579D01*
X68039758Y-84658557D01*
X67861000Y-84623000D01*
X67639000Y-84623000D01*
X67421266Y-84666310D01*
X67216165Y-84751266D01*
X67031579Y-84874602D01*
X66874602Y-85031579D01*
X66751266Y-85216165D01*
X66666310Y-85421266D01*
X66623000Y-85639000D01*
X62823233Y-85639000D01*
X62918421Y-85575398D01*
X63075398Y-85418421D01*
X63198734Y-85233835D01*
X63283690Y-85028734D01*
X63327000Y-84811000D01*
X63327000Y-84589000D01*
X63283690Y-84371266D01*
X63198734Y-84166165D01*
X63075398Y-83981579D01*
X62918421Y-83824602D01*
X62733835Y-83701266D01*
X62528734Y-83616310D01*
X62311000Y-83573000D01*
X62089000Y-83573000D01*
X61871266Y-83616310D01*
X61666165Y-83701266D01*
X61481579Y-83824602D01*
X61324602Y-83981579D01*
X61201266Y-84166165D01*
X61116310Y-84371266D01*
X61073000Y-84589000D01*
X57461874Y-84589000D01*
X57498734Y-84533835D01*
X57583690Y-84328734D01*
X57627000Y-84111000D01*
X57627000Y-83889000D01*
X57583690Y-83671266D01*
X57498734Y-83466165D01*
X57375398Y-83281579D01*
X57218421Y-83124602D01*
X57033835Y-83001266D01*
X56828734Y-82916310D01*
X56611000Y-82873000D01*
X56389000Y-82873000D01*
X56171266Y-82916310D01*
X55966165Y-83001266D01*
X55781579Y-83124602D01*
X55624602Y-83281579D01*
X55501266Y-83466165D01*
X55416310Y-83671266D01*
X55373000Y-83889000D01*
X43630120Y-83889000D01*
X43616396Y-83820006D01*
X43497519Y-83533011D01*
X43324936Y-83274721D01*
X43105279Y-83055064D01*
X43037836Y-83010000D01*
X43105279Y-82964936D01*
X43324936Y-82745279D01*
X43497519Y-82486989D01*
X43616396Y-82199994D01*
X43677000Y-81895321D01*
X43677000Y-81584679D01*
X43616396Y-81280006D01*
X43497519Y-80993011D01*
X43324936Y-80734721D01*
X43285319Y-80695104D01*
X43355853Y-80657403D01*
X43466554Y-80566554D01*
X43557403Y-80455853D01*
X43624910Y-80329557D01*
X43666480Y-80192517D01*
X43680517Y-80050000D01*
X43680517Y-79344679D01*
X57133000Y-79344679D01*
X57133000Y-79655321D01*
X57193604Y-79959994D01*
X57312481Y-80246989D01*
X57485064Y-80505279D01*
X57704721Y-80724936D01*
X57963011Y-80897519D01*
X58250006Y-81016396D01*
X58554679Y-81077000D01*
X58752821Y-81077000D01*
X58681579Y-81124602D01*
X58524602Y-81281579D01*
X58401266Y-81466165D01*
X58316310Y-81671266D01*
X58273000Y-81889000D01*
X58273000Y-82111000D01*
X58316310Y-82328734D01*
X58401266Y-82533835D01*
X58524602Y-82718421D01*
X58681579Y-82875398D01*
X58866165Y-82998734D01*
X59071266Y-83083690D01*
X59289000Y-83127000D01*
X59511000Y-83127000D01*
X59728734Y-83083690D01*
X59933835Y-82998734D01*
X60118421Y-82875398D01*
X60275398Y-82718421D01*
X60398734Y-82533835D01*
X60483690Y-82328734D01*
X60527000Y-82111000D01*
X60527000Y-81889000D01*
X60483690Y-81671266D01*
X60398734Y-81466165D01*
X60275398Y-81281579D01*
X60118421Y-81124602D01*
X59933835Y-81001266D01*
X59728734Y-80916310D01*
X59511000Y-80873000D01*
X59493684Y-80873000D01*
X59715279Y-80724936D01*
X59934936Y-80505279D01*
X59980000Y-80437836D01*
X60025064Y-80505279D01*
X60244721Y-80724936D01*
X60503011Y-80897519D01*
X60790006Y-81016396D01*
X61094679Y-81077000D01*
X61405321Y-81077000D01*
X61709994Y-81016396D01*
X61996989Y-80897519D01*
X62255279Y-80724936D01*
X62362877Y-80617338D01*
X62409463Y-80704494D01*
X62454335Y-80759171D01*
X62281579Y-80874602D01*
X62124602Y-81031579D01*
X62001266Y-81216165D01*
X61916310Y-81421266D01*
X61873000Y-81639000D01*
X61873000Y-81861000D01*
X61916310Y-82078734D01*
X62001266Y-82283835D01*
X62124602Y-82468421D01*
X62281579Y-82625398D01*
X62466165Y-82748734D01*
X62671266Y-82833690D01*
X62889000Y-82877000D01*
X63111000Y-82877000D01*
X63328734Y-82833690D01*
X63533835Y-82748734D01*
X63718421Y-82625398D01*
X63875398Y-82468421D01*
X63998734Y-82283835D01*
X64083690Y-82078734D01*
X64127000Y-81861000D01*
X64127000Y-81639000D01*
X64083690Y-81421266D01*
X64070325Y-81389000D01*
X67173000Y-81389000D01*
X67173000Y-81611000D01*
X67216310Y-81828734D01*
X67301266Y-82033835D01*
X67424602Y-82218421D01*
X67581579Y-82375398D01*
X67766165Y-82498734D01*
X67971266Y-82583690D01*
X68189000Y-82627000D01*
X68411000Y-82627000D01*
X68628734Y-82583690D01*
X68833835Y-82498734D01*
X69018421Y-82375398D01*
X69175398Y-82218421D01*
X69298734Y-82033835D01*
X69383690Y-81828734D01*
X69427000Y-81611000D01*
X69427000Y-81389000D01*
X69383690Y-81171266D01*
X69298734Y-80966165D01*
X69247175Y-80889000D01*
X70373000Y-80889000D01*
X70373000Y-81111000D01*
X70416310Y-81328734D01*
X70501266Y-81533835D01*
X70624602Y-81718421D01*
X70781579Y-81875398D01*
X70966165Y-81998734D01*
X71171266Y-82083690D01*
X71389000Y-82127000D01*
X71611000Y-82127000D01*
X71828734Y-82083690D01*
X72033835Y-81998734D01*
X72218421Y-81875398D01*
X72375398Y-81718421D01*
X72498734Y-81533835D01*
X72583690Y-81328734D01*
X72627000Y-81111000D01*
X72627000Y-80889000D01*
X72583690Y-80671266D01*
X72498734Y-80466165D01*
X72375398Y-80281579D01*
X72218421Y-80124602D01*
X72033835Y-80001266D01*
X71828734Y-79916310D01*
X71611000Y-79873000D01*
X71389000Y-79873000D01*
X71171266Y-79916310D01*
X70966165Y-80001266D01*
X70781579Y-80124602D01*
X70624602Y-80281579D01*
X70501266Y-80466165D01*
X70416310Y-80671266D01*
X70373000Y-80889000D01*
X69247175Y-80889000D01*
X69175398Y-80781579D01*
X69018421Y-80624602D01*
X68833835Y-80501266D01*
X68628734Y-80416310D01*
X68411000Y-80373000D01*
X68189000Y-80373000D01*
X67971266Y-80416310D01*
X67766165Y-80501266D01*
X67581579Y-80624602D01*
X67424602Y-80781579D01*
X67301266Y-80966165D01*
X67216310Y-81171266D01*
X67173000Y-81389000D01*
X64070325Y-81389000D01*
X63998734Y-81216165D01*
X63875398Y-81031579D01*
X63828819Y-80985000D01*
X64163002Y-80985000D01*
X64163002Y-80826252D01*
X64321750Y-80985000D01*
X64640000Y-80988072D01*
X64764482Y-80975812D01*
X64884180Y-80939502D01*
X64994494Y-80880537D01*
X65091185Y-80801185D01*
X65170537Y-80704494D01*
X65229502Y-80594180D01*
X65265812Y-80474482D01*
X65278072Y-80350000D01*
X65275000Y-80031750D01*
X65116250Y-79873000D01*
X64163000Y-79873000D01*
X64163000Y-79893000D01*
X63417000Y-79893000D01*
X63417000Y-79873000D01*
X63397000Y-79873000D01*
X63397000Y-79639000D01*
X86373000Y-79639000D01*
X86373000Y-79861000D01*
X86416310Y-80078734D01*
X86501266Y-80283835D01*
X86624602Y-80468421D01*
X86781579Y-80625398D01*
X86966165Y-80748734D01*
X87171266Y-80833690D01*
X87389000Y-80877000D01*
X87611000Y-80877000D01*
X87828734Y-80833690D01*
X88033835Y-80748734D01*
X88218421Y-80625398D01*
X88375398Y-80468421D01*
X88498734Y-80283835D01*
X88583690Y-80078734D01*
X88627000Y-79861000D01*
X88627000Y-79639000D01*
X88583690Y-79421266D01*
X88570325Y-79389000D01*
X90123000Y-79389000D01*
X90123000Y-79611000D01*
X90166310Y-79828734D01*
X90251266Y-80033835D01*
X90374602Y-80218421D01*
X90531579Y-80375398D01*
X90716165Y-80498734D01*
X90921266Y-80583690D01*
X91139000Y-80627000D01*
X91361000Y-80627000D01*
X91578734Y-80583690D01*
X91783835Y-80498734D01*
X91968421Y-80375398D01*
X92125398Y-80218421D01*
X92248734Y-80033835D01*
X92333690Y-79828734D01*
X92377000Y-79611000D01*
X92377000Y-79389000D01*
X92333690Y-79171266D01*
X92248734Y-78966165D01*
X92125398Y-78781579D01*
X91968421Y-78624602D01*
X91783835Y-78501266D01*
X91578734Y-78416310D01*
X91361000Y-78373000D01*
X91139000Y-78373000D01*
X90921266Y-78416310D01*
X90716165Y-78501266D01*
X90531579Y-78624602D01*
X90374602Y-78781579D01*
X90251266Y-78966165D01*
X90166310Y-79171266D01*
X90123000Y-79389000D01*
X88570325Y-79389000D01*
X88498734Y-79216165D01*
X88375398Y-79031579D01*
X88218421Y-78874602D01*
X88033835Y-78751266D01*
X87828734Y-78666310D01*
X87611000Y-78623000D01*
X87389000Y-78623000D01*
X87171266Y-78666310D01*
X86966165Y-78751266D01*
X86781579Y-78874602D01*
X86624602Y-79031579D01*
X86501266Y-79216165D01*
X86416310Y-79421266D01*
X86373000Y-79639000D01*
X63397000Y-79639000D01*
X63397000Y-79127000D01*
X63417000Y-79127000D01*
X63417000Y-78173750D01*
X64163000Y-78173750D01*
X64163000Y-79127000D01*
X65116250Y-79127000D01*
X65275000Y-78968250D01*
X65278072Y-78650000D01*
X65265812Y-78525518D01*
X65229502Y-78405820D01*
X65170537Y-78295506D01*
X65091185Y-78198815D01*
X65018300Y-78139000D01*
X92123000Y-78139000D01*
X92123000Y-78361000D01*
X92166310Y-78578734D01*
X92251266Y-78783835D01*
X92374602Y-78968421D01*
X92531579Y-79125398D01*
X92716165Y-79248734D01*
X92921266Y-79333690D01*
X93139000Y-79377000D01*
X93361000Y-79377000D01*
X93578734Y-79333690D01*
X93783835Y-79248734D01*
X93968421Y-79125398D01*
X94125398Y-78968421D01*
X94248734Y-78783835D01*
X94333690Y-78578734D01*
X94377000Y-78361000D01*
X94377000Y-78139000D01*
X94333690Y-77921266D01*
X94303694Y-77848849D01*
X97248000Y-77848849D01*
X97248000Y-78051151D01*
X97287467Y-78249565D01*
X97364885Y-78436467D01*
X97477277Y-78604674D01*
X97620326Y-78747723D01*
X97788533Y-78860115D01*
X97975435Y-78937533D01*
X98173849Y-78977000D01*
X98376151Y-78977000D01*
X98574565Y-78937533D01*
X98761467Y-78860115D01*
X98929674Y-78747723D01*
X99072723Y-78604674D01*
X99185115Y-78436467D01*
X99262533Y-78249565D01*
X99302000Y-78051151D01*
X99302000Y-78025715D01*
X99432881Y-78128823D01*
X99641055Y-78234806D01*
X99865906Y-78298140D01*
X100052000Y-78157656D01*
X100052000Y-77498000D01*
X100032000Y-77498000D01*
X100032000Y-76752000D01*
X100052000Y-76752000D01*
X100052000Y-76092344D01*
X99865906Y-75951860D01*
X99641055Y-76015194D01*
X99432881Y-76121177D01*
X99249383Y-76265736D01*
X99097613Y-76443316D01*
X99012031Y-76578993D01*
X99108208Y-76751998D01*
X98880000Y-76751998D01*
X98880000Y-77119086D01*
X98761467Y-77039885D01*
X98574565Y-76962467D01*
X98376151Y-76923000D01*
X98173849Y-76923000D01*
X97975435Y-76962467D01*
X97788533Y-77039885D01*
X97620326Y-77152277D01*
X97477277Y-77295326D01*
X97364885Y-77463533D01*
X97287467Y-77650435D01*
X97248000Y-77848849D01*
X94303694Y-77848849D01*
X94248734Y-77716165D01*
X94125398Y-77531579D01*
X93968421Y-77374602D01*
X93783835Y-77251266D01*
X93578734Y-77166310D01*
X93361000Y-77123000D01*
X93139000Y-77123000D01*
X92921266Y-77166310D01*
X92716165Y-77251266D01*
X92531579Y-77374602D01*
X92374602Y-77531579D01*
X92251266Y-77716165D01*
X92166310Y-77921266D01*
X92123000Y-78139000D01*
X65018300Y-78139000D01*
X64994494Y-78119463D01*
X64884180Y-78060498D01*
X64764482Y-78024188D01*
X64640000Y-78011928D01*
X64321750Y-78015000D01*
X64163000Y-78173750D01*
X63417000Y-78173750D01*
X63258250Y-78015000D01*
X62940000Y-78011928D01*
X62815518Y-78024188D01*
X62695820Y-78060498D01*
X62585506Y-78119463D01*
X62488815Y-78198815D01*
X62409463Y-78295506D01*
X62362877Y-78382662D01*
X62255279Y-78275064D01*
X61996989Y-78102481D01*
X61709994Y-77983604D01*
X61405321Y-77923000D01*
X61094679Y-77923000D01*
X60790006Y-77983604D01*
X60503011Y-78102481D01*
X60244721Y-78275064D01*
X60025064Y-78494721D01*
X59980000Y-78562164D01*
X59934936Y-78494721D01*
X59715279Y-78275064D01*
X59456989Y-78102481D01*
X59169994Y-77983604D01*
X58865321Y-77923000D01*
X58554679Y-77923000D01*
X58250006Y-77983604D01*
X57963011Y-78102481D01*
X57704721Y-78275064D01*
X57485064Y-78494721D01*
X57312481Y-78753011D01*
X57193604Y-79040006D01*
X57133000Y-79344679D01*
X43680517Y-79344679D01*
X43680517Y-78350000D01*
X43666480Y-78207483D01*
X43624910Y-78070443D01*
X43557403Y-77944147D01*
X43466554Y-77833446D01*
X43355853Y-77742597D01*
X43229557Y-77675090D01*
X43092517Y-77633520D01*
X42950000Y-77619483D01*
X41250000Y-77619483D01*
X41107483Y-77633520D01*
X40970443Y-77675090D01*
X40844147Y-77742597D01*
X40733446Y-77833446D01*
X40642597Y-77944147D01*
X40575090Y-78070443D01*
X40533520Y-78207483D01*
X40519483Y-78350000D01*
X37480517Y-78350000D01*
X37466480Y-78207483D01*
X37424910Y-78070443D01*
X37357403Y-77944147D01*
X37266554Y-77833446D01*
X37155853Y-77742597D01*
X37029557Y-77675090D01*
X36892517Y-77633520D01*
X36750000Y-77619483D01*
X35050000Y-77619483D01*
X34907483Y-77633520D01*
X34770443Y-77675090D01*
X34644147Y-77742597D01*
X34533446Y-77833446D01*
X34442597Y-77944147D01*
X34375090Y-78070443D01*
X34333520Y-78207483D01*
X34319483Y-78350000D01*
X32252000Y-78350000D01*
X32252000Y-77589000D01*
X48973000Y-77589000D01*
X48973000Y-77811000D01*
X49016310Y-78028734D01*
X49101266Y-78233835D01*
X49224602Y-78418421D01*
X49381579Y-78575398D01*
X49566165Y-78698734D01*
X49771266Y-78783690D01*
X49989000Y-78827000D01*
X50211000Y-78827000D01*
X50428734Y-78783690D01*
X50633835Y-78698734D01*
X50818421Y-78575398D01*
X50975398Y-78418421D01*
X51098734Y-78233835D01*
X51183690Y-78028734D01*
X51227000Y-77811000D01*
X51227000Y-77589000D01*
X51183690Y-77371266D01*
X51098734Y-77166165D01*
X50975398Y-76981579D01*
X50818421Y-76824602D01*
X50633835Y-76701266D01*
X50428734Y-76616310D01*
X50211000Y-76573000D01*
X49989000Y-76573000D01*
X49771266Y-76616310D01*
X49566165Y-76701266D01*
X49381579Y-76824602D01*
X49224602Y-76981579D01*
X49101266Y-77166165D01*
X49016310Y-77371266D01*
X48973000Y-77589000D01*
X32252000Y-77589000D01*
X32252000Y-74113026D01*
X33664476Y-74113026D01*
X34047336Y-74572197D01*
X34732984Y-74889308D01*
X35467324Y-75066562D01*
X36222133Y-75097147D01*
X36968407Y-74979889D01*
X37215708Y-74889000D01*
X68123000Y-74889000D01*
X68123000Y-75111000D01*
X68166310Y-75328734D01*
X68251266Y-75533835D01*
X68374602Y-75718421D01*
X68531579Y-75875398D01*
X68716165Y-75998734D01*
X68921266Y-76083690D01*
X69139000Y-76127000D01*
X69361000Y-76127000D01*
X69578734Y-76083690D01*
X69783835Y-75998734D01*
X69968421Y-75875398D01*
X70125398Y-75718421D01*
X70248734Y-75533835D01*
X70333690Y-75328734D01*
X70377000Y-75111000D01*
X70377000Y-74889000D01*
X70333690Y-74671266D01*
X70248734Y-74466165D01*
X70197175Y-74389000D01*
X76623000Y-74389000D01*
X76623000Y-74611000D01*
X76666310Y-74828734D01*
X76751266Y-75033835D01*
X76874602Y-75218421D01*
X77031579Y-75375398D01*
X77216165Y-75498734D01*
X77421266Y-75583690D01*
X77639000Y-75627000D01*
X77861000Y-75627000D01*
X78078734Y-75583690D01*
X78283835Y-75498734D01*
X78468421Y-75375398D01*
X78625398Y-75218421D01*
X78748734Y-75033835D01*
X78833690Y-74828734D01*
X78877000Y-74611000D01*
X78877000Y-74389000D01*
X78833690Y-74171266D01*
X78809567Y-74113026D01*
X95164476Y-74113026D01*
X95547336Y-74572197D01*
X96232984Y-74889308D01*
X96967324Y-75066562D01*
X97722133Y-75097147D01*
X98468407Y-74979889D01*
X99177464Y-74719294D01*
X99452664Y-74572197D01*
X99835524Y-74113026D01*
X99576687Y-73854189D01*
X99596505Y-73732585D01*
X99197056Y-73333136D01*
X99126345Y-73403847D01*
X98740265Y-73017767D01*
X98810976Y-72947056D01*
X98411527Y-72547607D01*
X98289923Y-72567425D01*
X97500000Y-71777502D01*
X96710077Y-72567425D01*
X96588473Y-72547607D01*
X96189024Y-72947056D01*
X96259735Y-73017767D01*
X95873655Y-73403847D01*
X95802944Y-73333136D01*
X95403495Y-73732585D01*
X95423313Y-73854189D01*
X95164476Y-74113026D01*
X78809567Y-74113026D01*
X78748734Y-73966165D01*
X78625398Y-73781579D01*
X78468421Y-73624602D01*
X78283835Y-73501266D01*
X78078734Y-73416310D01*
X77861000Y-73373000D01*
X77639000Y-73373000D01*
X77421266Y-73416310D01*
X77216165Y-73501266D01*
X77031579Y-73624602D01*
X76874602Y-73781579D01*
X76751266Y-73966165D01*
X76666310Y-74171266D01*
X76623000Y-74389000D01*
X70197175Y-74389000D01*
X70125398Y-74281579D01*
X69968421Y-74124602D01*
X69783835Y-74001266D01*
X69578734Y-73916310D01*
X69361000Y-73873000D01*
X69139000Y-73873000D01*
X68921266Y-73916310D01*
X68716165Y-74001266D01*
X68531579Y-74124602D01*
X68374602Y-74281579D01*
X68251266Y-74466165D01*
X68166310Y-74671266D01*
X68123000Y-74889000D01*
X37215708Y-74889000D01*
X37677464Y-74719294D01*
X37952664Y-74572197D01*
X38335524Y-74113026D01*
X38076687Y-73854189D01*
X38096505Y-73732585D01*
X37697056Y-73333136D01*
X37626345Y-73403847D01*
X37240265Y-73017767D01*
X37310976Y-72947056D01*
X36911527Y-72547607D01*
X36789923Y-72567425D01*
X36000000Y-71777502D01*
X35210077Y-72567425D01*
X35088473Y-72547607D01*
X34689024Y-72947056D01*
X34759735Y-73017767D01*
X34373655Y-73403847D01*
X34302944Y-73333136D01*
X33903495Y-73732585D01*
X33923313Y-73854189D01*
X33664476Y-74113026D01*
X32252000Y-74113026D01*
X32252000Y-72103142D01*
X32270111Y-72218407D01*
X32530706Y-72927464D01*
X32677803Y-73202664D01*
X33136974Y-73585524D01*
X33395811Y-73326687D01*
X33517415Y-73346505D01*
X33916864Y-72947056D01*
X33846153Y-72876345D01*
X34232233Y-72490265D01*
X34302944Y-72560976D01*
X34702393Y-72161527D01*
X34682575Y-72039923D01*
X35472498Y-71250000D01*
X36527502Y-71250000D01*
X37317425Y-72039923D01*
X37297607Y-72161527D01*
X37697056Y-72560976D01*
X37767767Y-72490265D01*
X38153847Y-72876345D01*
X38083136Y-72947056D01*
X38482585Y-73346505D01*
X38604189Y-73326687D01*
X38863026Y-73585524D01*
X39322197Y-73202664D01*
X39639308Y-72517016D01*
X39739966Y-72100000D01*
X40511928Y-72100000D01*
X40524188Y-72224482D01*
X40560498Y-72344180D01*
X40619463Y-72454494D01*
X40698815Y-72551185D01*
X40795506Y-72630537D01*
X40905820Y-72689502D01*
X41025518Y-72725812D01*
X41150000Y-72738072D01*
X41468250Y-72735000D01*
X41627000Y-72576250D01*
X41627000Y-71623000D01*
X40673750Y-71623000D01*
X40515000Y-71781750D01*
X40511928Y-72100000D01*
X39739966Y-72100000D01*
X39816562Y-71782676D01*
X39847147Y-71027867D01*
X39748494Y-70400000D01*
X40511928Y-70400000D01*
X40515000Y-70718250D01*
X40673750Y-70877000D01*
X41627000Y-70877000D01*
X41627000Y-69923750D01*
X42373000Y-69923750D01*
X42373000Y-70877000D01*
X42393000Y-70877000D01*
X42393000Y-71623000D01*
X42373000Y-71623000D01*
X42373000Y-72576250D01*
X42531750Y-72735000D01*
X42850000Y-72738072D01*
X42974482Y-72725812D01*
X43094180Y-72689502D01*
X43204494Y-72630537D01*
X43301185Y-72551185D01*
X43380537Y-72454494D01*
X43427123Y-72367338D01*
X43534721Y-72474936D01*
X43793011Y-72647519D01*
X44080006Y-72766396D01*
X44384679Y-72827000D01*
X44695321Y-72827000D01*
X44999994Y-72766396D01*
X45286989Y-72647519D01*
X45545279Y-72474936D01*
X45764936Y-72255279D01*
X45810000Y-72187836D01*
X45855064Y-72255279D01*
X46074721Y-72474936D01*
X46333011Y-72647519D01*
X46620006Y-72766396D01*
X46924679Y-72827000D01*
X47235321Y-72827000D01*
X47539994Y-72766396D01*
X47826989Y-72647519D01*
X48085279Y-72474936D01*
X48304936Y-72255279D01*
X48350000Y-72187836D01*
X48395064Y-72255279D01*
X48614721Y-72474936D01*
X48873011Y-72647519D01*
X49160006Y-72766396D01*
X49464679Y-72827000D01*
X49775321Y-72827000D01*
X50079994Y-72766396D01*
X50366989Y-72647519D01*
X50625279Y-72474936D01*
X50844936Y-72255279D01*
X50890000Y-72187836D01*
X50935064Y-72255279D01*
X51154721Y-72474936D01*
X51413011Y-72647519D01*
X51700006Y-72766396D01*
X52004679Y-72827000D01*
X52315321Y-72827000D01*
X52619994Y-72766396D01*
X52906989Y-72647519D01*
X53165279Y-72474936D01*
X53384936Y-72255279D01*
X53430000Y-72187836D01*
X53475064Y-72255279D01*
X53694721Y-72474936D01*
X53953011Y-72647519D01*
X54240006Y-72766396D01*
X54544679Y-72827000D01*
X54855321Y-72827000D01*
X55159994Y-72766396D01*
X55446989Y-72647519D01*
X55705279Y-72474936D01*
X55924936Y-72255279D01*
X56097519Y-71996989D01*
X56216396Y-71709994D01*
X56277000Y-71405321D01*
X56277000Y-71094679D01*
X57223000Y-71094679D01*
X57223000Y-71405321D01*
X57283604Y-71709994D01*
X57402481Y-71996989D01*
X57575064Y-72255279D01*
X57794721Y-72474936D01*
X58053011Y-72647519D01*
X58340006Y-72766396D01*
X58644679Y-72827000D01*
X58955321Y-72827000D01*
X59259994Y-72766396D01*
X59546989Y-72647519D01*
X59805279Y-72474936D01*
X60024936Y-72255279D01*
X60070000Y-72187836D01*
X60115064Y-72255279D01*
X60334721Y-72474936D01*
X60593011Y-72647519D01*
X60880006Y-72766396D01*
X61184679Y-72827000D01*
X61495321Y-72827000D01*
X61799994Y-72766396D01*
X62086989Y-72647519D01*
X62345279Y-72474936D01*
X62564936Y-72255279D01*
X62610000Y-72187836D01*
X62655064Y-72255279D01*
X62874721Y-72474936D01*
X63133011Y-72647519D01*
X63420006Y-72766396D01*
X63724679Y-72827000D01*
X64035321Y-72827000D01*
X64339994Y-72766396D01*
X64626989Y-72647519D01*
X64885279Y-72474936D01*
X65104936Y-72255279D01*
X65150000Y-72187836D01*
X65195064Y-72255279D01*
X65414721Y-72474936D01*
X65673011Y-72647519D01*
X65960006Y-72766396D01*
X66264679Y-72827000D01*
X66575321Y-72827000D01*
X66879994Y-72766396D01*
X67166989Y-72647519D01*
X67425279Y-72474936D01*
X67644936Y-72255279D01*
X67690000Y-72187836D01*
X67735064Y-72255279D01*
X67954721Y-72474936D01*
X68213011Y-72647519D01*
X68500006Y-72766396D01*
X68804679Y-72827000D01*
X69115321Y-72827000D01*
X69419994Y-72766396D01*
X69706989Y-72647519D01*
X69965279Y-72474936D01*
X70072877Y-72367338D01*
X70119463Y-72454494D01*
X70198815Y-72551185D01*
X70295506Y-72630537D01*
X70405820Y-72689502D01*
X70525518Y-72725812D01*
X70650000Y-72738072D01*
X70968250Y-72735000D01*
X71127000Y-72576250D01*
X71127000Y-71623000D01*
X71873000Y-71623000D01*
X71873000Y-72576250D01*
X72031750Y-72735000D01*
X72350000Y-72738072D01*
X72474482Y-72725812D01*
X72594180Y-72689502D01*
X72704494Y-72630537D01*
X72801185Y-72551185D01*
X72880537Y-72454494D01*
X72939502Y-72344180D01*
X72975812Y-72224482D01*
X72988072Y-72100000D01*
X72985000Y-71781750D01*
X72826250Y-71623000D01*
X71873000Y-71623000D01*
X71127000Y-71623000D01*
X71107000Y-71623000D01*
X71107000Y-70877000D01*
X71127000Y-70877000D01*
X71127000Y-69923750D01*
X71873000Y-69923750D01*
X71873000Y-70877000D01*
X72826250Y-70877000D01*
X72985000Y-70718250D01*
X72988072Y-70400000D01*
X73919483Y-70400000D01*
X73919483Y-72100000D01*
X73933520Y-72242517D01*
X73975090Y-72379557D01*
X74042597Y-72505853D01*
X74133446Y-72616554D01*
X74244147Y-72707403D01*
X74370443Y-72774910D01*
X74507483Y-72816480D01*
X74650000Y-72830517D01*
X76350000Y-72830517D01*
X76492517Y-72816480D01*
X76629557Y-72774910D01*
X76755853Y-72707403D01*
X76866554Y-72616554D01*
X76957403Y-72505853D01*
X76995104Y-72435319D01*
X77034721Y-72474936D01*
X77293011Y-72647519D01*
X77580006Y-72766396D01*
X77884679Y-72827000D01*
X78195321Y-72827000D01*
X78499994Y-72766396D01*
X78786989Y-72647519D01*
X79045279Y-72474936D01*
X79264936Y-72255279D01*
X79366059Y-72103937D01*
X79549301Y-72319078D01*
X79777672Y-72499615D01*
X79986735Y-72611345D01*
X80207000Y-72522718D01*
X80207000Y-71623000D01*
X80187000Y-71623000D01*
X80187000Y-70877000D01*
X80207000Y-70877000D01*
X80207000Y-69977282D01*
X80953000Y-69977282D01*
X80953000Y-70877000D01*
X80973000Y-70877000D01*
X80973000Y-71623000D01*
X80953000Y-71623000D01*
X80953000Y-72522718D01*
X81173265Y-72611345D01*
X81382328Y-72499615D01*
X81610699Y-72319078D01*
X81793941Y-72103937D01*
X81895064Y-72255279D01*
X82114721Y-72474936D01*
X82373011Y-72647519D01*
X82660006Y-72766396D01*
X82964679Y-72827000D01*
X83275321Y-72827000D01*
X83579994Y-72766396D01*
X83866989Y-72647519D01*
X84125279Y-72474936D01*
X84344936Y-72255279D01*
X84517519Y-71996989D01*
X84636396Y-71709994D01*
X84683710Y-71472133D01*
X93652853Y-71472133D01*
X93770111Y-72218407D01*
X94030706Y-72927464D01*
X94177803Y-73202664D01*
X94636974Y-73585524D01*
X94895811Y-73326687D01*
X95017415Y-73346505D01*
X95416864Y-72947056D01*
X95346153Y-72876345D01*
X95732233Y-72490265D01*
X95802944Y-72560976D01*
X96202393Y-72161527D01*
X96182575Y-72039923D01*
X96972498Y-71250000D01*
X96182575Y-70460077D01*
X96202393Y-70338473D01*
X95802944Y-69939024D01*
X95732233Y-70009735D01*
X95346153Y-69623655D01*
X95416864Y-69552944D01*
X95017415Y-69153495D01*
X94895811Y-69173313D01*
X94636974Y-68914476D01*
X94177803Y-69297336D01*
X93860692Y-69982984D01*
X93683438Y-70717324D01*
X93652853Y-71472133D01*
X84683710Y-71472133D01*
X84697000Y-71405321D01*
X84697000Y-71094679D01*
X84636396Y-70790006D01*
X84517519Y-70503011D01*
X84344936Y-70244721D01*
X84125279Y-70025064D01*
X83866989Y-69852481D01*
X83579994Y-69733604D01*
X83275321Y-69673000D01*
X82964679Y-69673000D01*
X82660006Y-69733604D01*
X82373011Y-69852481D01*
X82114721Y-70025064D01*
X81895064Y-70244721D01*
X81793941Y-70396063D01*
X81610699Y-70180922D01*
X81382328Y-70000385D01*
X81173265Y-69888655D01*
X80953000Y-69977282D01*
X80207000Y-69977282D01*
X79986735Y-69888655D01*
X79777672Y-70000385D01*
X79549301Y-70180922D01*
X79366059Y-70396063D01*
X79264936Y-70244721D01*
X79045279Y-70025064D01*
X78786989Y-69852481D01*
X78499994Y-69733604D01*
X78195321Y-69673000D01*
X77884679Y-69673000D01*
X77580006Y-69733604D01*
X77293011Y-69852481D01*
X77034721Y-70025064D01*
X76995104Y-70064681D01*
X76957403Y-69994147D01*
X76866554Y-69883446D01*
X76755853Y-69792597D01*
X76629557Y-69725090D01*
X76492517Y-69683520D01*
X76350000Y-69669483D01*
X74650000Y-69669483D01*
X74507483Y-69683520D01*
X74370443Y-69725090D01*
X74244147Y-69792597D01*
X74133446Y-69883446D01*
X74042597Y-69994147D01*
X73975090Y-70120443D01*
X73933520Y-70257483D01*
X73919483Y-70400000D01*
X72988072Y-70400000D01*
X72975812Y-70275518D01*
X72939502Y-70155820D01*
X72880537Y-70045506D01*
X72801185Y-69948815D01*
X72704494Y-69869463D01*
X72594180Y-69810498D01*
X72474482Y-69774188D01*
X72350000Y-69761928D01*
X72031750Y-69765000D01*
X71873000Y-69923750D01*
X71127000Y-69923750D01*
X70968250Y-69765000D01*
X70650000Y-69761928D01*
X70525518Y-69774188D01*
X70405820Y-69810498D01*
X70295506Y-69869463D01*
X70198815Y-69948815D01*
X70119463Y-70045506D01*
X70072877Y-70132662D01*
X69965279Y-70025064D01*
X69706989Y-69852481D01*
X69419994Y-69733604D01*
X69115321Y-69673000D01*
X68804679Y-69673000D01*
X68500006Y-69733604D01*
X68213011Y-69852481D01*
X67954721Y-70025064D01*
X67735064Y-70244721D01*
X67690000Y-70312164D01*
X67644936Y-70244721D01*
X67425279Y-70025064D01*
X67166989Y-69852481D01*
X66879994Y-69733604D01*
X66575321Y-69673000D01*
X66264679Y-69673000D01*
X65960006Y-69733604D01*
X65673011Y-69852481D01*
X65414721Y-70025064D01*
X65195064Y-70244721D01*
X65150000Y-70312164D01*
X65104936Y-70244721D01*
X64885279Y-70025064D01*
X64626989Y-69852481D01*
X64339994Y-69733604D01*
X64035321Y-69673000D01*
X63724679Y-69673000D01*
X63420006Y-69733604D01*
X63133011Y-69852481D01*
X62874721Y-70025064D01*
X62655064Y-70244721D01*
X62610000Y-70312164D01*
X62564936Y-70244721D01*
X62345279Y-70025064D01*
X62086989Y-69852481D01*
X61799994Y-69733604D01*
X61495321Y-69673000D01*
X61184679Y-69673000D01*
X60880006Y-69733604D01*
X60593011Y-69852481D01*
X60334721Y-70025064D01*
X60115064Y-70244721D01*
X60070000Y-70312164D01*
X60024936Y-70244721D01*
X59805279Y-70025064D01*
X59546989Y-69852481D01*
X59259994Y-69733604D01*
X58955321Y-69673000D01*
X58644679Y-69673000D01*
X58340006Y-69733604D01*
X58053011Y-69852481D01*
X57794721Y-70025064D01*
X57575064Y-70244721D01*
X57402481Y-70503011D01*
X57283604Y-70790006D01*
X57223000Y-71094679D01*
X56277000Y-71094679D01*
X56216396Y-70790006D01*
X56097519Y-70503011D01*
X55924936Y-70244721D01*
X55705279Y-70025064D01*
X55446989Y-69852481D01*
X55159994Y-69733604D01*
X54855321Y-69673000D01*
X54544679Y-69673000D01*
X54240006Y-69733604D01*
X53953011Y-69852481D01*
X53694721Y-70025064D01*
X53475064Y-70244721D01*
X53430000Y-70312164D01*
X53384936Y-70244721D01*
X53165279Y-70025064D01*
X52906989Y-69852481D01*
X52619994Y-69733604D01*
X52315321Y-69673000D01*
X52004679Y-69673000D01*
X51700006Y-69733604D01*
X51413011Y-69852481D01*
X51154721Y-70025064D01*
X50935064Y-70244721D01*
X50890000Y-70312164D01*
X50844936Y-70244721D01*
X50625279Y-70025064D01*
X50366989Y-69852481D01*
X50079994Y-69733604D01*
X49775321Y-69673000D01*
X49464679Y-69673000D01*
X49160006Y-69733604D01*
X48873011Y-69852481D01*
X48614721Y-70025064D01*
X48395064Y-70244721D01*
X48350000Y-70312164D01*
X48304936Y-70244721D01*
X48085279Y-70025064D01*
X47826989Y-69852481D01*
X47539994Y-69733604D01*
X47235321Y-69673000D01*
X46924679Y-69673000D01*
X46620006Y-69733604D01*
X46333011Y-69852481D01*
X46074721Y-70025064D01*
X45855064Y-70244721D01*
X45810000Y-70312164D01*
X45764936Y-70244721D01*
X45545279Y-70025064D01*
X45286989Y-69852481D01*
X44999994Y-69733604D01*
X44695321Y-69673000D01*
X44384679Y-69673000D01*
X44080006Y-69733604D01*
X43793011Y-69852481D01*
X43534721Y-70025064D01*
X43427123Y-70132662D01*
X43380537Y-70045506D01*
X43301185Y-69948815D01*
X43204494Y-69869463D01*
X43094180Y-69810498D01*
X42974482Y-69774188D01*
X42850000Y-69761928D01*
X42531750Y-69765000D01*
X42373000Y-69923750D01*
X41627000Y-69923750D01*
X41468250Y-69765000D01*
X41150000Y-69761928D01*
X41025518Y-69774188D01*
X40905820Y-69810498D01*
X40795506Y-69869463D01*
X40698815Y-69948815D01*
X40619463Y-70045506D01*
X40560498Y-70155820D01*
X40524188Y-70275518D01*
X40511928Y-70400000D01*
X39748494Y-70400000D01*
X39729889Y-70281593D01*
X39469294Y-69572536D01*
X39322197Y-69297336D01*
X38863026Y-68914476D01*
X38604189Y-69173313D01*
X38482585Y-69153495D01*
X38083136Y-69552944D01*
X38153847Y-69623655D01*
X37767767Y-70009735D01*
X37697056Y-69939024D01*
X37297607Y-70338473D01*
X37317425Y-70460077D01*
X36527502Y-71250000D01*
X35472498Y-71250000D01*
X35458356Y-71235858D01*
X35985858Y-70708356D01*
X36000000Y-70722498D01*
X36789923Y-69932575D01*
X36911527Y-69952393D01*
X37310976Y-69552944D01*
X37240265Y-69482233D01*
X37626345Y-69096153D01*
X37697056Y-69166864D01*
X38096505Y-68767415D01*
X38076687Y-68645811D01*
X38335524Y-68386974D01*
X37952664Y-67927803D01*
X37267016Y-67610692D01*
X36816719Y-67502000D01*
X96646858Y-67502000D01*
X96531593Y-67520111D01*
%TA.AperFunction,Conductor*%
D17*
G36*
X96531593Y-67520111D02*
G01*
X95822536Y-67780706D01*
X95547336Y-67927803D01*
X95164476Y-68386974D01*
X95423313Y-68645811D01*
X95403495Y-68767415D01*
X95802944Y-69166864D01*
X95873655Y-69096153D01*
X96259735Y-69482233D01*
X96189024Y-69552944D01*
X96588473Y-69952393D01*
X96710077Y-69932575D01*
X97500000Y-70722498D01*
X97514142Y-70708356D01*
X98041644Y-71235858D01*
X98027502Y-71250000D01*
X98817425Y-72039923D01*
X98797607Y-72161527D01*
X99197056Y-72560976D01*
X99267767Y-72490265D01*
X99653847Y-72876345D01*
X99583136Y-72947056D01*
X99982585Y-73346505D01*
X100104189Y-73326687D01*
X100363026Y-73585524D01*
X100822197Y-73202664D01*
X101139308Y-72517016D01*
X101248000Y-72066719D01*
X101248000Y-76035077D01*
X101208945Y-76015194D01*
X100984094Y-75951860D01*
X100798000Y-76092344D01*
X100798000Y-76752000D01*
X100818000Y-76752000D01*
X100818000Y-77498000D01*
X100798000Y-77498000D01*
X100798000Y-78157656D01*
X100984094Y-78298140D01*
X101208945Y-78234806D01*
X101248000Y-78214923D01*
X101248000Y-81685077D01*
X101208945Y-81665194D01*
X100984094Y-81601860D01*
X100798000Y-81742344D01*
X100798000Y-82402000D01*
X100818000Y-82402000D01*
X100818000Y-83148000D01*
X100798000Y-83148000D01*
X100798000Y-83807656D01*
X100984094Y-83948140D01*
X101208945Y-83884806D01*
X101248000Y-83864923D01*
X101248001Y-107146864D01*
X101229889Y-107031593D01*
X100969294Y-106322536D01*
X100822197Y-106047336D01*
X100363026Y-105664476D01*
X100104189Y-105923313D01*
X99982585Y-105903495D01*
X99583136Y-106302944D01*
X99653847Y-106373655D01*
X99267767Y-106759735D01*
X99197056Y-106689024D01*
X98797607Y-107088473D01*
X98817425Y-107210077D01*
X98027502Y-108000000D01*
X98041644Y-108014142D01*
X97514142Y-108541644D01*
X97500000Y-108527502D01*
X96710077Y-109317425D01*
X96588473Y-109297607D01*
X96189024Y-109697056D01*
X96259735Y-109767767D01*
X95873655Y-110153847D01*
X95802944Y-110083136D01*
X95403495Y-110482585D01*
X95423313Y-110604189D01*
X95164476Y-110863026D01*
X95547336Y-111322197D01*
X96232984Y-111639308D01*
X96683281Y-111748000D01*
X36853142Y-111748000D01*
X36968407Y-111729889D01*
X37677464Y-111469294D01*
X37952664Y-111322197D01*
X38335524Y-110863026D01*
X38076687Y-110604189D01*
X38096505Y-110482585D01*
X37697056Y-110083136D01*
X37626345Y-110153847D01*
X37240265Y-109767767D01*
X37310976Y-109697056D01*
X36911527Y-109297607D01*
X36789923Y-109317425D01*
X36000000Y-108527502D01*
X35985858Y-108541644D01*
X35458356Y-108014142D01*
X35472498Y-108000000D01*
X36527502Y-108000000D01*
X37317425Y-108789923D01*
X37297607Y-108911527D01*
X37697056Y-109310976D01*
X37767767Y-109240265D01*
X38153847Y-109626345D01*
X38083136Y-109697056D01*
X38482585Y-110096505D01*
X38604189Y-110076687D01*
X38863026Y-110335524D01*
X39322197Y-109952664D01*
X39600928Y-109350000D01*
X41891928Y-109350000D01*
X41904188Y-109474482D01*
X41940498Y-109594180D01*
X41999463Y-109704494D01*
X42078815Y-109801185D01*
X42175506Y-109880537D01*
X42285820Y-109939502D01*
X42405518Y-109975812D01*
X42530000Y-109988072D01*
X42848250Y-109985000D01*
X43007000Y-109826250D01*
X43007000Y-108873000D01*
X42053750Y-108873000D01*
X41895000Y-109031750D01*
X41891928Y-109350000D01*
X39600928Y-109350000D01*
X39639308Y-109267016D01*
X39816562Y-108532676D01*
X39847147Y-107777867D01*
X39827056Y-107650000D01*
X41891928Y-107650000D01*
X41895000Y-107968250D01*
X42053750Y-108127000D01*
X43007000Y-108127000D01*
X43007000Y-107173750D01*
X43753000Y-107173750D01*
X43753000Y-108127000D01*
X43773000Y-108127000D01*
X43773000Y-108873000D01*
X43753000Y-108873000D01*
X43753000Y-109826250D01*
X43911750Y-109985000D01*
X44230000Y-109988072D01*
X44354482Y-109975812D01*
X44474180Y-109939502D01*
X44584494Y-109880537D01*
X44681185Y-109801185D01*
X44760537Y-109704494D01*
X44807123Y-109617338D01*
X44914721Y-109724936D01*
X45173011Y-109897519D01*
X45460006Y-110016396D01*
X45764679Y-110077000D01*
X46075321Y-110077000D01*
X46379994Y-110016396D01*
X46666989Y-109897519D01*
X46925279Y-109724936D01*
X47144936Y-109505279D01*
X47190000Y-109437836D01*
X47235064Y-109505279D01*
X47454721Y-109724936D01*
X47713011Y-109897519D01*
X48000006Y-110016396D01*
X48304679Y-110077000D01*
X48615321Y-110077000D01*
X48919994Y-110016396D01*
X49206989Y-109897519D01*
X49465279Y-109724936D01*
X49684936Y-109505279D01*
X49730000Y-109437836D01*
X49775064Y-109505279D01*
X49994721Y-109724936D01*
X50253011Y-109897519D01*
X50540006Y-110016396D01*
X50844679Y-110077000D01*
X51155321Y-110077000D01*
X51459994Y-110016396D01*
X51746989Y-109897519D01*
X52005279Y-109724936D01*
X52224936Y-109505279D01*
X52328689Y-109350000D01*
X54261928Y-109350000D01*
X54274188Y-109474482D01*
X54310498Y-109594180D01*
X54369463Y-109704494D01*
X54448815Y-109801185D01*
X54545506Y-109880537D01*
X54655820Y-109939502D01*
X54775518Y-109975812D01*
X54900000Y-109988072D01*
X55218250Y-109985000D01*
X55377000Y-109826250D01*
X55377000Y-108873000D01*
X54423750Y-108873000D01*
X54265000Y-109031750D01*
X54261928Y-109350000D01*
X52328689Y-109350000D01*
X52397519Y-109246989D01*
X52516396Y-108959994D01*
X52577000Y-108655321D01*
X52577000Y-108344679D01*
X52516396Y-108040006D01*
X52397519Y-107753011D01*
X52328690Y-107650000D01*
X54261928Y-107650000D01*
X54265000Y-107968250D01*
X54423750Y-108127000D01*
X55377000Y-108127000D01*
X55377000Y-107173750D01*
X56123000Y-107173750D01*
X56123000Y-108127000D01*
X56143000Y-108127000D01*
X56143000Y-108873000D01*
X56123000Y-108873000D01*
X56123000Y-109826250D01*
X56281750Y-109985000D01*
X56600000Y-109988072D01*
X56724482Y-109975812D01*
X56844180Y-109939502D01*
X56954494Y-109880537D01*
X57051185Y-109801185D01*
X57130537Y-109704494D01*
X57177123Y-109617338D01*
X57284721Y-109724936D01*
X57543011Y-109897519D01*
X57830006Y-110016396D01*
X58134679Y-110077000D01*
X58445321Y-110077000D01*
X58749994Y-110016396D01*
X59036989Y-109897519D01*
X59295279Y-109724936D01*
X59514936Y-109505279D01*
X59560000Y-109437836D01*
X59605064Y-109505279D01*
X59824721Y-109724936D01*
X60083011Y-109897519D01*
X60370006Y-110016396D01*
X60674679Y-110077000D01*
X60985321Y-110077000D01*
X61289994Y-110016396D01*
X61576989Y-109897519D01*
X61835279Y-109724936D01*
X62054936Y-109505279D01*
X62100000Y-109437836D01*
X62145064Y-109505279D01*
X62364721Y-109724936D01*
X62623011Y-109897519D01*
X62910006Y-110016396D01*
X63214679Y-110077000D01*
X63525321Y-110077000D01*
X63829994Y-110016396D01*
X64116989Y-109897519D01*
X64375279Y-109724936D01*
X64594936Y-109505279D01*
X64640000Y-109437836D01*
X64685064Y-109505279D01*
X64904721Y-109724936D01*
X65163011Y-109897519D01*
X65450006Y-110016396D01*
X65754679Y-110077000D01*
X66065321Y-110077000D01*
X66369994Y-110016396D01*
X66656989Y-109897519D01*
X66915279Y-109724936D01*
X67134936Y-109505279D01*
X67307519Y-109246989D01*
X67426396Y-108959994D01*
X67487000Y-108655321D01*
X67487000Y-108344679D01*
X69803000Y-108344679D01*
X69803000Y-108655321D01*
X69863604Y-108959994D01*
X69982481Y-109246989D01*
X70155064Y-109505279D01*
X70374721Y-109724936D01*
X70633011Y-109897519D01*
X70920006Y-110016396D01*
X71224679Y-110077000D01*
X71535321Y-110077000D01*
X71839994Y-110016396D01*
X72126989Y-109897519D01*
X72385279Y-109724936D01*
X72604936Y-109505279D01*
X72650000Y-109437836D01*
X72695064Y-109505279D01*
X72914721Y-109724936D01*
X73173011Y-109897519D01*
X73460006Y-110016396D01*
X73764679Y-110077000D01*
X74075321Y-110077000D01*
X74379994Y-110016396D01*
X74666989Y-109897519D01*
X74925279Y-109724936D01*
X75144936Y-109505279D01*
X75190000Y-109437836D01*
X75235064Y-109505279D01*
X75454721Y-109724936D01*
X75713011Y-109897519D01*
X76000006Y-110016396D01*
X76304679Y-110077000D01*
X76615321Y-110077000D01*
X76919994Y-110016396D01*
X77206989Y-109897519D01*
X77465279Y-109724936D01*
X77572877Y-109617338D01*
X77619463Y-109704494D01*
X77698815Y-109801185D01*
X77795506Y-109880537D01*
X77905820Y-109939502D01*
X78025518Y-109975812D01*
X78150000Y-109988072D01*
X78468250Y-109985000D01*
X78627000Y-109826250D01*
X78627000Y-108873000D01*
X79373000Y-108873000D01*
X79373000Y-109826250D01*
X79531750Y-109985000D01*
X79850000Y-109988072D01*
X79974482Y-109975812D01*
X80094180Y-109939502D01*
X80204494Y-109880537D01*
X80301185Y-109801185D01*
X80380537Y-109704494D01*
X80439502Y-109594180D01*
X80475812Y-109474482D01*
X80488072Y-109350000D01*
X80485000Y-109031750D01*
X80326250Y-108873000D01*
X79373000Y-108873000D01*
X78627000Y-108873000D01*
X78607000Y-108873000D01*
X78607000Y-108127000D01*
X78627000Y-108127000D01*
X78627000Y-107173750D01*
X79373000Y-107173750D01*
X79373000Y-108127000D01*
X80326250Y-108127000D01*
X80485000Y-107968250D01*
X80486192Y-107844679D01*
X85173000Y-107844679D01*
X85173000Y-108155321D01*
X85233604Y-108459994D01*
X85352481Y-108746989D01*
X85525064Y-109005279D01*
X85744721Y-109224936D01*
X86003011Y-109397519D01*
X86290006Y-109516396D01*
X86594679Y-109577000D01*
X86905321Y-109577000D01*
X87209994Y-109516396D01*
X87496989Y-109397519D01*
X87755279Y-109224936D01*
X87862877Y-109117338D01*
X87909463Y-109204494D01*
X87988815Y-109301185D01*
X88085506Y-109380537D01*
X88195820Y-109439502D01*
X88315518Y-109475812D01*
X88440000Y-109488072D01*
X88758250Y-109485000D01*
X88917000Y-109326250D01*
X88917000Y-108373000D01*
X89663000Y-108373000D01*
X89663000Y-109326250D01*
X89821750Y-109485000D01*
X90140000Y-109488072D01*
X90264482Y-109475812D01*
X90384180Y-109439502D01*
X90494494Y-109380537D01*
X90591185Y-109301185D01*
X90670537Y-109204494D01*
X90729502Y-109094180D01*
X90765812Y-108974482D01*
X90778072Y-108850000D01*
X90775000Y-108531750D01*
X90616250Y-108373000D01*
X89663000Y-108373000D01*
X88917000Y-108373000D01*
X88897000Y-108373000D01*
X88897000Y-108222133D01*
X93652853Y-108222133D01*
X93770111Y-108968407D01*
X94030706Y-109677464D01*
X94177803Y-109952664D01*
X94636974Y-110335524D01*
X94895811Y-110076687D01*
X95017415Y-110096505D01*
X95416864Y-109697056D01*
X95346153Y-109626345D01*
X95732233Y-109240265D01*
X95802944Y-109310976D01*
X96202393Y-108911527D01*
X96182575Y-108789923D01*
X96972498Y-108000000D01*
X96182575Y-107210077D01*
X96202393Y-107088473D01*
X95802944Y-106689024D01*
X95732233Y-106759735D01*
X95346153Y-106373655D01*
X95416864Y-106302944D01*
X95017415Y-105903495D01*
X94895811Y-105923313D01*
X94636974Y-105664476D01*
X94177803Y-106047336D01*
X93860692Y-106732984D01*
X93683438Y-107467324D01*
X93652853Y-108222133D01*
X88897000Y-108222133D01*
X88897000Y-107627000D01*
X88917000Y-107627000D01*
X88917000Y-106673750D01*
X89663000Y-106673750D01*
X89663000Y-107627000D01*
X90616250Y-107627000D01*
X90775000Y-107468250D01*
X90778072Y-107150000D01*
X90765812Y-107025518D01*
X90729502Y-106905820D01*
X90670537Y-106795506D01*
X90591185Y-106698815D01*
X90494494Y-106619463D01*
X90384180Y-106560498D01*
X90264482Y-106524188D01*
X90140000Y-106511928D01*
X89821750Y-106515000D01*
X89663000Y-106673750D01*
X88917000Y-106673750D01*
X88758250Y-106515000D01*
X88440000Y-106511928D01*
X88315518Y-106524188D01*
X88195820Y-106560498D01*
X88085506Y-106619463D01*
X87988815Y-106698815D01*
X87909463Y-106795506D01*
X87862877Y-106882662D01*
X87755279Y-106775064D01*
X87496989Y-106602481D01*
X87209994Y-106483604D01*
X86905321Y-106423000D01*
X86594679Y-106423000D01*
X86290006Y-106483604D01*
X86003011Y-106602481D01*
X85744721Y-106775064D01*
X85525064Y-106994721D01*
X85352481Y-107253011D01*
X85233604Y-107540006D01*
X85173000Y-107844679D01*
X80486192Y-107844679D01*
X80488072Y-107650000D01*
X80475812Y-107525518D01*
X80439502Y-107405820D01*
X80380537Y-107295506D01*
X80301185Y-107198815D01*
X80204494Y-107119463D01*
X80094180Y-107060498D01*
X79974482Y-107024188D01*
X79850000Y-107011928D01*
X79531750Y-107015000D01*
X79373000Y-107173750D01*
X78627000Y-107173750D01*
X78468250Y-107015000D01*
X78150000Y-107011928D01*
X78025518Y-107024188D01*
X77905820Y-107060498D01*
X77795506Y-107119463D01*
X77698815Y-107198815D01*
X77619463Y-107295506D01*
X77572877Y-107382662D01*
X77465279Y-107275064D01*
X77206989Y-107102481D01*
X76919994Y-106983604D01*
X76615321Y-106923000D01*
X76304679Y-106923000D01*
X76000006Y-106983604D01*
X75713011Y-107102481D01*
X75454721Y-107275064D01*
X75235064Y-107494721D01*
X75190000Y-107562164D01*
X75144936Y-107494721D01*
X74925279Y-107275064D01*
X74666989Y-107102481D01*
X74379994Y-106983604D01*
X74075321Y-106923000D01*
X73764679Y-106923000D01*
X73460006Y-106983604D01*
X73173011Y-107102481D01*
X72914721Y-107275064D01*
X72695064Y-107494721D01*
X72650000Y-107562164D01*
X72604936Y-107494721D01*
X72385279Y-107275064D01*
X72126989Y-107102481D01*
X71839994Y-106983604D01*
X71535321Y-106923000D01*
X71224679Y-106923000D01*
X70920006Y-106983604D01*
X70633011Y-107102481D01*
X70374721Y-107275064D01*
X70155064Y-107494721D01*
X69982481Y-107753011D01*
X69863604Y-108040006D01*
X69803000Y-108344679D01*
X67487000Y-108344679D01*
X67426396Y-108040006D01*
X67307519Y-107753011D01*
X67134936Y-107494721D01*
X66915279Y-107275064D01*
X66656989Y-107102481D01*
X66369994Y-106983604D01*
X66065321Y-106923000D01*
X65754679Y-106923000D01*
X65450006Y-106983604D01*
X65163011Y-107102481D01*
X64904721Y-107275064D01*
X64685064Y-107494721D01*
X64640000Y-107562164D01*
X64594936Y-107494721D01*
X64375279Y-107275064D01*
X64116989Y-107102481D01*
X63829994Y-106983604D01*
X63525321Y-106923000D01*
X63214679Y-106923000D01*
X62910006Y-106983604D01*
X62623011Y-107102481D01*
X62364721Y-107275064D01*
X62145064Y-107494721D01*
X62100000Y-107562164D01*
X62054936Y-107494721D01*
X61835279Y-107275064D01*
X61576989Y-107102481D01*
X61289994Y-106983604D01*
X60985321Y-106923000D01*
X60674679Y-106923000D01*
X60370006Y-106983604D01*
X60083011Y-107102481D01*
X59824721Y-107275064D01*
X59605064Y-107494721D01*
X59560000Y-107562164D01*
X59514936Y-107494721D01*
X59295279Y-107275064D01*
X59036989Y-107102481D01*
X58749994Y-106983604D01*
X58445321Y-106923000D01*
X58134679Y-106923000D01*
X57830006Y-106983604D01*
X57543011Y-107102481D01*
X57284721Y-107275064D01*
X57177123Y-107382662D01*
X57130537Y-107295506D01*
X57051185Y-107198815D01*
X56954494Y-107119463D01*
X56844180Y-107060498D01*
X56724482Y-107024188D01*
X56600000Y-107011928D01*
X56281750Y-107015000D01*
X56123000Y-107173750D01*
X55377000Y-107173750D01*
X55218250Y-107015000D01*
X54900000Y-107011928D01*
X54775518Y-107024188D01*
X54655820Y-107060498D01*
X54545506Y-107119463D01*
X54448815Y-107198815D01*
X54369463Y-107295506D01*
X54310498Y-107405820D01*
X54274188Y-107525518D01*
X54261928Y-107650000D01*
X52328690Y-107650000D01*
X52224936Y-107494721D01*
X52005279Y-107275064D01*
X51746989Y-107102481D01*
X51459994Y-106983604D01*
X51155321Y-106923000D01*
X50844679Y-106923000D01*
X50540006Y-106983604D01*
X50253011Y-107102481D01*
X49994721Y-107275064D01*
X49775064Y-107494721D01*
X49730000Y-107562164D01*
X49684936Y-107494721D01*
X49465279Y-107275064D01*
X49206989Y-107102481D01*
X48919994Y-106983604D01*
X48615321Y-106923000D01*
X48304679Y-106923000D01*
X48000006Y-106983604D01*
X47713011Y-107102481D01*
X47454721Y-107275064D01*
X47235064Y-107494721D01*
X47190000Y-107562164D01*
X47144936Y-107494721D01*
X46925279Y-107275064D01*
X46666989Y-107102481D01*
X46379994Y-106983604D01*
X46075321Y-106923000D01*
X45764679Y-106923000D01*
X45460006Y-106983604D01*
X45173011Y-107102481D01*
X44914721Y-107275064D01*
X44807123Y-107382662D01*
X44760537Y-107295506D01*
X44681185Y-107198815D01*
X44584494Y-107119463D01*
X44474180Y-107060498D01*
X44354482Y-107024188D01*
X44230000Y-107011928D01*
X43911750Y-107015000D01*
X43753000Y-107173750D01*
X43007000Y-107173750D01*
X42848250Y-107015000D01*
X42530000Y-107011928D01*
X42405518Y-107024188D01*
X42285820Y-107060498D01*
X42175506Y-107119463D01*
X42078815Y-107198815D01*
X41999463Y-107295506D01*
X41940498Y-107405820D01*
X41904188Y-107525518D01*
X41891928Y-107650000D01*
X39827056Y-107650000D01*
X39729889Y-107031593D01*
X39469294Y-106322536D01*
X39322197Y-106047336D01*
X38863026Y-105664476D01*
X38604189Y-105923313D01*
X38482585Y-105903495D01*
X38083136Y-106302944D01*
X38153847Y-106373655D01*
X37767767Y-106759735D01*
X37697056Y-106689024D01*
X37297607Y-107088473D01*
X37317425Y-107210077D01*
X36527502Y-108000000D01*
X35472498Y-108000000D01*
X34682575Y-107210077D01*
X34702393Y-107088473D01*
X34302944Y-106689024D01*
X34232233Y-106759735D01*
X33846153Y-106373655D01*
X33916864Y-106302944D01*
X33517415Y-105903495D01*
X33395811Y-105923313D01*
X33136974Y-105664476D01*
X32677803Y-106047336D01*
X32360692Y-106732984D01*
X32252000Y-107183281D01*
X32252000Y-105136974D01*
X33664476Y-105136974D01*
X33923313Y-105395811D01*
X33903495Y-105517415D01*
X34302944Y-105916864D01*
X34373655Y-105846153D01*
X34759735Y-106232233D01*
X34689024Y-106302944D01*
X35088473Y-106702393D01*
X35210077Y-106682575D01*
X36000000Y-107472498D01*
X36789923Y-106682575D01*
X36911527Y-106702393D01*
X37310976Y-106302944D01*
X37240265Y-106232233D01*
X37626345Y-105846153D01*
X37697056Y-105916864D01*
X38096505Y-105517415D01*
X38076687Y-105395811D01*
X38335524Y-105136974D01*
X37952664Y-104677803D01*
X37328223Y-104389000D01*
X88873000Y-104389000D01*
X88873000Y-104611000D01*
X88916310Y-104828734D01*
X89001266Y-105033835D01*
X89124602Y-105218421D01*
X89281579Y-105375398D01*
X89466165Y-105498734D01*
X89671266Y-105583690D01*
X89889000Y-105627000D01*
X90111000Y-105627000D01*
X90328734Y-105583690D01*
X90533835Y-105498734D01*
X90718421Y-105375398D01*
X90875398Y-105218421D01*
X90929818Y-105136974D01*
X95164476Y-105136974D01*
X95423313Y-105395811D01*
X95403495Y-105517415D01*
X95802944Y-105916864D01*
X95873655Y-105846153D01*
X96259735Y-106232233D01*
X96189024Y-106302944D01*
X96588473Y-106702393D01*
X96710077Y-106682575D01*
X97500000Y-107472498D01*
X98289923Y-106682575D01*
X98411527Y-106702393D01*
X98810976Y-106302944D01*
X98740265Y-106232233D01*
X99126345Y-105846153D01*
X99197056Y-105916864D01*
X99596505Y-105517415D01*
X99576687Y-105395811D01*
X99835524Y-105136974D01*
X99452664Y-104677803D01*
X98767016Y-104360692D01*
X98032676Y-104183438D01*
X97277867Y-104152853D01*
X96531593Y-104270111D01*
X95822536Y-104530706D01*
X95547336Y-104677803D01*
X95164476Y-105136974D01*
X90929818Y-105136974D01*
X90998734Y-105033835D01*
X91083690Y-104828734D01*
X91127000Y-104611000D01*
X91127000Y-104389000D01*
X91083690Y-104171266D01*
X90998734Y-103966165D01*
X90875398Y-103781579D01*
X90718421Y-103624602D01*
X90533835Y-103501266D01*
X90328734Y-103416310D01*
X90111000Y-103373000D01*
X89889000Y-103373000D01*
X89671266Y-103416310D01*
X89466165Y-103501266D01*
X89281579Y-103624602D01*
X89124602Y-103781579D01*
X89001266Y-103966165D01*
X88916310Y-104171266D01*
X88873000Y-104389000D01*
X37328223Y-104389000D01*
X37267016Y-104360692D01*
X36532676Y-104183438D01*
X35777867Y-104152853D01*
X35031593Y-104270111D01*
X34322536Y-104530706D01*
X34047336Y-104677803D01*
X33664476Y-105136974D01*
X32252000Y-105136974D01*
X32252000Y-101989000D01*
X50473000Y-101989000D01*
X50473000Y-102211000D01*
X50516310Y-102428734D01*
X50601266Y-102633835D01*
X50724602Y-102818421D01*
X50881579Y-102975398D01*
X51066165Y-103098734D01*
X51271266Y-103183690D01*
X51489000Y-103227000D01*
X51711000Y-103227000D01*
X51928734Y-103183690D01*
X52036624Y-103139000D01*
X69123000Y-103139000D01*
X69123000Y-103361000D01*
X69166310Y-103578734D01*
X69251266Y-103783835D01*
X69374602Y-103968421D01*
X69531579Y-104125398D01*
X69716165Y-104248734D01*
X69921266Y-104333690D01*
X70139000Y-104377000D01*
X70361000Y-104377000D01*
X70578734Y-104333690D01*
X70783835Y-104248734D01*
X70968421Y-104125398D01*
X71125398Y-103968421D01*
X71248734Y-103783835D01*
X71333690Y-103578734D01*
X71374345Y-103374345D01*
X71578734Y-103333690D01*
X71783835Y-103248734D01*
X71968421Y-103125398D01*
X72125398Y-102968421D01*
X72248734Y-102783835D01*
X72333690Y-102578734D01*
X72377000Y-102361000D01*
X72377000Y-102139000D01*
X72333690Y-101921266D01*
X72248734Y-101716165D01*
X72125398Y-101531579D01*
X71968421Y-101374602D01*
X71783835Y-101251266D01*
X71578734Y-101166310D01*
X71361000Y-101123000D01*
X71139000Y-101123000D01*
X70921266Y-101166310D01*
X70716165Y-101251266D01*
X70531579Y-101374602D01*
X70374602Y-101531579D01*
X70251266Y-101716165D01*
X70166310Y-101921266D01*
X70125655Y-102125655D01*
X69921266Y-102166310D01*
X69716165Y-102251266D01*
X69531579Y-102374602D01*
X69374602Y-102531579D01*
X69251266Y-102716165D01*
X69166310Y-102921266D01*
X69123000Y-103139000D01*
X52036624Y-103139000D01*
X52133835Y-103098734D01*
X52318421Y-102975398D01*
X52475398Y-102818421D01*
X52598734Y-102633835D01*
X52683690Y-102428734D01*
X52727000Y-102211000D01*
X52727000Y-101989000D01*
X52707109Y-101889000D01*
X58123000Y-101889000D01*
X58123000Y-102111000D01*
X58166310Y-102328734D01*
X58251266Y-102533835D01*
X58374602Y-102718421D01*
X58531579Y-102875398D01*
X58716165Y-102998734D01*
X58921266Y-103083690D01*
X59139000Y-103127000D01*
X59361000Y-103127000D01*
X59578734Y-103083690D01*
X59783835Y-102998734D01*
X59968421Y-102875398D01*
X60125398Y-102718421D01*
X60248734Y-102533835D01*
X60333690Y-102328734D01*
X60377000Y-102111000D01*
X60377000Y-101889000D01*
X60333690Y-101671266D01*
X60248734Y-101466165D01*
X60125398Y-101281579D01*
X59968421Y-101124602D01*
X59783835Y-101001266D01*
X59578734Y-100916310D01*
X59361000Y-100873000D01*
X59139000Y-100873000D01*
X58921266Y-100916310D01*
X58716165Y-101001266D01*
X58531579Y-101124602D01*
X58374602Y-101281579D01*
X58251266Y-101466165D01*
X58166310Y-101671266D01*
X58123000Y-101889000D01*
X52707109Y-101889000D01*
X52683690Y-101771266D01*
X52598734Y-101566165D01*
X52475398Y-101381579D01*
X52318421Y-101224602D01*
X52133835Y-101101266D01*
X51928734Y-101016310D01*
X51711000Y-100973000D01*
X51489000Y-100973000D01*
X51271266Y-101016310D01*
X51066165Y-101101266D01*
X50881579Y-101224602D01*
X50724602Y-101381579D01*
X50601266Y-101566165D01*
X50516310Y-101771266D01*
X50473000Y-101989000D01*
X32252000Y-101989000D01*
X32252000Y-98850000D01*
X34419483Y-98850000D01*
X34419483Y-100550000D01*
X34433520Y-100692517D01*
X34475090Y-100829557D01*
X34542597Y-100955853D01*
X34633446Y-101066554D01*
X34744147Y-101157403D01*
X34870443Y-101224910D01*
X35007483Y-101266480D01*
X35150000Y-101280517D01*
X36850000Y-101280517D01*
X36992517Y-101266480D01*
X37129557Y-101224910D01*
X37255853Y-101157403D01*
X37366554Y-101066554D01*
X37457403Y-100955853D01*
X37524910Y-100829557D01*
X37566480Y-100692517D01*
X37580517Y-100550000D01*
X37580517Y-98850000D01*
X37566480Y-98707483D01*
X37524910Y-98570443D01*
X37457403Y-98444147D01*
X37366554Y-98333446D01*
X37255853Y-98242597D01*
X37185319Y-98204896D01*
X37224936Y-98165279D01*
X37397519Y-97906989D01*
X37516396Y-97619994D01*
X37577000Y-97315321D01*
X37577000Y-97004679D01*
X37516396Y-96700006D01*
X37397519Y-96413011D01*
X37224936Y-96154721D01*
X37005279Y-95935064D01*
X36937836Y-95890000D01*
X37005279Y-95844936D01*
X37224936Y-95625279D01*
X37397519Y-95366989D01*
X37516396Y-95079994D01*
X37577000Y-94775321D01*
X37577000Y-94464679D01*
X37516396Y-94160006D01*
X37397519Y-93873011D01*
X37224936Y-93614721D01*
X37005279Y-93395064D01*
X36937836Y-93350000D01*
X37005279Y-93304936D01*
X37224936Y-93085279D01*
X37397519Y-92826989D01*
X37516396Y-92539994D01*
X37577000Y-92235321D01*
X37577000Y-91924679D01*
X37516396Y-91620006D01*
X37397519Y-91333011D01*
X37315327Y-91210000D01*
X40519483Y-91210000D01*
X40519483Y-92910000D01*
X40533520Y-93052517D01*
X40575090Y-93189557D01*
X40642597Y-93315853D01*
X40733446Y-93426554D01*
X40844147Y-93517403D01*
X40914681Y-93555104D01*
X40875064Y-93594721D01*
X40702481Y-93853011D01*
X40583604Y-94140006D01*
X40523000Y-94444679D01*
X40523000Y-94755321D01*
X40583604Y-95059994D01*
X40702481Y-95346989D01*
X40875064Y-95605279D01*
X41094721Y-95824936D01*
X41162164Y-95870000D01*
X41094721Y-95915064D01*
X40875064Y-96134721D01*
X40702481Y-96393011D01*
X40583604Y-96680006D01*
X40523000Y-96984679D01*
X40523000Y-97295321D01*
X40583604Y-97599994D01*
X40702481Y-97886989D01*
X40875064Y-98145279D01*
X41094721Y-98364936D01*
X41162164Y-98410000D01*
X41094721Y-98455064D01*
X40875064Y-98674721D01*
X40702481Y-98933011D01*
X40583604Y-99220006D01*
X40523000Y-99524679D01*
X40523000Y-99835321D01*
X40583604Y-100139994D01*
X40702481Y-100426989D01*
X40875064Y-100685279D01*
X41094721Y-100904936D01*
X41353011Y-101077519D01*
X41640006Y-101196396D01*
X41944679Y-101257000D01*
X42255321Y-101257000D01*
X42559994Y-101196396D01*
X42846989Y-101077519D01*
X43105279Y-100904936D01*
X43324936Y-100685279D01*
X43497519Y-100426989D01*
X43616396Y-100139994D01*
X43677000Y-99835321D01*
X43677000Y-99589000D01*
X50473000Y-99589000D01*
X50473000Y-99811000D01*
X50516310Y-100028734D01*
X50601266Y-100233835D01*
X50724602Y-100418421D01*
X50881579Y-100575398D01*
X51066165Y-100698734D01*
X51271266Y-100783690D01*
X51489000Y-100827000D01*
X51711000Y-100827000D01*
X51928734Y-100783690D01*
X52133835Y-100698734D01*
X52298064Y-100589000D01*
X53073000Y-100589000D01*
X53073000Y-100811000D01*
X53116310Y-101028734D01*
X53201266Y-101233835D01*
X53324602Y-101418421D01*
X53481579Y-101575398D01*
X53666165Y-101698734D01*
X53871266Y-101783690D01*
X54089000Y-101827000D01*
X54311000Y-101827000D01*
X54528734Y-101783690D01*
X54733835Y-101698734D01*
X54918421Y-101575398D01*
X55075398Y-101418421D01*
X55198734Y-101233835D01*
X55283690Y-101028734D01*
X55327000Y-100811000D01*
X55327000Y-100589000D01*
X55283690Y-100371266D01*
X55208193Y-100189000D01*
X59973000Y-100189000D01*
X59973000Y-100411000D01*
X60016310Y-100628734D01*
X60101266Y-100833835D01*
X60224602Y-101018421D01*
X60381579Y-101175398D01*
X60566165Y-101298734D01*
X60771266Y-101383690D01*
X60989000Y-101427000D01*
X61211000Y-101427000D01*
X61428734Y-101383690D01*
X61633835Y-101298734D01*
X61766429Y-101210137D01*
X61831580Y-101275288D01*
X62016166Y-101398624D01*
X62221267Y-101483580D01*
X62439001Y-101526890D01*
X62661001Y-101526890D01*
X62878735Y-101483580D01*
X62986360Y-101439000D01*
X66673000Y-101439000D01*
X66673000Y-101661000D01*
X66716310Y-101878734D01*
X66801266Y-102083835D01*
X66924602Y-102268421D01*
X67081579Y-102425398D01*
X67266165Y-102548734D01*
X67471266Y-102633690D01*
X67689000Y-102677000D01*
X67911000Y-102677000D01*
X68128734Y-102633690D01*
X68333835Y-102548734D01*
X68518421Y-102425398D01*
X68675398Y-102268421D01*
X68798734Y-102083835D01*
X68883690Y-101878734D01*
X68927000Y-101661000D01*
X68927000Y-101439000D01*
X68883690Y-101221266D01*
X68798734Y-101016165D01*
X68675398Y-100831579D01*
X68518421Y-100674602D01*
X68333835Y-100551266D01*
X68128734Y-100466310D01*
X67911000Y-100423000D01*
X67689000Y-100423000D01*
X67471266Y-100466310D01*
X67266165Y-100551266D01*
X67081579Y-100674602D01*
X66924602Y-100831579D01*
X66801266Y-101016165D01*
X66716310Y-101221266D01*
X66673000Y-101439000D01*
X62986360Y-101439000D01*
X63083836Y-101398624D01*
X63268422Y-101275288D01*
X63425399Y-101118311D01*
X63548735Y-100933725D01*
X63633691Y-100728624D01*
X63677001Y-100510890D01*
X63677001Y-100288890D01*
X63633691Y-100071156D01*
X63548735Y-99866055D01*
X63425399Y-99681469D01*
X63418875Y-99674945D01*
X63475398Y-99618421D01*
X63598734Y-99433835D01*
X63683690Y-99228734D01*
X63727000Y-99011000D01*
X63727000Y-98789000D01*
X63683690Y-98571266D01*
X63598734Y-98366165D01*
X63475398Y-98181579D01*
X63318421Y-98024602D01*
X63133835Y-97901266D01*
X62928734Y-97816310D01*
X62711000Y-97773000D01*
X62489000Y-97773000D01*
X62271266Y-97816310D01*
X62066165Y-97901266D01*
X61881579Y-98024602D01*
X61724602Y-98181579D01*
X61601266Y-98366165D01*
X61527163Y-98545065D01*
X61514734Y-98547537D01*
X61309633Y-98632493D01*
X61125047Y-98755829D01*
X60968070Y-98912806D01*
X60844734Y-99097392D01*
X60797650Y-99211062D01*
X60771266Y-99216310D01*
X60566165Y-99301266D01*
X60381579Y-99424602D01*
X60224602Y-99581579D01*
X60101266Y-99766165D01*
X60016310Y-99971266D01*
X59973000Y-100189000D01*
X55208193Y-100189000D01*
X55198734Y-100166165D01*
X55075398Y-99981579D01*
X54918421Y-99824602D01*
X54733835Y-99701266D01*
X54528734Y-99616310D01*
X54311000Y-99573000D01*
X54089000Y-99573000D01*
X53871266Y-99616310D01*
X53666165Y-99701266D01*
X53481579Y-99824602D01*
X53324602Y-99981579D01*
X53201266Y-100166165D01*
X53116310Y-100371266D01*
X53073000Y-100589000D01*
X52298064Y-100589000D01*
X52318421Y-100575398D01*
X52475398Y-100418421D01*
X52598734Y-100233835D01*
X52683690Y-100028734D01*
X52727000Y-99811000D01*
X52727000Y-99589000D01*
X52683690Y-99371266D01*
X52598734Y-99166165D01*
X52475398Y-98981579D01*
X52318421Y-98824602D01*
X52133835Y-98701266D01*
X51928734Y-98616310D01*
X51711000Y-98573000D01*
X51489000Y-98573000D01*
X51271266Y-98616310D01*
X51066165Y-98701266D01*
X50881579Y-98824602D01*
X50724602Y-98981579D01*
X50601266Y-99166165D01*
X50516310Y-99371266D01*
X50473000Y-99589000D01*
X43677000Y-99589000D01*
X43677000Y-99524679D01*
X43616396Y-99220006D01*
X43497519Y-98933011D01*
X43324936Y-98674721D01*
X43105279Y-98455064D01*
X43037836Y-98410000D01*
X43105279Y-98364936D01*
X43324936Y-98145279D01*
X43497519Y-97886989D01*
X43616396Y-97599994D01*
X43640463Y-97479001D01*
X44073000Y-97479001D01*
X44073000Y-97701001D01*
X44116310Y-97918735D01*
X44201266Y-98123836D01*
X44324602Y-98308422D01*
X44481579Y-98465399D01*
X44666165Y-98588735D01*
X44871266Y-98673691D01*
X45089000Y-98717001D01*
X45311000Y-98717001D01*
X45528734Y-98673691D01*
X45733835Y-98588735D01*
X45918421Y-98465399D01*
X46075398Y-98308422D01*
X46198734Y-98123836D01*
X46283690Y-97918735D01*
X46327000Y-97701001D01*
X46327000Y-97479001D01*
X46283690Y-97261267D01*
X46198734Y-97056166D01*
X46087039Y-96889001D01*
X46373000Y-96889001D01*
X46373000Y-97111001D01*
X46416310Y-97328735D01*
X46501266Y-97533836D01*
X46624602Y-97718422D01*
X46781579Y-97875399D01*
X46966165Y-97998735D01*
X47171266Y-98083691D01*
X47389000Y-98127001D01*
X47611000Y-98127001D01*
X47828734Y-98083691D01*
X48033835Y-97998735D01*
X48218421Y-97875399D01*
X48228036Y-97865784D01*
X48271266Y-97883690D01*
X48489000Y-97927000D01*
X48711000Y-97927000D01*
X48928734Y-97883690D01*
X49133835Y-97798734D01*
X49318421Y-97675398D01*
X49475398Y-97518421D01*
X49598734Y-97333835D01*
X49683690Y-97128734D01*
X49727000Y-96911000D01*
X49727000Y-96689000D01*
X49683690Y-96471266D01*
X49598734Y-96266165D01*
X49475398Y-96081579D01*
X49318421Y-95924602D01*
X49133835Y-95801266D01*
X48928734Y-95716310D01*
X48711000Y-95673000D01*
X48489000Y-95673000D01*
X48271266Y-95716310D01*
X48066165Y-95801266D01*
X47881579Y-95924602D01*
X47871964Y-95934217D01*
X47828734Y-95916311D01*
X47611000Y-95873001D01*
X47389000Y-95873001D01*
X47171266Y-95916311D01*
X46966165Y-96001267D01*
X46781579Y-96124603D01*
X46624602Y-96281580D01*
X46501266Y-96466166D01*
X46416310Y-96671267D01*
X46373000Y-96889001D01*
X46087039Y-96889001D01*
X46075398Y-96871580D01*
X45918421Y-96714603D01*
X45733835Y-96591267D01*
X45528734Y-96506311D01*
X45311000Y-96463001D01*
X45089000Y-96463001D01*
X44871266Y-96506311D01*
X44666165Y-96591267D01*
X44481579Y-96714603D01*
X44324602Y-96871580D01*
X44201266Y-97056166D01*
X44116310Y-97261267D01*
X44073000Y-97479001D01*
X43640463Y-97479001D01*
X43677000Y-97295321D01*
X43677000Y-96984679D01*
X43616396Y-96680006D01*
X43497519Y-96393011D01*
X43324936Y-96134721D01*
X43105279Y-95915064D01*
X43037836Y-95870000D01*
X43105279Y-95824936D01*
X43324936Y-95605279D01*
X43469448Y-95389000D01*
X50623000Y-95389000D01*
X50623000Y-95611000D01*
X50666310Y-95828734D01*
X50751266Y-96033835D01*
X50874602Y-96218421D01*
X51031579Y-96375398D01*
X51216165Y-96498734D01*
X51421266Y-96583690D01*
X51639000Y-96627000D01*
X51861000Y-96627000D01*
X52078734Y-96583690D01*
X52283835Y-96498734D01*
X52468421Y-96375398D01*
X52625398Y-96218421D01*
X52748734Y-96033835D01*
X52833690Y-95828734D01*
X52877000Y-95611000D01*
X52877000Y-95389000D01*
X52833690Y-95171266D01*
X52748734Y-94966165D01*
X52625398Y-94781579D01*
X52468421Y-94624602D01*
X52283835Y-94501266D01*
X52078734Y-94416310D01*
X51861000Y-94373000D01*
X51639000Y-94373000D01*
X51421266Y-94416310D01*
X51216165Y-94501266D01*
X51031579Y-94624602D01*
X50874602Y-94781579D01*
X50751266Y-94966165D01*
X50666310Y-95171266D01*
X50623000Y-95389000D01*
X43469448Y-95389000D01*
X43497519Y-95346989D01*
X43616396Y-95059994D01*
X43677000Y-94755321D01*
X43677000Y-94444679D01*
X43616396Y-94140006D01*
X43497519Y-93853011D01*
X43324936Y-93594721D01*
X43285319Y-93555104D01*
X43355853Y-93517403D01*
X43466554Y-93426554D01*
X43557403Y-93315853D01*
X43624910Y-93189557D01*
X43655413Y-93089000D01*
X58173000Y-93089000D01*
X58173000Y-93311000D01*
X58216310Y-93528734D01*
X58301266Y-93733835D01*
X58424602Y-93918421D01*
X58581579Y-94075398D01*
X58766165Y-94198734D01*
X58971266Y-94283690D01*
X59189000Y-94327000D01*
X59411000Y-94327000D01*
X59628734Y-94283690D01*
X59778236Y-94221764D01*
X59716310Y-94371266D01*
X59673000Y-94589000D01*
X59673000Y-94811000D01*
X59697930Y-94936332D01*
X59541165Y-95001266D01*
X59356579Y-95124602D01*
X59199602Y-95281579D01*
X59076266Y-95466165D01*
X58991310Y-95671266D01*
X58948000Y-95889000D01*
X58948000Y-96111000D01*
X58991310Y-96328734D01*
X59076266Y-96533835D01*
X59199602Y-96718421D01*
X59356579Y-96875398D01*
X59541165Y-96998734D01*
X59746266Y-97083690D01*
X59964000Y-97127000D01*
X60186000Y-97127000D01*
X60403734Y-97083690D01*
X60608835Y-96998734D01*
X60793421Y-96875398D01*
X60950398Y-96718421D01*
X61073734Y-96533835D01*
X61133726Y-96389000D01*
X67773000Y-96389000D01*
X67773000Y-96611000D01*
X67816310Y-96828734D01*
X67901266Y-97033835D01*
X68024602Y-97218421D01*
X68034217Y-97228036D01*
X68016310Y-97271266D01*
X67973000Y-97489000D01*
X67973000Y-97711000D01*
X68016310Y-97928734D01*
X68101266Y-98133835D01*
X68224602Y-98318421D01*
X68381579Y-98475398D01*
X68566165Y-98598734D01*
X68771266Y-98683690D01*
X68989000Y-98727000D01*
X69211000Y-98727000D01*
X69428734Y-98683690D01*
X69633835Y-98598734D01*
X69818421Y-98475398D01*
X69975398Y-98318421D01*
X70098734Y-98133835D01*
X70183690Y-97928734D01*
X70227000Y-97711000D01*
X70227000Y-97489000D01*
X70183690Y-97271266D01*
X70098734Y-97066165D01*
X69975398Y-96881579D01*
X69965783Y-96871964D01*
X69983690Y-96828734D01*
X70021430Y-96639000D01*
X97873000Y-96639000D01*
X97873000Y-96861000D01*
X97916310Y-97078734D01*
X98001266Y-97283835D01*
X98124602Y-97468421D01*
X98281579Y-97625398D01*
X98466165Y-97748734D01*
X98671266Y-97833690D01*
X98889000Y-97877000D01*
X99111000Y-97877000D01*
X99328734Y-97833690D01*
X99533835Y-97748734D01*
X99718421Y-97625398D01*
X99875398Y-97468421D01*
X99998734Y-97283835D01*
X100083690Y-97078734D01*
X100127000Y-96861000D01*
X100127000Y-96639000D01*
X100083690Y-96421266D01*
X99998734Y-96216165D01*
X99875398Y-96031579D01*
X99718421Y-95874602D01*
X99533835Y-95751266D01*
X99328734Y-95666310D01*
X99111000Y-95623000D01*
X98889000Y-95623000D01*
X98671266Y-95666310D01*
X98466165Y-95751266D01*
X98281579Y-95874602D01*
X98124602Y-96031579D01*
X98001266Y-96216165D01*
X97916310Y-96421266D01*
X97873000Y-96639000D01*
X70021430Y-96639000D01*
X70027000Y-96611000D01*
X70027000Y-96389000D01*
X69983690Y-96171266D01*
X69898734Y-95966165D01*
X69775398Y-95781579D01*
X69618421Y-95624602D01*
X69433835Y-95501266D01*
X69228734Y-95416310D01*
X69011000Y-95373000D01*
X68789000Y-95373000D01*
X68571266Y-95416310D01*
X68366165Y-95501266D01*
X68181579Y-95624602D01*
X68024602Y-95781579D01*
X67901266Y-95966165D01*
X67816310Y-96171266D01*
X67773000Y-96389000D01*
X61133726Y-96389000D01*
X61158690Y-96328734D01*
X61202000Y-96111000D01*
X61202000Y-95889000D01*
X61177070Y-95763668D01*
X61333835Y-95698734D01*
X61518421Y-95575398D01*
X61675398Y-95418421D01*
X61798734Y-95233835D01*
X61883690Y-95028734D01*
X61892189Y-94986008D01*
X62031579Y-95125398D01*
X62216165Y-95248734D01*
X62421266Y-95333690D01*
X62639000Y-95377000D01*
X62861000Y-95377000D01*
X63078734Y-95333690D01*
X63283835Y-95248734D01*
X63468421Y-95125398D01*
X63625398Y-94968421D01*
X63748734Y-94783835D01*
X63833690Y-94578734D01*
X63874345Y-94374345D01*
X64078734Y-94333690D01*
X64283835Y-94248734D01*
X64448064Y-94139000D01*
X94623000Y-94139000D01*
X94623000Y-94361000D01*
X94666310Y-94578734D01*
X94751266Y-94783835D01*
X94874602Y-94968421D01*
X95031579Y-95125398D01*
X95216165Y-95248734D01*
X95421266Y-95333690D01*
X95639000Y-95377000D01*
X95861000Y-95377000D01*
X96078734Y-95333690D01*
X96283835Y-95248734D01*
X96468421Y-95125398D01*
X96625398Y-94968421D01*
X96748734Y-94783835D01*
X96833690Y-94578734D01*
X96877000Y-94361000D01*
X96877000Y-94139000D01*
X96833690Y-93921266D01*
X96748734Y-93716165D01*
X96625398Y-93531579D01*
X96468421Y-93374602D01*
X96283835Y-93251266D01*
X96078734Y-93166310D01*
X95861000Y-93123000D01*
X95639000Y-93123000D01*
X95421266Y-93166310D01*
X95216165Y-93251266D01*
X95031579Y-93374602D01*
X94874602Y-93531579D01*
X94751266Y-93716165D01*
X94666310Y-93921266D01*
X94623000Y-94139000D01*
X64448064Y-94139000D01*
X64468421Y-94125398D01*
X64625398Y-93968421D01*
X64748734Y-93783835D01*
X64833690Y-93578734D01*
X64877000Y-93361000D01*
X64877000Y-93139000D01*
X64833690Y-92921266D01*
X64748734Y-92716165D01*
X64625398Y-92531579D01*
X64468421Y-92374602D01*
X64283835Y-92251266D01*
X64078734Y-92166310D01*
X63861000Y-92123000D01*
X63639000Y-92123000D01*
X63421266Y-92166310D01*
X63361036Y-92191258D01*
X63377000Y-92111000D01*
X63377000Y-91889000D01*
X63333690Y-91671266D01*
X63248734Y-91466165D01*
X63125398Y-91281579D01*
X62968421Y-91124602D01*
X62783835Y-91001266D01*
X62578734Y-90916310D01*
X62361000Y-90873000D01*
X62139000Y-90873000D01*
X61921266Y-90916310D01*
X61716165Y-91001266D01*
X61531579Y-91124602D01*
X61374602Y-91281579D01*
X61251266Y-91466165D01*
X61166310Y-91671266D01*
X61123000Y-91889000D01*
X61123000Y-91918408D01*
X60953512Y-91988613D01*
X60768926Y-92111949D01*
X60611949Y-92268926D01*
X60488613Y-92453512D01*
X60403657Y-92658613D01*
X60368603Y-92834842D01*
X60298734Y-92666165D01*
X60175398Y-92481579D01*
X60018421Y-92324602D01*
X59833835Y-92201266D01*
X59628734Y-92116310D01*
X59411000Y-92073000D01*
X59189000Y-92073000D01*
X58971266Y-92116310D01*
X58766165Y-92201266D01*
X58581579Y-92324602D01*
X58424602Y-92481579D01*
X58301266Y-92666165D01*
X58216310Y-92871266D01*
X58173000Y-93089000D01*
X43655413Y-93089000D01*
X43666480Y-93052517D01*
X43680517Y-92910000D01*
X43680517Y-91389000D01*
X44473000Y-91389000D01*
X44473000Y-91611000D01*
X44516310Y-91828734D01*
X44601266Y-92033835D01*
X44724602Y-92218421D01*
X44881579Y-92375398D01*
X45066165Y-92498734D01*
X45271266Y-92583690D01*
X45489000Y-92627000D01*
X45711000Y-92627000D01*
X45928734Y-92583690D01*
X46133835Y-92498734D01*
X46318421Y-92375398D01*
X46475398Y-92218421D01*
X46598734Y-92033835D01*
X46683690Y-91828734D01*
X46727000Y-91611000D01*
X46727000Y-91389000D01*
X46683690Y-91171266D01*
X46598734Y-90966165D01*
X46475398Y-90781579D01*
X46318421Y-90624602D01*
X46133835Y-90501266D01*
X45928734Y-90416310D01*
X45711000Y-90373000D01*
X45489000Y-90373000D01*
X45271266Y-90416310D01*
X45066165Y-90501266D01*
X44881579Y-90624602D01*
X44724602Y-90781579D01*
X44601266Y-90966165D01*
X44516310Y-91171266D01*
X44473000Y-91389000D01*
X43680517Y-91389000D01*
X43680517Y-91210000D01*
X43666480Y-91067483D01*
X43624910Y-90930443D01*
X43557403Y-90804147D01*
X43466554Y-90693446D01*
X43355853Y-90602597D01*
X43229557Y-90535090D01*
X43092517Y-90493520D01*
X42950000Y-90479483D01*
X41250000Y-90479483D01*
X41107483Y-90493520D01*
X40970443Y-90535090D01*
X40844147Y-90602597D01*
X40733446Y-90693446D01*
X40642597Y-90804147D01*
X40575090Y-90930443D01*
X40533520Y-91067483D01*
X40519483Y-91210000D01*
X37315327Y-91210000D01*
X37224936Y-91074721D01*
X37005279Y-90855064D01*
X36746989Y-90682481D01*
X36459994Y-90563604D01*
X36155321Y-90503000D01*
X35844679Y-90503000D01*
X35540006Y-90563604D01*
X35253011Y-90682481D01*
X34994721Y-90855064D01*
X34775064Y-91074721D01*
X34602481Y-91333011D01*
X34483604Y-91620006D01*
X34423000Y-91924679D01*
X34423000Y-92235321D01*
X34483604Y-92539994D01*
X34602481Y-92826989D01*
X34775064Y-93085279D01*
X34994721Y-93304936D01*
X35062164Y-93350000D01*
X34994721Y-93395064D01*
X34775064Y-93614721D01*
X34602481Y-93873011D01*
X34483604Y-94160006D01*
X34423000Y-94464679D01*
X34423000Y-94775321D01*
X34483604Y-95079994D01*
X34602481Y-95366989D01*
X34775064Y-95625279D01*
X34994721Y-95844936D01*
X35062164Y-95890000D01*
X34994721Y-95935064D01*
X34775064Y-96154721D01*
X34602481Y-96413011D01*
X34483604Y-96700006D01*
X34423000Y-97004679D01*
X34423000Y-97315321D01*
X34483604Y-97619994D01*
X34602481Y-97906989D01*
X34775064Y-98165279D01*
X34814681Y-98204896D01*
X34744147Y-98242597D01*
X34633446Y-98333446D01*
X34542597Y-98444147D01*
X34475090Y-98570443D01*
X34433520Y-98707483D01*
X34419483Y-98850000D01*
X32252000Y-98850000D01*
X32252000Y-78350000D01*
X34319483Y-78350000D01*
X34319483Y-80050000D01*
X34333520Y-80192517D01*
X34375090Y-80329557D01*
X34442597Y-80455853D01*
X34533446Y-80566554D01*
X34644147Y-80657403D01*
X34714681Y-80695104D01*
X34675064Y-80734721D01*
X34502481Y-80993011D01*
X34383604Y-81280006D01*
X34323000Y-81584679D01*
X34323000Y-81895321D01*
X34383604Y-82199994D01*
X34502481Y-82486989D01*
X34675064Y-82745279D01*
X34894721Y-82964936D01*
X34962164Y-83010000D01*
X34894721Y-83055064D01*
X34675064Y-83274721D01*
X34502481Y-83533011D01*
X34383604Y-83820006D01*
X34323000Y-84124679D01*
X34323000Y-84435321D01*
X34383604Y-84739994D01*
X34502481Y-85026989D01*
X34675064Y-85285279D01*
X34894721Y-85504936D01*
X34962164Y-85550000D01*
X34894721Y-85595064D01*
X34675064Y-85814721D01*
X34502481Y-86073011D01*
X34383604Y-86360006D01*
X34323000Y-86664679D01*
X34323000Y-86975321D01*
X34383604Y-87279994D01*
X34502481Y-87566989D01*
X34675064Y-87825279D01*
X34894721Y-88044936D01*
X35153011Y-88217519D01*
X35440006Y-88336396D01*
X35744679Y-88397000D01*
X36055321Y-88397000D01*
X36359994Y-88336396D01*
X36646989Y-88217519D01*
X36905279Y-88044936D01*
X37124936Y-87825279D01*
X37297519Y-87566989D01*
X37416396Y-87279994D01*
X37477000Y-86975321D01*
X37477000Y-86664679D01*
X37416396Y-86360006D01*
X37297519Y-86073011D01*
X37124936Y-85814721D01*
X36905279Y-85595064D01*
X36837836Y-85550000D01*
X36905279Y-85504936D01*
X37124936Y-85285279D01*
X37297519Y-85026989D01*
X37416396Y-84739994D01*
X37477000Y-84435321D01*
X37477000Y-84124679D01*
X37416396Y-83820006D01*
X37297519Y-83533011D01*
X37124936Y-83274721D01*
X36905279Y-83055064D01*
X36837836Y-83010000D01*
X36905279Y-82964936D01*
X37124936Y-82745279D01*
X37297519Y-82486989D01*
X37416396Y-82199994D01*
X37477000Y-81895321D01*
X37477000Y-81584679D01*
X37416396Y-81280006D01*
X37297519Y-80993011D01*
X37124936Y-80734721D01*
X37085319Y-80695104D01*
X37155853Y-80657403D01*
X37266554Y-80566554D01*
X37357403Y-80455853D01*
X37424910Y-80329557D01*
X37466480Y-80192517D01*
X37480517Y-80050000D01*
X37480517Y-78350000D01*
X40519483Y-78350000D01*
X40519483Y-80050000D01*
X40533520Y-80192517D01*
X40575090Y-80329557D01*
X40642597Y-80455853D01*
X40733446Y-80566554D01*
X40844147Y-80657403D01*
X40914681Y-80695104D01*
X40875064Y-80734721D01*
X40702481Y-80993011D01*
X40583604Y-81280006D01*
X40523000Y-81584679D01*
X40523000Y-81895321D01*
X40583604Y-82199994D01*
X40702481Y-82486989D01*
X40875064Y-82745279D01*
X41094721Y-82964936D01*
X41162164Y-83010000D01*
X41094721Y-83055064D01*
X40875064Y-83274721D01*
X40702481Y-83533011D01*
X40583604Y-83820006D01*
X40523000Y-84124679D01*
X40523000Y-84435321D01*
X40583604Y-84739994D01*
X40702481Y-85026989D01*
X40875064Y-85285279D01*
X41094721Y-85504936D01*
X41162164Y-85550000D01*
X41094721Y-85595064D01*
X40875064Y-85814721D01*
X40702481Y-86073011D01*
X40583604Y-86360006D01*
X40523000Y-86664679D01*
X40523000Y-86975321D01*
X40583604Y-87279994D01*
X40702481Y-87566989D01*
X40875064Y-87825279D01*
X41094721Y-88044936D01*
X41353011Y-88217519D01*
X41640006Y-88336396D01*
X41944679Y-88397000D01*
X42255321Y-88397000D01*
X42295539Y-88389000D01*
X60173000Y-88389000D01*
X60173000Y-88611000D01*
X60216310Y-88828734D01*
X60301266Y-89033835D01*
X60312067Y-89050000D01*
X60301266Y-89066165D01*
X60216310Y-89271266D01*
X60173000Y-89489000D01*
X60173000Y-89711000D01*
X60216310Y-89928734D01*
X60301266Y-90133835D01*
X60424602Y-90318421D01*
X60581579Y-90475398D01*
X60766165Y-90598734D01*
X60971266Y-90683690D01*
X61189000Y-90727000D01*
X61411000Y-90727000D01*
X61628734Y-90683690D01*
X61833835Y-90598734D01*
X62018421Y-90475398D01*
X62175398Y-90318421D01*
X62298734Y-90133835D01*
X62383690Y-89928734D01*
X62427000Y-89711000D01*
X62427000Y-89489000D01*
X62383690Y-89271266D01*
X62298734Y-89066165D01*
X62287933Y-89050000D01*
X62298734Y-89033835D01*
X62365970Y-88871514D01*
X62558835Y-88791626D01*
X62624724Y-88747601D01*
X62624724Y-88802278D01*
X62668034Y-89020012D01*
X62752990Y-89225113D01*
X62876326Y-89409699D01*
X63033303Y-89566676D01*
X63217889Y-89690012D01*
X63422990Y-89774968D01*
X63640724Y-89818278D01*
X63862724Y-89818278D01*
X64080458Y-89774968D01*
X64188469Y-89730228D01*
X64216165Y-89748734D01*
X64421266Y-89833690D01*
X64639000Y-89877000D01*
X64861000Y-89877000D01*
X65078734Y-89833690D01*
X65283835Y-89748734D01*
X65468421Y-89625398D01*
X65625398Y-89468421D01*
X65678465Y-89389000D01*
X70873000Y-89389000D01*
X70873000Y-89611000D01*
X70916310Y-89828734D01*
X70987251Y-90000000D01*
X70916310Y-90171266D01*
X70873000Y-90389000D01*
X70873000Y-90611000D01*
X70916310Y-90828734D01*
X71001266Y-91033835D01*
X71124602Y-91218421D01*
X71281579Y-91375398D01*
X71466165Y-91498734D01*
X71671266Y-91583690D01*
X71889000Y-91627000D01*
X72111000Y-91627000D01*
X72328734Y-91583690D01*
X72533835Y-91498734D01*
X72718421Y-91375398D01*
X72875398Y-91218421D01*
X72998734Y-91033835D01*
X73083690Y-90828734D01*
X73127000Y-90611000D01*
X73127000Y-90389000D01*
X73083690Y-90171266D01*
X73012749Y-90000000D01*
X73083690Y-89828734D01*
X73127000Y-89611000D01*
X73127000Y-89389000D01*
X73083690Y-89171266D01*
X72998734Y-88966165D01*
X72875398Y-88781579D01*
X72718421Y-88624602D01*
X72533835Y-88501266D01*
X72328734Y-88416310D01*
X72111000Y-88373000D01*
X71889000Y-88373000D01*
X71671266Y-88416310D01*
X71466165Y-88501266D01*
X71281579Y-88624602D01*
X71124602Y-88781579D01*
X71001266Y-88966165D01*
X70916310Y-89171266D01*
X70873000Y-89389000D01*
X65678465Y-89389000D01*
X65748734Y-89283835D01*
X65833690Y-89078734D01*
X65877000Y-88861000D01*
X65877000Y-88639000D01*
X65833690Y-88421266D01*
X65748734Y-88216165D01*
X65625398Y-88031579D01*
X65468421Y-87874602D01*
X65283835Y-87751266D01*
X65078734Y-87666310D01*
X64861000Y-87623000D01*
X64639000Y-87623000D01*
X64421266Y-87666310D01*
X64313255Y-87711050D01*
X64285559Y-87692544D01*
X64080458Y-87607588D01*
X63862724Y-87564278D01*
X63640724Y-87564278D01*
X63422990Y-87607588D01*
X63217889Y-87692544D01*
X63152000Y-87736569D01*
X63152000Y-87681892D01*
X63108690Y-87464158D01*
X63023734Y-87259057D01*
X62900398Y-87074471D01*
X62743421Y-86917494D01*
X62558835Y-86794158D01*
X62353734Y-86709202D01*
X62136000Y-86665892D01*
X61914000Y-86665892D01*
X61696266Y-86709202D01*
X61491165Y-86794158D01*
X61306579Y-86917494D01*
X61149602Y-87074471D01*
X61026266Y-87259057D01*
X60959030Y-87421378D01*
X60766165Y-87501266D01*
X60581579Y-87624602D01*
X60424602Y-87781579D01*
X60301266Y-87966165D01*
X60216310Y-88171266D01*
X60173000Y-88389000D01*
X42295539Y-88389000D01*
X42559994Y-88336396D01*
X42846989Y-88217519D01*
X43105279Y-88044936D01*
X43324936Y-87825279D01*
X43497519Y-87566989D01*
X43616396Y-87279994D01*
X43677000Y-86975321D01*
X43677000Y-86664679D01*
X43616396Y-86360006D01*
X43497519Y-86073011D01*
X43324936Y-85814721D01*
X43105279Y-85595064D01*
X43037836Y-85550000D01*
X43105279Y-85504936D01*
X43324936Y-85285279D01*
X43497519Y-85026989D01*
X43616396Y-84739994D01*
X43677000Y-84435321D01*
X43677000Y-84124679D01*
X43630120Y-83889000D01*
X55373000Y-83889000D01*
X55373000Y-84111000D01*
X55416310Y-84328734D01*
X55501266Y-84533835D01*
X55624602Y-84718421D01*
X55781579Y-84875398D01*
X55966165Y-84998734D01*
X56171266Y-85083690D01*
X56389000Y-85127000D01*
X56611000Y-85127000D01*
X56828734Y-85083690D01*
X57033835Y-84998734D01*
X57218421Y-84875398D01*
X57375398Y-84718421D01*
X57461874Y-84589000D01*
X61073000Y-84589000D01*
X61073000Y-84811000D01*
X61116310Y-85028734D01*
X61201266Y-85233835D01*
X61324602Y-85418421D01*
X61481579Y-85575398D01*
X61666165Y-85698734D01*
X61871266Y-85783690D01*
X62089000Y-85827000D01*
X62311000Y-85827000D01*
X62528734Y-85783690D01*
X62733835Y-85698734D01*
X62823233Y-85639000D01*
X66623000Y-85639000D01*
X66623000Y-85861000D01*
X66666310Y-86078734D01*
X66751266Y-86283835D01*
X66874602Y-86468421D01*
X67031579Y-86625398D01*
X67216165Y-86748734D01*
X67421266Y-86833690D01*
X67639000Y-86877000D01*
X67861000Y-86877000D01*
X68078734Y-86833690D01*
X68283835Y-86748734D01*
X68468421Y-86625398D01*
X68625398Y-86468421D01*
X68678465Y-86389000D01*
X72373000Y-86389000D01*
X72373000Y-86611000D01*
X72416310Y-86828734D01*
X72501266Y-87033835D01*
X72624602Y-87218421D01*
X72781579Y-87375398D01*
X72966165Y-87498734D01*
X73171266Y-87583690D01*
X73389000Y-87627000D01*
X73611000Y-87627000D01*
X73745282Y-87600290D01*
X73701266Y-87666165D01*
X73616310Y-87871266D01*
X73573000Y-88089000D01*
X73573000Y-88311000D01*
X73616310Y-88528734D01*
X73701266Y-88733835D01*
X73745476Y-88800000D01*
X73701266Y-88866165D01*
X73616310Y-89071266D01*
X73573000Y-89289000D01*
X73573000Y-89511000D01*
X73616310Y-89728734D01*
X73701266Y-89933835D01*
X73824602Y-90118421D01*
X73981579Y-90275398D01*
X74166165Y-90398734D01*
X74371266Y-90483690D01*
X74589000Y-90527000D01*
X74811000Y-90527000D01*
X75028734Y-90483690D01*
X75233835Y-90398734D01*
X75418421Y-90275398D01*
X75575398Y-90118421D01*
X75698734Y-89933835D01*
X75783690Y-89728734D01*
X75827000Y-89511000D01*
X75827000Y-89289000D01*
X75783690Y-89071266D01*
X75698734Y-88866165D01*
X75654524Y-88800000D01*
X75698734Y-88733835D01*
X75783690Y-88528734D01*
X75827000Y-88311000D01*
X75827000Y-88089000D01*
X75783690Y-87871266D01*
X75698734Y-87666165D01*
X75665342Y-87616191D01*
X75828734Y-87583690D01*
X76033835Y-87498734D01*
X76218421Y-87375398D01*
X76375398Y-87218421D01*
X76498734Y-87033835D01*
X76583690Y-86828734D01*
X76627000Y-86611000D01*
X76627000Y-86389000D01*
X76624020Y-86374020D01*
X76639000Y-86377000D01*
X76861000Y-86377000D01*
X77078734Y-86333690D01*
X77283835Y-86248734D01*
X77468421Y-86125398D01*
X77625398Y-85968421D01*
X77748734Y-85783835D01*
X77833690Y-85578734D01*
X77877000Y-85361000D01*
X77877000Y-85139000D01*
X77833690Y-84921266D01*
X77748734Y-84716165D01*
X77625398Y-84531579D01*
X77468421Y-84374602D01*
X77283835Y-84251266D01*
X77280779Y-84250000D01*
X77283835Y-84248734D01*
X77468421Y-84125398D01*
X77625398Y-83968421D01*
X77748734Y-83783835D01*
X77833690Y-83578734D01*
X77877000Y-83361000D01*
X77877000Y-83139000D01*
X77833690Y-82921266D01*
X77748734Y-82716165D01*
X77625398Y-82531579D01*
X77468421Y-82374602D01*
X77283835Y-82251266D01*
X77078734Y-82166310D01*
X76861000Y-82123000D01*
X76639000Y-82123000D01*
X76421266Y-82166310D01*
X76339446Y-82200201D01*
X76333690Y-82171266D01*
X76248734Y-81966165D01*
X76170347Y-81848849D01*
X97248000Y-81848849D01*
X97248000Y-82051151D01*
X97287467Y-82249565D01*
X97364885Y-82436467D01*
X97477277Y-82604674D01*
X97620326Y-82747723D01*
X97788533Y-82860115D01*
X97975435Y-82937533D01*
X98173849Y-82977000D01*
X98376151Y-82977000D01*
X98574565Y-82937533D01*
X98761467Y-82860115D01*
X98880000Y-82780914D01*
X98880000Y-83148002D01*
X99108208Y-83148002D01*
X99012031Y-83321007D01*
X99097613Y-83456684D01*
X99249383Y-83634264D01*
X99432881Y-83778823D01*
X99641055Y-83884806D01*
X99865906Y-83948140D01*
X100052000Y-83807656D01*
X100052000Y-83148000D01*
X100032000Y-83148000D01*
X100032000Y-82402000D01*
X100052000Y-82402000D01*
X100052000Y-81742344D01*
X99865906Y-81601860D01*
X99641055Y-81665194D01*
X99432881Y-81771177D01*
X99302000Y-81874285D01*
X99302000Y-81848849D01*
X99262533Y-81650435D01*
X99185115Y-81463533D01*
X99072723Y-81295326D01*
X98929674Y-81152277D01*
X98761467Y-81039885D01*
X98574565Y-80962467D01*
X98376151Y-80923000D01*
X98173849Y-80923000D01*
X97975435Y-80962467D01*
X97788533Y-81039885D01*
X97620326Y-81152277D01*
X97477277Y-81295326D01*
X97364885Y-81463533D01*
X97287467Y-81650435D01*
X97248000Y-81848849D01*
X76170347Y-81848849D01*
X76125398Y-81781579D01*
X75968421Y-81624602D01*
X75783835Y-81501266D01*
X75578734Y-81416310D01*
X75361000Y-81373000D01*
X75139000Y-81373000D01*
X74921266Y-81416310D01*
X74716165Y-81501266D01*
X74531579Y-81624602D01*
X74374602Y-81781579D01*
X74251266Y-81966165D01*
X74166310Y-82171266D01*
X74123000Y-82389000D01*
X74123000Y-82434646D01*
X74078734Y-82416310D01*
X73861000Y-82373000D01*
X73639000Y-82373000D01*
X73421266Y-82416310D01*
X73216165Y-82501266D01*
X73031579Y-82624602D01*
X72874602Y-82781579D01*
X72751266Y-82966165D01*
X72666310Y-83171266D01*
X72623000Y-83389000D01*
X72623000Y-83611000D01*
X72666310Y-83828734D01*
X72751266Y-84033835D01*
X72874602Y-84218421D01*
X72906181Y-84250000D01*
X72874602Y-84281579D01*
X72751266Y-84466165D01*
X72666310Y-84671266D01*
X72623000Y-84889000D01*
X72623000Y-85111000D01*
X72666310Y-85328734D01*
X72751266Y-85533835D01*
X72802551Y-85610589D01*
X72781579Y-85624602D01*
X72624602Y-85781579D01*
X72501266Y-85966165D01*
X72416310Y-86171266D01*
X72373000Y-86389000D01*
X68678465Y-86389000D01*
X68710242Y-86341443D01*
X68889000Y-86377000D01*
X69111000Y-86377000D01*
X69328734Y-86333690D01*
X69533835Y-86248734D01*
X69718421Y-86125398D01*
X69875398Y-85968421D01*
X69998734Y-85783835D01*
X70083690Y-85578734D01*
X70127000Y-85361000D01*
X70127000Y-85139000D01*
X70083690Y-84921266D01*
X69998734Y-84716165D01*
X69875398Y-84531579D01*
X69718421Y-84374602D01*
X69533835Y-84251266D01*
X69328734Y-84166310D01*
X69111000Y-84123000D01*
X68889000Y-84123000D01*
X68671266Y-84166310D01*
X68466165Y-84251266D01*
X68281579Y-84374602D01*
X68124602Y-84531579D01*
X68039758Y-84658557D01*
X67861000Y-84623000D01*
X67639000Y-84623000D01*
X67421266Y-84666310D01*
X67216165Y-84751266D01*
X67031579Y-84874602D01*
X66874602Y-85031579D01*
X66751266Y-85216165D01*
X66666310Y-85421266D01*
X66623000Y-85639000D01*
X62823233Y-85639000D01*
X62918421Y-85575398D01*
X63075398Y-85418421D01*
X63198734Y-85233835D01*
X63283690Y-85028734D01*
X63327000Y-84811000D01*
X63327000Y-84589000D01*
X63283690Y-84371266D01*
X63198734Y-84166165D01*
X63075398Y-83981579D01*
X62918421Y-83824602D01*
X62733835Y-83701266D01*
X62528734Y-83616310D01*
X62311000Y-83573000D01*
X62089000Y-83573000D01*
X61871266Y-83616310D01*
X61666165Y-83701266D01*
X61481579Y-83824602D01*
X61324602Y-83981579D01*
X61201266Y-84166165D01*
X61116310Y-84371266D01*
X61073000Y-84589000D01*
X57461874Y-84589000D01*
X57498734Y-84533835D01*
X57583690Y-84328734D01*
X57627000Y-84111000D01*
X57627000Y-83889000D01*
X57583690Y-83671266D01*
X57498734Y-83466165D01*
X57375398Y-83281579D01*
X57218421Y-83124602D01*
X57033835Y-83001266D01*
X56828734Y-82916310D01*
X56611000Y-82873000D01*
X56389000Y-82873000D01*
X56171266Y-82916310D01*
X55966165Y-83001266D01*
X55781579Y-83124602D01*
X55624602Y-83281579D01*
X55501266Y-83466165D01*
X55416310Y-83671266D01*
X55373000Y-83889000D01*
X43630120Y-83889000D01*
X43616396Y-83820006D01*
X43497519Y-83533011D01*
X43324936Y-83274721D01*
X43105279Y-83055064D01*
X43037836Y-83010000D01*
X43105279Y-82964936D01*
X43324936Y-82745279D01*
X43497519Y-82486989D01*
X43616396Y-82199994D01*
X43677000Y-81895321D01*
X43677000Y-81584679D01*
X43616396Y-81280006D01*
X43497519Y-80993011D01*
X43324936Y-80734721D01*
X43285319Y-80695104D01*
X43355853Y-80657403D01*
X43466554Y-80566554D01*
X43557403Y-80455853D01*
X43624910Y-80329557D01*
X43666480Y-80192517D01*
X43680517Y-80050000D01*
X43680517Y-79344679D01*
X57133000Y-79344679D01*
X57133000Y-79655321D01*
X57193604Y-79959994D01*
X57312481Y-80246989D01*
X57485064Y-80505279D01*
X57704721Y-80724936D01*
X57963011Y-80897519D01*
X58250006Y-81016396D01*
X58554679Y-81077000D01*
X58752821Y-81077000D01*
X58681579Y-81124602D01*
X58524602Y-81281579D01*
X58401266Y-81466165D01*
X58316310Y-81671266D01*
X58273000Y-81889000D01*
X58273000Y-82111000D01*
X58316310Y-82328734D01*
X58401266Y-82533835D01*
X58524602Y-82718421D01*
X58681579Y-82875398D01*
X58866165Y-82998734D01*
X59071266Y-83083690D01*
X59289000Y-83127000D01*
X59511000Y-83127000D01*
X59728734Y-83083690D01*
X59933835Y-82998734D01*
X60118421Y-82875398D01*
X60275398Y-82718421D01*
X60398734Y-82533835D01*
X60483690Y-82328734D01*
X60527000Y-82111000D01*
X60527000Y-81889000D01*
X60483690Y-81671266D01*
X60398734Y-81466165D01*
X60275398Y-81281579D01*
X60118421Y-81124602D01*
X59933835Y-81001266D01*
X59728734Y-80916310D01*
X59511000Y-80873000D01*
X59493684Y-80873000D01*
X59715279Y-80724936D01*
X59934936Y-80505279D01*
X59980000Y-80437836D01*
X60025064Y-80505279D01*
X60244721Y-80724936D01*
X60503011Y-80897519D01*
X60790006Y-81016396D01*
X61094679Y-81077000D01*
X61405321Y-81077000D01*
X61709994Y-81016396D01*
X61996989Y-80897519D01*
X62255279Y-80724936D01*
X62362877Y-80617338D01*
X62409463Y-80704494D01*
X62454335Y-80759171D01*
X62281579Y-80874602D01*
X62124602Y-81031579D01*
X62001266Y-81216165D01*
X61916310Y-81421266D01*
X61873000Y-81639000D01*
X61873000Y-81861000D01*
X61916310Y-82078734D01*
X62001266Y-82283835D01*
X62124602Y-82468421D01*
X62281579Y-82625398D01*
X62466165Y-82748734D01*
X62671266Y-82833690D01*
X62889000Y-82877000D01*
X63111000Y-82877000D01*
X63328734Y-82833690D01*
X63533835Y-82748734D01*
X63718421Y-82625398D01*
X63875398Y-82468421D01*
X63998734Y-82283835D01*
X64083690Y-82078734D01*
X64127000Y-81861000D01*
X64127000Y-81639000D01*
X64083690Y-81421266D01*
X64070325Y-81389000D01*
X67173000Y-81389000D01*
X67173000Y-81611000D01*
X67216310Y-81828734D01*
X67301266Y-82033835D01*
X67424602Y-82218421D01*
X67581579Y-82375398D01*
X67766165Y-82498734D01*
X67971266Y-82583690D01*
X68189000Y-82627000D01*
X68411000Y-82627000D01*
X68628734Y-82583690D01*
X68833835Y-82498734D01*
X69018421Y-82375398D01*
X69175398Y-82218421D01*
X69298734Y-82033835D01*
X69383690Y-81828734D01*
X69427000Y-81611000D01*
X69427000Y-81389000D01*
X69383690Y-81171266D01*
X69298734Y-80966165D01*
X69247175Y-80889000D01*
X70373000Y-80889000D01*
X70373000Y-81111000D01*
X70416310Y-81328734D01*
X70501266Y-81533835D01*
X70624602Y-81718421D01*
X70781579Y-81875398D01*
X70966165Y-81998734D01*
X71171266Y-82083690D01*
X71389000Y-82127000D01*
X71611000Y-82127000D01*
X71828734Y-82083690D01*
X72033835Y-81998734D01*
X72218421Y-81875398D01*
X72375398Y-81718421D01*
X72498734Y-81533835D01*
X72583690Y-81328734D01*
X72627000Y-81111000D01*
X72627000Y-80889000D01*
X72583690Y-80671266D01*
X72498734Y-80466165D01*
X72375398Y-80281579D01*
X72218421Y-80124602D01*
X72033835Y-80001266D01*
X71828734Y-79916310D01*
X71611000Y-79873000D01*
X71389000Y-79873000D01*
X71171266Y-79916310D01*
X70966165Y-80001266D01*
X70781579Y-80124602D01*
X70624602Y-80281579D01*
X70501266Y-80466165D01*
X70416310Y-80671266D01*
X70373000Y-80889000D01*
X69247175Y-80889000D01*
X69175398Y-80781579D01*
X69018421Y-80624602D01*
X68833835Y-80501266D01*
X68628734Y-80416310D01*
X68411000Y-80373000D01*
X68189000Y-80373000D01*
X67971266Y-80416310D01*
X67766165Y-80501266D01*
X67581579Y-80624602D01*
X67424602Y-80781579D01*
X67301266Y-80966165D01*
X67216310Y-81171266D01*
X67173000Y-81389000D01*
X64070325Y-81389000D01*
X63998734Y-81216165D01*
X63875398Y-81031579D01*
X63828819Y-80985000D01*
X64163002Y-80985000D01*
X64163002Y-80826252D01*
X64321750Y-80985000D01*
X64640000Y-80988072D01*
X64764482Y-80975812D01*
X64884180Y-80939502D01*
X64994494Y-80880537D01*
X65091185Y-80801185D01*
X65170537Y-80704494D01*
X65229502Y-80594180D01*
X65265812Y-80474482D01*
X65278072Y-80350000D01*
X65275000Y-80031750D01*
X65116250Y-79873000D01*
X64163000Y-79873000D01*
X64163000Y-79893000D01*
X63417000Y-79893000D01*
X63417000Y-79873000D01*
X63397000Y-79873000D01*
X63397000Y-79639000D01*
X86373000Y-79639000D01*
X86373000Y-79861000D01*
X86416310Y-80078734D01*
X86501266Y-80283835D01*
X86624602Y-80468421D01*
X86781579Y-80625398D01*
X86966165Y-80748734D01*
X87171266Y-80833690D01*
X87389000Y-80877000D01*
X87611000Y-80877000D01*
X87828734Y-80833690D01*
X88033835Y-80748734D01*
X88218421Y-80625398D01*
X88375398Y-80468421D01*
X88498734Y-80283835D01*
X88583690Y-80078734D01*
X88627000Y-79861000D01*
X88627000Y-79639000D01*
X88583690Y-79421266D01*
X88570325Y-79389000D01*
X90123000Y-79389000D01*
X90123000Y-79611000D01*
X90166310Y-79828734D01*
X90251266Y-80033835D01*
X90374602Y-80218421D01*
X90531579Y-80375398D01*
X90716165Y-80498734D01*
X90921266Y-80583690D01*
X91139000Y-80627000D01*
X91361000Y-80627000D01*
X91578734Y-80583690D01*
X91783835Y-80498734D01*
X91968421Y-80375398D01*
X92125398Y-80218421D01*
X92248734Y-80033835D01*
X92333690Y-79828734D01*
X92377000Y-79611000D01*
X92377000Y-79389000D01*
X92333690Y-79171266D01*
X92248734Y-78966165D01*
X92125398Y-78781579D01*
X91968421Y-78624602D01*
X91783835Y-78501266D01*
X91578734Y-78416310D01*
X91361000Y-78373000D01*
X91139000Y-78373000D01*
X90921266Y-78416310D01*
X90716165Y-78501266D01*
X90531579Y-78624602D01*
X90374602Y-78781579D01*
X90251266Y-78966165D01*
X90166310Y-79171266D01*
X90123000Y-79389000D01*
X88570325Y-79389000D01*
X88498734Y-79216165D01*
X88375398Y-79031579D01*
X88218421Y-78874602D01*
X88033835Y-78751266D01*
X87828734Y-78666310D01*
X87611000Y-78623000D01*
X87389000Y-78623000D01*
X87171266Y-78666310D01*
X86966165Y-78751266D01*
X86781579Y-78874602D01*
X86624602Y-79031579D01*
X86501266Y-79216165D01*
X86416310Y-79421266D01*
X86373000Y-79639000D01*
X63397000Y-79639000D01*
X63397000Y-79127000D01*
X63417000Y-79127000D01*
X63417000Y-78173750D01*
X64163000Y-78173750D01*
X64163000Y-79127000D01*
X65116250Y-79127000D01*
X65275000Y-78968250D01*
X65278072Y-78650000D01*
X65265812Y-78525518D01*
X65229502Y-78405820D01*
X65170537Y-78295506D01*
X65091185Y-78198815D01*
X65018300Y-78139000D01*
X92123000Y-78139000D01*
X92123000Y-78361000D01*
X92166310Y-78578734D01*
X92251266Y-78783835D01*
X92374602Y-78968421D01*
X92531579Y-79125398D01*
X92716165Y-79248734D01*
X92921266Y-79333690D01*
X93139000Y-79377000D01*
X93361000Y-79377000D01*
X93578734Y-79333690D01*
X93783835Y-79248734D01*
X93968421Y-79125398D01*
X94125398Y-78968421D01*
X94248734Y-78783835D01*
X94333690Y-78578734D01*
X94377000Y-78361000D01*
X94377000Y-78139000D01*
X94333690Y-77921266D01*
X94303694Y-77848849D01*
X97248000Y-77848849D01*
X97248000Y-78051151D01*
X97287467Y-78249565D01*
X97364885Y-78436467D01*
X97477277Y-78604674D01*
X97620326Y-78747723D01*
X97788533Y-78860115D01*
X97975435Y-78937533D01*
X98173849Y-78977000D01*
X98376151Y-78977000D01*
X98574565Y-78937533D01*
X98761467Y-78860115D01*
X98929674Y-78747723D01*
X99072723Y-78604674D01*
X99185115Y-78436467D01*
X99262533Y-78249565D01*
X99302000Y-78051151D01*
X99302000Y-78025715D01*
X99432881Y-78128823D01*
X99641055Y-78234806D01*
X99865906Y-78298140D01*
X100052000Y-78157656D01*
X100052000Y-77498000D01*
X100032000Y-77498000D01*
X100032000Y-76752000D01*
X100052000Y-76752000D01*
X100052000Y-76092344D01*
X99865906Y-75951860D01*
X99641055Y-76015194D01*
X99432881Y-76121177D01*
X99249383Y-76265736D01*
X99097613Y-76443316D01*
X99012031Y-76578993D01*
X99108208Y-76751998D01*
X98880000Y-76751998D01*
X98880000Y-77119086D01*
X98761467Y-77039885D01*
X98574565Y-76962467D01*
X98376151Y-76923000D01*
X98173849Y-76923000D01*
X97975435Y-76962467D01*
X97788533Y-77039885D01*
X97620326Y-77152277D01*
X97477277Y-77295326D01*
X97364885Y-77463533D01*
X97287467Y-77650435D01*
X97248000Y-77848849D01*
X94303694Y-77848849D01*
X94248734Y-77716165D01*
X94125398Y-77531579D01*
X93968421Y-77374602D01*
X93783835Y-77251266D01*
X93578734Y-77166310D01*
X93361000Y-77123000D01*
X93139000Y-77123000D01*
X92921266Y-77166310D01*
X92716165Y-77251266D01*
X92531579Y-77374602D01*
X92374602Y-77531579D01*
X92251266Y-77716165D01*
X92166310Y-77921266D01*
X92123000Y-78139000D01*
X65018300Y-78139000D01*
X64994494Y-78119463D01*
X64884180Y-78060498D01*
X64764482Y-78024188D01*
X64640000Y-78011928D01*
X64321750Y-78015000D01*
X64163000Y-78173750D01*
X63417000Y-78173750D01*
X63258250Y-78015000D01*
X62940000Y-78011928D01*
X62815518Y-78024188D01*
X62695820Y-78060498D01*
X62585506Y-78119463D01*
X62488815Y-78198815D01*
X62409463Y-78295506D01*
X62362877Y-78382662D01*
X62255279Y-78275064D01*
X61996989Y-78102481D01*
X61709994Y-77983604D01*
X61405321Y-77923000D01*
X61094679Y-77923000D01*
X60790006Y-77983604D01*
X60503011Y-78102481D01*
X60244721Y-78275064D01*
X60025064Y-78494721D01*
X59980000Y-78562164D01*
X59934936Y-78494721D01*
X59715279Y-78275064D01*
X59456989Y-78102481D01*
X59169994Y-77983604D01*
X58865321Y-77923000D01*
X58554679Y-77923000D01*
X58250006Y-77983604D01*
X57963011Y-78102481D01*
X57704721Y-78275064D01*
X57485064Y-78494721D01*
X57312481Y-78753011D01*
X57193604Y-79040006D01*
X57133000Y-79344679D01*
X43680517Y-79344679D01*
X43680517Y-78350000D01*
X43666480Y-78207483D01*
X43624910Y-78070443D01*
X43557403Y-77944147D01*
X43466554Y-77833446D01*
X43355853Y-77742597D01*
X43229557Y-77675090D01*
X43092517Y-77633520D01*
X42950000Y-77619483D01*
X41250000Y-77619483D01*
X41107483Y-77633520D01*
X40970443Y-77675090D01*
X40844147Y-77742597D01*
X40733446Y-77833446D01*
X40642597Y-77944147D01*
X40575090Y-78070443D01*
X40533520Y-78207483D01*
X40519483Y-78350000D01*
X37480517Y-78350000D01*
X37466480Y-78207483D01*
X37424910Y-78070443D01*
X37357403Y-77944147D01*
X37266554Y-77833446D01*
X37155853Y-77742597D01*
X37029557Y-77675090D01*
X36892517Y-77633520D01*
X36750000Y-77619483D01*
X35050000Y-77619483D01*
X34907483Y-77633520D01*
X34770443Y-77675090D01*
X34644147Y-77742597D01*
X34533446Y-77833446D01*
X34442597Y-77944147D01*
X34375090Y-78070443D01*
X34333520Y-78207483D01*
X34319483Y-78350000D01*
X32252000Y-78350000D01*
X32252000Y-77589000D01*
X48973000Y-77589000D01*
X48973000Y-77811000D01*
X49016310Y-78028734D01*
X49101266Y-78233835D01*
X49224602Y-78418421D01*
X49381579Y-78575398D01*
X49566165Y-78698734D01*
X49771266Y-78783690D01*
X49989000Y-78827000D01*
X50211000Y-78827000D01*
X50428734Y-78783690D01*
X50633835Y-78698734D01*
X50818421Y-78575398D01*
X50975398Y-78418421D01*
X51098734Y-78233835D01*
X51183690Y-78028734D01*
X51227000Y-77811000D01*
X51227000Y-77589000D01*
X51183690Y-77371266D01*
X51098734Y-77166165D01*
X50975398Y-76981579D01*
X50818421Y-76824602D01*
X50633835Y-76701266D01*
X50428734Y-76616310D01*
X50211000Y-76573000D01*
X49989000Y-76573000D01*
X49771266Y-76616310D01*
X49566165Y-76701266D01*
X49381579Y-76824602D01*
X49224602Y-76981579D01*
X49101266Y-77166165D01*
X49016310Y-77371266D01*
X48973000Y-77589000D01*
X32252000Y-77589000D01*
X32252000Y-74113026D01*
X33664476Y-74113026D01*
X34047336Y-74572197D01*
X34732984Y-74889308D01*
X35467324Y-75066562D01*
X36222133Y-75097147D01*
X36968407Y-74979889D01*
X37215708Y-74889000D01*
X68123000Y-74889000D01*
X68123000Y-75111000D01*
X68166310Y-75328734D01*
X68251266Y-75533835D01*
X68374602Y-75718421D01*
X68531579Y-75875398D01*
X68716165Y-75998734D01*
X68921266Y-76083690D01*
X69139000Y-76127000D01*
X69361000Y-76127000D01*
X69578734Y-76083690D01*
X69783835Y-75998734D01*
X69968421Y-75875398D01*
X70125398Y-75718421D01*
X70248734Y-75533835D01*
X70333690Y-75328734D01*
X70377000Y-75111000D01*
X70377000Y-74889000D01*
X70333690Y-74671266D01*
X70248734Y-74466165D01*
X70197175Y-74389000D01*
X76623000Y-74389000D01*
X76623000Y-74611000D01*
X76666310Y-74828734D01*
X76751266Y-75033835D01*
X76874602Y-75218421D01*
X77031579Y-75375398D01*
X77216165Y-75498734D01*
X77421266Y-75583690D01*
X77639000Y-75627000D01*
X77861000Y-75627000D01*
X78078734Y-75583690D01*
X78283835Y-75498734D01*
X78468421Y-75375398D01*
X78625398Y-75218421D01*
X78748734Y-75033835D01*
X78833690Y-74828734D01*
X78877000Y-74611000D01*
X78877000Y-74389000D01*
X78833690Y-74171266D01*
X78809567Y-74113026D01*
X95164476Y-74113026D01*
X95547336Y-74572197D01*
X96232984Y-74889308D01*
X96967324Y-75066562D01*
X97722133Y-75097147D01*
X98468407Y-74979889D01*
X99177464Y-74719294D01*
X99452664Y-74572197D01*
X99835524Y-74113026D01*
X99576687Y-73854189D01*
X99596505Y-73732585D01*
X99197056Y-73333136D01*
X99126345Y-73403847D01*
X98740265Y-73017767D01*
X98810976Y-72947056D01*
X98411527Y-72547607D01*
X98289923Y-72567425D01*
X97500000Y-71777502D01*
X96710077Y-72567425D01*
X96588473Y-72547607D01*
X96189024Y-72947056D01*
X96259735Y-73017767D01*
X95873655Y-73403847D01*
X95802944Y-73333136D01*
X95403495Y-73732585D01*
X95423313Y-73854189D01*
X95164476Y-74113026D01*
X78809567Y-74113026D01*
X78748734Y-73966165D01*
X78625398Y-73781579D01*
X78468421Y-73624602D01*
X78283835Y-73501266D01*
X78078734Y-73416310D01*
X77861000Y-73373000D01*
X77639000Y-73373000D01*
X77421266Y-73416310D01*
X77216165Y-73501266D01*
X77031579Y-73624602D01*
X76874602Y-73781579D01*
X76751266Y-73966165D01*
X76666310Y-74171266D01*
X76623000Y-74389000D01*
X70197175Y-74389000D01*
X70125398Y-74281579D01*
X69968421Y-74124602D01*
X69783835Y-74001266D01*
X69578734Y-73916310D01*
X69361000Y-73873000D01*
X69139000Y-73873000D01*
X68921266Y-73916310D01*
X68716165Y-74001266D01*
X68531579Y-74124602D01*
X68374602Y-74281579D01*
X68251266Y-74466165D01*
X68166310Y-74671266D01*
X68123000Y-74889000D01*
X37215708Y-74889000D01*
X37677464Y-74719294D01*
X37952664Y-74572197D01*
X38335524Y-74113026D01*
X38076687Y-73854189D01*
X38096505Y-73732585D01*
X37697056Y-73333136D01*
X37626345Y-73403847D01*
X37240265Y-73017767D01*
X37310976Y-72947056D01*
X36911527Y-72547607D01*
X36789923Y-72567425D01*
X36000000Y-71777502D01*
X35210077Y-72567425D01*
X35088473Y-72547607D01*
X34689024Y-72947056D01*
X34759735Y-73017767D01*
X34373655Y-73403847D01*
X34302944Y-73333136D01*
X33903495Y-73732585D01*
X33923313Y-73854189D01*
X33664476Y-74113026D01*
X32252000Y-74113026D01*
X32252000Y-72103142D01*
X32270111Y-72218407D01*
X32530706Y-72927464D01*
X32677803Y-73202664D01*
X33136974Y-73585524D01*
X33395811Y-73326687D01*
X33517415Y-73346505D01*
X33916864Y-72947056D01*
X33846153Y-72876345D01*
X34232233Y-72490265D01*
X34302944Y-72560976D01*
X34702393Y-72161527D01*
X34682575Y-72039923D01*
X35472498Y-71250000D01*
X36527502Y-71250000D01*
X37317425Y-72039923D01*
X37297607Y-72161527D01*
X37697056Y-72560976D01*
X37767767Y-72490265D01*
X38153847Y-72876345D01*
X38083136Y-72947056D01*
X38482585Y-73346505D01*
X38604189Y-73326687D01*
X38863026Y-73585524D01*
X39322197Y-73202664D01*
X39639308Y-72517016D01*
X39739966Y-72100000D01*
X40511928Y-72100000D01*
X40524188Y-72224482D01*
X40560498Y-72344180D01*
X40619463Y-72454494D01*
X40698815Y-72551185D01*
X40795506Y-72630537D01*
X40905820Y-72689502D01*
X41025518Y-72725812D01*
X41150000Y-72738072D01*
X41468250Y-72735000D01*
X41627000Y-72576250D01*
X41627000Y-71623000D01*
X40673750Y-71623000D01*
X40515000Y-71781750D01*
X40511928Y-72100000D01*
X39739966Y-72100000D01*
X39816562Y-71782676D01*
X39847147Y-71027867D01*
X39748494Y-70400000D01*
X40511928Y-70400000D01*
X40515000Y-70718250D01*
X40673750Y-70877000D01*
X41627000Y-70877000D01*
X41627000Y-69923750D01*
X42373000Y-69923750D01*
X42373000Y-70877000D01*
X42393000Y-70877000D01*
X42393000Y-71623000D01*
X42373000Y-71623000D01*
X42373000Y-72576250D01*
X42531750Y-72735000D01*
X42850000Y-72738072D01*
X42974482Y-72725812D01*
X43094180Y-72689502D01*
X43204494Y-72630537D01*
X43301185Y-72551185D01*
X43380537Y-72454494D01*
X43427123Y-72367338D01*
X43534721Y-72474936D01*
X43793011Y-72647519D01*
X44080006Y-72766396D01*
X44384679Y-72827000D01*
X44695321Y-72827000D01*
X44999994Y-72766396D01*
X45286989Y-72647519D01*
X45545279Y-72474936D01*
X45764936Y-72255279D01*
X45810000Y-72187836D01*
X45855064Y-72255279D01*
X46074721Y-72474936D01*
X46333011Y-72647519D01*
X46620006Y-72766396D01*
X46924679Y-72827000D01*
X47235321Y-72827000D01*
X47539994Y-72766396D01*
X47826989Y-72647519D01*
X48085279Y-72474936D01*
X48304936Y-72255279D01*
X48350000Y-72187836D01*
X48395064Y-72255279D01*
X48614721Y-72474936D01*
X48873011Y-72647519D01*
X49160006Y-72766396D01*
X49464679Y-72827000D01*
X49775321Y-72827000D01*
X50079994Y-72766396D01*
X50366989Y-72647519D01*
X50625279Y-72474936D01*
X50844936Y-72255279D01*
X50890000Y-72187836D01*
X50935064Y-72255279D01*
X51154721Y-72474936D01*
X51413011Y-72647519D01*
X51700006Y-72766396D01*
X52004679Y-72827000D01*
X52315321Y-72827000D01*
X52619994Y-72766396D01*
X52906989Y-72647519D01*
X53165279Y-72474936D01*
X53384936Y-72255279D01*
X53430000Y-72187836D01*
X53475064Y-72255279D01*
X53694721Y-72474936D01*
X53953011Y-72647519D01*
X54240006Y-72766396D01*
X54544679Y-72827000D01*
X54855321Y-72827000D01*
X55159994Y-72766396D01*
X55446989Y-72647519D01*
X55705279Y-72474936D01*
X55924936Y-72255279D01*
X56097519Y-71996989D01*
X56216396Y-71709994D01*
X56277000Y-71405321D01*
X56277000Y-71094679D01*
X57223000Y-71094679D01*
X57223000Y-71405321D01*
X57283604Y-71709994D01*
X57402481Y-71996989D01*
X57575064Y-72255279D01*
X57794721Y-72474936D01*
X58053011Y-72647519D01*
X58340006Y-72766396D01*
X58644679Y-72827000D01*
X58955321Y-72827000D01*
X59259994Y-72766396D01*
X59546989Y-72647519D01*
X59805279Y-72474936D01*
X60024936Y-72255279D01*
X60070000Y-72187836D01*
X60115064Y-72255279D01*
X60334721Y-72474936D01*
X60593011Y-72647519D01*
X60880006Y-72766396D01*
X61184679Y-72827000D01*
X61495321Y-72827000D01*
X61799994Y-72766396D01*
X62086989Y-72647519D01*
X62345279Y-72474936D01*
X62564936Y-72255279D01*
X62610000Y-72187836D01*
X62655064Y-72255279D01*
X62874721Y-72474936D01*
X63133011Y-72647519D01*
X63420006Y-72766396D01*
X63724679Y-72827000D01*
X64035321Y-72827000D01*
X64339994Y-72766396D01*
X64626989Y-72647519D01*
X64885279Y-72474936D01*
X65104936Y-72255279D01*
X65150000Y-72187836D01*
X65195064Y-72255279D01*
X65414721Y-72474936D01*
X65673011Y-72647519D01*
X65960006Y-72766396D01*
X66264679Y-72827000D01*
X66575321Y-72827000D01*
X66879994Y-72766396D01*
X67166989Y-72647519D01*
X67425279Y-72474936D01*
X67644936Y-72255279D01*
X67690000Y-72187836D01*
X67735064Y-72255279D01*
X67954721Y-72474936D01*
X68213011Y-72647519D01*
X68500006Y-72766396D01*
X68804679Y-72827000D01*
X69115321Y-72827000D01*
X69419994Y-72766396D01*
X69706989Y-72647519D01*
X69965279Y-72474936D01*
X70072877Y-72367338D01*
X70119463Y-72454494D01*
X70198815Y-72551185D01*
X70295506Y-72630537D01*
X70405820Y-72689502D01*
X70525518Y-72725812D01*
X70650000Y-72738072D01*
X70968250Y-72735000D01*
X71127000Y-72576250D01*
X71127000Y-71623000D01*
X71873000Y-71623000D01*
X71873000Y-72576250D01*
X72031750Y-72735000D01*
X72350000Y-72738072D01*
X72474482Y-72725812D01*
X72594180Y-72689502D01*
X72704494Y-72630537D01*
X72801185Y-72551185D01*
X72880537Y-72454494D01*
X72939502Y-72344180D01*
X72975812Y-72224482D01*
X72988072Y-72100000D01*
X72985000Y-71781750D01*
X72826250Y-71623000D01*
X71873000Y-71623000D01*
X71127000Y-71623000D01*
X71107000Y-71623000D01*
X71107000Y-70877000D01*
X71127000Y-70877000D01*
X71127000Y-69923750D01*
X71873000Y-69923750D01*
X71873000Y-70877000D01*
X72826250Y-70877000D01*
X72985000Y-70718250D01*
X72988072Y-70400000D01*
X73919483Y-70400000D01*
X73919483Y-72100000D01*
X73933520Y-72242517D01*
X73975090Y-72379557D01*
X74042597Y-72505853D01*
X74133446Y-72616554D01*
X74244147Y-72707403D01*
X74370443Y-72774910D01*
X74507483Y-72816480D01*
X74650000Y-72830517D01*
X76350000Y-72830517D01*
X76492517Y-72816480D01*
X76629557Y-72774910D01*
X76755853Y-72707403D01*
X76866554Y-72616554D01*
X76957403Y-72505853D01*
X76995104Y-72435319D01*
X77034721Y-72474936D01*
X77293011Y-72647519D01*
X77580006Y-72766396D01*
X77884679Y-72827000D01*
X78195321Y-72827000D01*
X78499994Y-72766396D01*
X78786989Y-72647519D01*
X79045279Y-72474936D01*
X79264936Y-72255279D01*
X79366059Y-72103937D01*
X79549301Y-72319078D01*
X79777672Y-72499615D01*
X79986735Y-72611345D01*
X80207000Y-72522718D01*
X80207000Y-71623000D01*
X80187000Y-71623000D01*
X80187000Y-70877000D01*
X80207000Y-70877000D01*
X80207000Y-69977282D01*
X80953000Y-69977282D01*
X80953000Y-70877000D01*
X80973000Y-70877000D01*
X80973000Y-71623000D01*
X80953000Y-71623000D01*
X80953000Y-72522718D01*
X81173265Y-72611345D01*
X81382328Y-72499615D01*
X81610699Y-72319078D01*
X81793941Y-72103937D01*
X81895064Y-72255279D01*
X82114721Y-72474936D01*
X82373011Y-72647519D01*
X82660006Y-72766396D01*
X82964679Y-72827000D01*
X83275321Y-72827000D01*
X83579994Y-72766396D01*
X83866989Y-72647519D01*
X84125279Y-72474936D01*
X84344936Y-72255279D01*
X84517519Y-71996989D01*
X84636396Y-71709994D01*
X84683710Y-71472133D01*
X93652853Y-71472133D01*
X93770111Y-72218407D01*
X94030706Y-72927464D01*
X94177803Y-73202664D01*
X94636974Y-73585524D01*
X94895811Y-73326687D01*
X95017415Y-73346505D01*
X95416864Y-72947056D01*
X95346153Y-72876345D01*
X95732233Y-72490265D01*
X95802944Y-72560976D01*
X96202393Y-72161527D01*
X96182575Y-72039923D01*
X96972498Y-71250000D01*
X96182575Y-70460077D01*
X96202393Y-70338473D01*
X95802944Y-69939024D01*
X95732233Y-70009735D01*
X95346153Y-69623655D01*
X95416864Y-69552944D01*
X95017415Y-69153495D01*
X94895811Y-69173313D01*
X94636974Y-68914476D01*
X94177803Y-69297336D01*
X93860692Y-69982984D01*
X93683438Y-70717324D01*
X93652853Y-71472133D01*
X84683710Y-71472133D01*
X84697000Y-71405321D01*
X84697000Y-71094679D01*
X84636396Y-70790006D01*
X84517519Y-70503011D01*
X84344936Y-70244721D01*
X84125279Y-70025064D01*
X83866989Y-69852481D01*
X83579994Y-69733604D01*
X83275321Y-69673000D01*
X82964679Y-69673000D01*
X82660006Y-69733604D01*
X82373011Y-69852481D01*
X82114721Y-70025064D01*
X81895064Y-70244721D01*
X81793941Y-70396063D01*
X81610699Y-70180922D01*
X81382328Y-70000385D01*
X81173265Y-69888655D01*
X80953000Y-69977282D01*
X80207000Y-69977282D01*
X79986735Y-69888655D01*
X79777672Y-70000385D01*
X79549301Y-70180922D01*
X79366059Y-70396063D01*
X79264936Y-70244721D01*
X79045279Y-70025064D01*
X78786989Y-69852481D01*
X78499994Y-69733604D01*
X78195321Y-69673000D01*
X77884679Y-69673000D01*
X77580006Y-69733604D01*
X77293011Y-69852481D01*
X77034721Y-70025064D01*
X76995104Y-70064681D01*
X76957403Y-69994147D01*
X76866554Y-69883446D01*
X76755853Y-69792597D01*
X76629557Y-69725090D01*
X76492517Y-69683520D01*
X76350000Y-69669483D01*
X74650000Y-69669483D01*
X74507483Y-69683520D01*
X74370443Y-69725090D01*
X74244147Y-69792597D01*
X74133446Y-69883446D01*
X74042597Y-69994147D01*
X73975090Y-70120443D01*
X73933520Y-70257483D01*
X73919483Y-70400000D01*
X72988072Y-70400000D01*
X72975812Y-70275518D01*
X72939502Y-70155820D01*
X72880537Y-70045506D01*
X72801185Y-69948815D01*
X72704494Y-69869463D01*
X72594180Y-69810498D01*
X72474482Y-69774188D01*
X72350000Y-69761928D01*
X72031750Y-69765000D01*
X71873000Y-69923750D01*
X71127000Y-69923750D01*
X70968250Y-69765000D01*
X70650000Y-69761928D01*
X70525518Y-69774188D01*
X70405820Y-69810498D01*
X70295506Y-69869463D01*
X70198815Y-69948815D01*
X70119463Y-70045506D01*
X70072877Y-70132662D01*
X69965279Y-70025064D01*
X69706989Y-69852481D01*
X69419994Y-69733604D01*
X69115321Y-69673000D01*
X68804679Y-69673000D01*
X68500006Y-69733604D01*
X68213011Y-69852481D01*
X67954721Y-70025064D01*
X67735064Y-70244721D01*
X67690000Y-70312164D01*
X67644936Y-70244721D01*
X67425279Y-70025064D01*
X67166989Y-69852481D01*
X66879994Y-69733604D01*
X66575321Y-69673000D01*
X66264679Y-69673000D01*
X65960006Y-69733604D01*
X65673011Y-69852481D01*
X65414721Y-70025064D01*
X65195064Y-70244721D01*
X65150000Y-70312164D01*
X65104936Y-70244721D01*
X64885279Y-70025064D01*
X64626989Y-69852481D01*
X64339994Y-69733604D01*
X64035321Y-69673000D01*
X63724679Y-69673000D01*
X63420006Y-69733604D01*
X63133011Y-69852481D01*
X62874721Y-70025064D01*
X62655064Y-70244721D01*
X62610000Y-70312164D01*
X62564936Y-70244721D01*
X62345279Y-70025064D01*
X62086989Y-69852481D01*
X61799994Y-69733604D01*
X61495321Y-69673000D01*
X61184679Y-69673000D01*
X60880006Y-69733604D01*
X60593011Y-69852481D01*
X60334721Y-70025064D01*
X60115064Y-70244721D01*
X60070000Y-70312164D01*
X60024936Y-70244721D01*
X59805279Y-70025064D01*
X59546989Y-69852481D01*
X59259994Y-69733604D01*
X58955321Y-69673000D01*
X58644679Y-69673000D01*
X58340006Y-69733604D01*
X58053011Y-69852481D01*
X57794721Y-70025064D01*
X57575064Y-70244721D01*
X57402481Y-70503011D01*
X57283604Y-70790006D01*
X57223000Y-71094679D01*
X56277000Y-71094679D01*
X56216396Y-70790006D01*
X56097519Y-70503011D01*
X55924936Y-70244721D01*
X55705279Y-70025064D01*
X55446989Y-69852481D01*
X55159994Y-69733604D01*
X54855321Y-69673000D01*
X54544679Y-69673000D01*
X54240006Y-69733604D01*
X53953011Y-69852481D01*
X53694721Y-70025064D01*
X53475064Y-70244721D01*
X53430000Y-70312164D01*
X53384936Y-70244721D01*
X53165279Y-70025064D01*
X52906989Y-69852481D01*
X52619994Y-69733604D01*
X52315321Y-69673000D01*
X52004679Y-69673000D01*
X51700006Y-69733604D01*
X51413011Y-69852481D01*
X51154721Y-70025064D01*
X50935064Y-70244721D01*
X50890000Y-70312164D01*
X50844936Y-70244721D01*
X50625279Y-70025064D01*
X50366989Y-69852481D01*
X50079994Y-69733604D01*
X49775321Y-69673000D01*
X49464679Y-69673000D01*
X49160006Y-69733604D01*
X48873011Y-69852481D01*
X48614721Y-70025064D01*
X48395064Y-70244721D01*
X48350000Y-70312164D01*
X48304936Y-70244721D01*
X48085279Y-70025064D01*
X47826989Y-69852481D01*
X47539994Y-69733604D01*
X47235321Y-69673000D01*
X46924679Y-69673000D01*
X46620006Y-69733604D01*
X46333011Y-69852481D01*
X46074721Y-70025064D01*
X45855064Y-70244721D01*
X45810000Y-70312164D01*
X45764936Y-70244721D01*
X45545279Y-70025064D01*
X45286989Y-69852481D01*
X44999994Y-69733604D01*
X44695321Y-69673000D01*
X44384679Y-69673000D01*
X44080006Y-69733604D01*
X43793011Y-69852481D01*
X43534721Y-70025064D01*
X43427123Y-70132662D01*
X43380537Y-70045506D01*
X43301185Y-69948815D01*
X43204494Y-69869463D01*
X43094180Y-69810498D01*
X42974482Y-69774188D01*
X42850000Y-69761928D01*
X42531750Y-69765000D01*
X42373000Y-69923750D01*
X41627000Y-69923750D01*
X41468250Y-69765000D01*
X41150000Y-69761928D01*
X41025518Y-69774188D01*
X40905820Y-69810498D01*
X40795506Y-69869463D01*
X40698815Y-69948815D01*
X40619463Y-70045506D01*
X40560498Y-70155820D01*
X40524188Y-70275518D01*
X40511928Y-70400000D01*
X39748494Y-70400000D01*
X39729889Y-70281593D01*
X39469294Y-69572536D01*
X39322197Y-69297336D01*
X38863026Y-68914476D01*
X38604189Y-69173313D01*
X38482585Y-69153495D01*
X38083136Y-69552944D01*
X38153847Y-69623655D01*
X37767767Y-70009735D01*
X37697056Y-69939024D01*
X37297607Y-70338473D01*
X37317425Y-70460077D01*
X36527502Y-71250000D01*
X35472498Y-71250000D01*
X35458356Y-71235858D01*
X35985858Y-70708356D01*
X36000000Y-70722498D01*
X36789923Y-69932575D01*
X36911527Y-69952393D01*
X37310976Y-69552944D01*
X37240265Y-69482233D01*
X37626345Y-69096153D01*
X37697056Y-69166864D01*
X38096505Y-68767415D01*
X38076687Y-68645811D01*
X38335524Y-68386974D01*
X37952664Y-67927803D01*
X37267016Y-67610692D01*
X36816719Y-67502000D01*
X96646858Y-67502000D01*
X96531593Y-67520111D01*
G37*
%TD.AperFunction*%
%TD*%
M02*
